<?xml version="1.0" encoding="UTF-8" standalone="no"?>
<svg
   version="1.1"
   width="12.209780cm"
   height="5.753100cm"
   viewBox="0 0 122097800 57531000"
   id="svg11678"
   sodipodi:docname="onoff.svg"
   inkscape:version="1.2.1 (9c6d41e410, 2022-07-14)"
   inkscape:export-filename="CyberBadge-brd.png"
   inkscape:export-xdpi="400"
   inkscape:export-ydpi="400"
   xmlns:inkscape="http://www.inkscape.org/namespaces/inkscape"
   xmlns:sodipodi="http://sodipodi.sourceforge.net/DTD/sodipodi-0.dtd"
   xmlns="http://www.w3.org/2000/svg"
   xmlns:svg="http://www.w3.org/2000/svg"
   xmlns:rdf="http://www.w3.org/1999/02/22-rdf-syntax-ns#"
   xmlns:cc="http://creativecommons.org/ns#"
   xmlns:dc="http://purl.org/dc/elements/1.1/">
  <g
     id="path38666"
     transform="translate(-1058333.3)">
    <path
       style="color:#000000;fill:#000000;fill-opacity:0;stroke-width:1e+06;stroke-linecap:square;stroke-linejoin:bevel;-inkscape-stroke:none;paint-order:fill markers stroke"
       d="m 108269530,46367500 a 1326847.8,1326847.8 0 0 1 -1326850,1326848 1326847.8,1326847.8 0 0 1 -1326850,-1326848 1326847.8,1326847.8 0 0 1 1326850,-1326848 1326847.8,1326847.8 0 0 1 1326850,1326848 z"
       id="path39870" />
    <path
       style="color:#000000;fill:#c90000;stroke-linecap:square;stroke-linejoin:bevel;-inkscape-stroke:none;paint-order:fill markers stroke"
       d="m 106942680,44540652 c -119660,0 -239040,11757 -356400,35102 -117360,23345 -232150,58165 -342700,103958 -221640,91805 -423040,226376 -592680,396010 -169630,169634 -304200,371035 -396010,592673 -45790,110554 -80610,225341 -103960,342704 -23340,117364 -35100,236738 -35100,356401 0,0 0,0 0,0 0,0 0,0 0,0 0,119663 11760,239037 35100,356401 23350,117363 58170,232150 103960,342704 91810,221638 226380,423039 396010,592673 84620,84614 177340,160711 276840,227192 99490,66481 205280,123025 315840,168818 110550,45793 225340,80613 342700,103958 117360,23345 236740,35102 356400,35102 119660,0 239040,-11757 356400,-35102 117360,-23345 232150,-58165 342710,-103958 110550,-45793 216340,-102337 315830,-168818 99500,-66481 192220,-142578 276840,-227192 84610,-84615 160710,-177339 227190,-276835 66480,-99496 123030,-205284 168820,-315838 45790,-110554 80610,-225341 103960,-342704 23340,-117364 35100,-236738 35100,-356401 0,-119663 -11760,-239037 -35100,-356401 -23350,-117363 -58170,-232150 -103960,-342704 -45790,-110554 -102340,-216342 -168820,-315838 -66480,-99496 -142580,-192220 -227190,-276835 -169640,-169634 -371040,-304205 -592670,-396010 -110560,-45793 -225350,-80613 -342710,-103958 -117360,-23345 -236740,-35102 -356400,-35102 z m 0,1000000 v 0 c 54160,0 108190,5321 161310,15887 53120,10567 105070,26326 155110,47053 100330,41555 191470,102454 268250,179238 38300,38297 72740,80264 102830,125297 30090,45033 55680,92914 76410,142952 20730,50038 36490,101991 47050,155111 10570,53120 15890,107149 15890,161310 v 0 c 0,54161 -5320,108190 -15890,161310 -10560,53120 -26320,105073 -47050,155111 -20730,50038 -46320,97919 -76410,142952 -30090,45033 -64530,87000 -102830,125297 -38300,38298 -80260,72739 -125300,102829 -45030,30091 -92910,55683 -142950,76409 -50040,20727 -101990,36486 -155110,47053 -53120,10566 -107150,15887 -161310,15887 v 0 c -54160,0 -108190,-5321 -161310,-15887 -53120,-10567 -105070,-26326 -155110,-47053 -50040,-20726 -97920,-46318 -142950,-76409 -45040,-30090 -87000,-64531 -125300,-102829 -76790,-76784 -137680,-167925 -179240,-268249 -20730,-50038 -36490,-101991 -47050,-155111 -10570,-53120 -15890,-107149 -15890,-161310 v 0 c 0,-54161 5320,-108190 15890,-161310 10560,-53120 26320,-105073 47050,-155111 41560,-100324 102450,-191465 179240,-268249 76780,-76784 167920,-137683 268250,-179238 50040,-20727 101990,-36486 155110,-47053 53120,-10566 107150,-15887 161310,-15887 z"
       id="path39872" />
  </g>
  <defs
     id="defs11682" />
  <sodipodi:namedview
     id="namedview11680"
     pagecolor="#ffffff"
     bordercolor="#666666"
     borderopacity="1.0"
     inkscape:showpageshadow="2"
     inkscape:pageopacity="0.0"
     inkscape:pagecheckerboard="0"
     inkscape:deskcolor="#d1d1d1"
     inkscape:document-units="cm"
     showgrid="false"
     inkscape:zoom="12.422111"
     inkscape:cx="430.3214"
     inkscape:cy="174.125"
     inkscape:window-width="1920"
     inkscape:window-height="1011"
     inkscape:window-x="0"
     inkscape:window-y="32"
     inkscape:window-maximized="1"
     inkscape:current-layer="svg11678" />
  <title
     id="title2">SVG Picture created as CyberBadge-brd.svg date 2023/02/18 19:26:21 </title>
  <desc
     id="desc4">Picture generated by PCBNEW </desc>
  <path
     style="color:#000000;fill:#c90000;-inkscape-stroke:none"
     d="m 110746660,44540652 v 3653696 h 1000000 v -3653696 z"
     id="path38668" />
  <metadata
     id="metadata39131">
    <rdf:RDF>
      <cc:Work
         rdf:about="">
        <dc:title>SVG Picture created as CyberBadge-brd.svg date 2023/02/18 19:26:21 </dc:title>
      </cc:Work>
    </rdf:RDF>
  </metadata>
</svg>
