<?xml version="1.0" encoding="UTF-8" standalone="no"?>
<svg
   version="1.1"
   width="12.209780cm"
   height="5.753100cm"
   viewBox="0 0 122097800 57531000"
   id="svg11678"
   sodipodi:docname="holder.svg"
   inkscape:version="1.2.1 (9c6d41e410, 2022-07-14)"
   inkscape:export-filename="CyberBadge-brd.png"
   inkscape:export-xdpi="400"
   inkscape:export-ydpi="400"
   xmlns:inkscape="http://www.inkscape.org/namespaces/inkscape"
   xmlns:sodipodi="http://sodipodi.sourceforge.net/DTD/sodipodi-0.dtd"
   xmlns="http://www.w3.org/2000/svg"
   xmlns:svg="http://www.w3.org/2000/svg"
   xmlns:rdf="http://www.w3.org/1999/02/22-rdf-syntax-ns#"
   xmlns:cc="http://creativecommons.org/ns#"
   xmlns:dc="http://purl.org/dc/elements/1.1/">
  <defs
     id="defs11682">
    <inkscape:path-effect
       effect="fill_between_many"
       method="originald"
       linkedpaths="#path10508,0,1"
       id="path-effect23168" />
    <inkscape:path-effect
       effect="fill_between_many"
       method="originald"
       linkedpaths="#path10508,0,1"
       id="path-effect23172" />
  </defs>
  <sodipodi:namedview
     id="namedview11680"
     pagecolor="#ffffff"
     bordercolor="#666666"
     borderopacity="1.0"
     inkscape:showpageshadow="2"
     inkscape:pageopacity="0.0"
     inkscape:pagecheckerboard="0"
     inkscape:deskcolor="#d1d1d1"
     inkscape:document-units="cm"
     showgrid="false"
     inkscape:zoom="12.666612"
     inkscape:cx="264.83009"
     inkscape:cy="69.23714"
     inkscape:window-width="1920"
     inkscape:window-height="1011"
     inkscape:window-x="0"
     inkscape:window-y="32"
     inkscape:window-maximized="1"
     inkscape:current-layer="svg11678" />
  <title
     id="title2">SVG Picture created as CyberBadge-brd.svg date 2023/02/18 19:26:21 </title>
  <desc
     id="desc4">Picture generated by PCBNEW </desc>
  <g
     style="fill:#D0D2CD; fill-opacity:0.0;  stroke:#D0D2CD; stroke-width:100000.000000; stroke-opacity:1;  stroke-linecap:round; stroke-linejoin:round;"
     id="g11676">
    <path
       d="m 63279245,17567463 c 111848,4529 223857,-3137 334045,-22863 110189,-19726 217901,-51394 321231,-94446 103330,-43051 201664,-97228 293262,-161574 91598,-64345 175916,-138476 251461,-221080 v 0 c 85708,-89140 180177,-169422 281974,-239630 101798,-70208 210408,-129986 324185,-178427 113778,-48442 232145,-85302 353310,-110021 121164,-24720 244510,-37174 368171,-37174 123661,0 247007,12454 368171,37174 121165,24719 239532,61579 353310,110021 113777,48441 222387,108219 324185,178427 101797,70208 196266,150490 281974,239630 l 19,-18 c 75542,82607 159857,156741 251453,221090 91596,64350 189928,118531 293256,161587 103329,43056 211040,74730 321227,94461 110187,19732 222196,27404 334045,22880 v 0 h 6118078 v -1 c 194033,1660 387757,-15836 578353,-52232 190596,-36397 377135,-91516 556903,-164557 179769,-73041 351889,-163647 513858,-270501 161970,-106853 312997,-229432 450886,-365954 v 0 c 99700,-78750 208432,-145334 323894,-198343 115463,-53009 236832,-92066 361541,-116343 124708,-24278 251866,-33603 378781,-27778 126916,5825 252685,26758 374645,62357 121960,35598 239241,85608 349362,148970 110121,63363 212297,139627 304364,227178 92067,87551 173369,185764 242186,292562 68817,106798 124658,221418 166341,341435 41684,120017 68912,244575 81109,371037 12197,126463 9275,253928 -8703,379699 -17978,125771 -50884,248950 -98022,366931 -47139,117980 -108173,229921 -181812,333453 -73638,103532 -159356,197917 -255338,281157 -95983,83240 -201546,154741 -314455,212991 -112909,58250 -232360,102833 -355823,132806 -123463,29972 -250060,45120 -377109,45123 v 10 H 65793563 v 0 H 54043563 v 0 c -135259,3 -269960,-17325 -400814,-51563 -130854,-34237 -256781,-85101 -374705,-151349 -117924,-66248 -226873,-147334 -324185,-241276 -97312,-93943 -182185,-199967 -252545,-315484 -70360,-115517 -125628,-239574 -164452,-369139 -38825,-129566 -60887,-263573 -65647,-398747 -4761,-135174 7820,-270401 37434,-402378 29614,-131977 76017,-259615 138075,-379797 62058,-120181 139261,-231915 229721,-332473 90460,-100557 193433,-189108 306402,-263490 112969,-74382 235004,-133981 363123,-177342 128119,-43360 261267,-70125 396189,-79639 134923,-9514 270509,-1700 403446,23252 132937,24951 262129,66835 384419,124627 122291,57792 236671,131017 340348,217885 103677,86867 195796,186662 274105,296946 l 18,-7 c 75551,82601 159873,156729 251475,221073 91601,64343 189938,118520 293270,161572 103332,43051 211045,74722 321234,94452 110189,19729 222200,27400 334050,22877 v 0 h 6744720 z"
       id="path53267" />
  </g>
  <metadata
     id="metadata53285">
    <rdf:RDF>
      <cc:Work
         rdf:about="">
        <dc:title>SVG Picture created as CyberBadge-brd.svg date 2023/02/18 19:26:21 </dc:title>
      </cc:Work>
    </rdf:RDF>
  </metadata>
  <circle
     style="fill:#000000;stroke:#000000;stroke-width:455083;stroke-linejoin:bevel;paint-order:fill markers stroke"
     id="path765"
     cx="54045600"
     cy="18050230"
     r="734049.44" />
  <circle
     style="fill:#000000;stroke:#000000;stroke-width:455083;stroke-linejoin:bevel;paint-order:fill markers stroke"
     id="path765-5"
     cx="65856288"
     cy="18148950"
     r="734049.44" />
  <circle
     style="fill:#000000;stroke:#000000;stroke-width:455083;stroke-linejoin:bevel;paint-order:fill markers stroke"
     id="path765-3"
     cx="77503680"
     cy="18024518"
     r="734049.44" />
</svg>
