<?xml version="1.0" encoding="UTF-8" standalone="no"?>
<!-- Created with Inkscape (http://www.inkscape.org/) -->

<svg
   width="297mm"
   height="210mm"
   viewBox="0 0 297 210"
   version="1.1"
   id="svg5"
   sodipodi:docname="case_logo.svg"
   inkscape:version="1.2.1 (9c6d41e410, 2022-07-14)"
   xmlns:inkscape="http://www.inkscape.org/namespaces/inkscape"
   xmlns:sodipodi="http://sodipodi.sourceforge.net/DTD/sodipodi-0.dtd"
   xmlns="http://www.w3.org/2000/svg"
   xmlns:svg="http://www.w3.org/2000/svg">
  <sodipodi:namedview
     id="namedview7"
     pagecolor="#ffffff"
     bordercolor="#666666"
     borderopacity="1.0"
     inkscape:showpageshadow="2"
     inkscape:pageopacity="0.0"
     inkscape:pagecheckerboard="0"
     inkscape:deskcolor="#d1d1d1"
     inkscape:document-units="mm"
     showgrid="false"
     inkscape:zoom="0.854877"
     inkscape:cx="542.18326"
     inkscape:cy="381.34141"
     inkscape:window-width="1920"
     inkscape:window-height="1011"
     inkscape:window-x="0"
     inkscape:window-y="32"
     inkscape:window-maximized="1"
     inkscape:current-layer="g448"
     showguides="true">
    <sodipodi:guide
       position="84.201043,121.9013"
       orientation="1,0"
       id="guide555"
       inkscape:locked="false" />
    <sodipodi:guide
       position="40.339046,132.36008"
       orientation="1,0"
       id="guide557"
       inkscape:locked="false" />
    <sodipodi:guide
       position="84.201052,61.569896"
       orientation="0,-1"
       id="guide613"
       inkscape:locked="false" />
    <sodipodi:guide
       position="84.201045,105.43088"
       orientation="0,-1"
       id="guide615"
       inkscape:locked="false" />
    <sodipodi:guide
       position="250.73397,130.99318"
       orientation="1,0"
       id="guide617"
       inkscape:locked="false" />
    <sodipodi:guide
       position="94.917105,129.57899"
       orientation="1,0"
       id="guide1173"
       inkscape:locked="false" />
  </sodipodi:namedview>
  <defs
     id="defs2" />
  <g
     inkscape:label="Layer 1"
     inkscape:groupmode="layer"
     id="layer1">
    <text
       xml:space="preserve"
       style="font-style:normal;font-variant:normal;font-weight:900;font-stretch:expanded;font-size:35.8913px;line-height:1.25;font-family:Iosevka;-inkscape-font-specification:'Iosevka Heavy Expanded';stroke-width:0.4206;letter-spacing:0px"
       x="37.862545"
       y="88.098694"
       id="text236"><tspan
         sodipodi:role="line"
         id="tspan234"
         style="font-style:normal;font-variant:normal;font-weight:900;font-stretch:expanded;font-family:Iosevka;-inkscape-font-specification:'Iosevka Heavy Expanded';stroke-width:0.4206"
         x="37.862545"
         y="88.098694">CyberBadge</tspan></text>
    <g
       inkscape:label="QR Code: cyberbadge.net"
       transform="matrix(0.264583,0,0,0.264583,97.999156,109.55173)"
       id="g450">
      <g
         style="fill:#000000;stroke:none"
         id="g448">
        <path
           id="path446"
           d="m 411.48833,-18.831934 v 7.894183 7.8941805 7.894181 7.8941835 7.894183 7.894184 7.894185 h 7.89418 7.89419 7.89417 7.89419 7.89417 7.8942 7.89417 v -7.894185 -7.894184 -7.894183 -7.8941835 -7.894181 -7.8941805 -7.894183 h -7.89417 -7.8942 -7.89417 -7.89419 -7.89417 -7.89419 z m 63.15347,0 v 7.894183 h 7.89416 v 7.8941805 7.894181 h -7.89416 v 7.8941835 7.894183 7.894184 7.894185 7.894184 h -7.8942 -7.89417 v 7.894183 h 7.89417 v 7.894184 h -7.89417 v 7.890329 h 7.89417 7.8942 v 7.894183 h 7.89416 v 7.894182 h 7.8942 v -7.894182 h 7.89417 v -7.894183 h -7.89417 -7.8942 v -7.890329 h -7.89416 v -7.894184 h 7.89416 v 7.894184 h 7.8942 v -7.894184 h 7.89417 v 7.894184 h 7.8942 v -7.894184 h 7.89417 7.89419 v 7.894184 h 7.89417 v -7.894184 h 7.8942 v 7.894184 7.890329 7.894183 h 7.89417 v -7.894183 -7.890329 -7.894184 h 7.89419 V 44.32153 h -7.89419 -7.89417 -7.8942 -7.89417 -7.89419 -7.89417 v -7.894184 h -7.8942 v -7.894185 -7.894184 -7.894183 h 7.8942 v -7.8941835 -7.894181 -7.8941805 h 7.89417 v -7.894183 h -7.89417 -7.8942 v 7.894183 h -7.89417 v -7.894183 h -7.8942 z m 31.57673,31.576728 v 7.894183 7.894184 7.894185 h 7.89417 v -7.894185 -7.894184 -7.894183 z m -7.8942,63.149615 v 7.894182 h 7.8942 7.89417 7.89419 v -7.894182 -7.894183 h -7.89419 v 7.894183 h -7.89417 z m 23.68256,7.894182 v 7.894183 h -7.89419 v 7.894183 h -7.89417 -7.8942 v 7.894173 h -7.89417 -7.8942 -7.89416 v 7.89417 h 7.89416 v 7.89417 h 7.8942 v -7.89417 h 7.89417 7.8942 v -7.89417 h 7.89417 v 7.89417 h 7.89419 v -7.89417 -7.894173 h 7.89417 v -7.894183 -7.894183 z m 7.89417,15.788366 v 7.894173 h 7.8942 v -7.894173 z m 7.8942,0 h 7.89417 7.89419 7.89418 7.89419 v -7.894183 -7.894183 h 7.89417 v -7.894182 -7.894183 h -7.89417 v -7.890329 h -7.89419 v 7.890329 7.894183 7.894182 h -7.89418 v 7.894183 h -7.89419 v -7.894183 h -7.89417 v 7.894183 z m 31.57673,0 v 7.894173 h 7.89417 v -7.894173 z m -47.3651,15.788343 v 7.89417 h 7.89417 v -7.89417 z m 0,7.89417 h -7.89419 v 7.89417 h 7.89419 z m -7.89419,7.89417 h -7.89417 -7.8942 v -7.89417 h -7.89417 v 7.89417 h -7.8942 v 7.89419 h 7.8942 7.89417 v 7.89418 h 7.8942 v -7.89418 h 7.89417 z m 0,7.89419 v 7.89418 h 7.89419 v -7.89418 z m -31.57674,0 h -7.89416 v 7.89418 h 7.89416 z m 15.78837,-55.259239 h -7.89417 v 7.894183 h 7.89417 z m -7.89417,7.894183 h -7.8942 v -7.894183 h -7.89416 v 7.894183 7.894183 h 7.89416 7.8942 z M 474.6418,83.788591 v -7.894182 h -7.8942 -7.89417 v -7.894183 h -7.8942 v -7.890329 h -7.89417 v -7.894184 h -7.89419 -7.89417 -7.89419 v 7.894184 h 7.89419 7.89417 v 7.890329 h -7.89417 -7.89419 v 7.894183 h 7.89419 7.89417 7.89419 7.89417 v 7.894182 h 7.8942 7.89417 z M 419.38251,68.000226 v -7.890329 h -7.89418 v 7.890329 z m 0,-15.784513 V 44.32153 h -7.89418 v 7.894183 z m 23.68255,0 h 7.89417 V 44.32153 h -7.89417 z m 7.89417,0 v 7.894184 h 7.8942 v -7.894184 z m 71.04766,-71.047647 v 7.894183 7.8941805 7.894181 7.8941835 7.894183 7.894184 7.894185 h 7.89417 7.8942 7.89417 7.89419 7.89418 7.89419 7.89417 v -7.894185 -7.894184 -7.894183 -7.8941835 -7.894181 -7.8941805 -7.894183 h -7.89417 -7.89419 -7.89418 -7.89419 -7.89417 -7.8942 z m -102.62438,7.894183 h 7.89419 7.89417 7.89419 7.89417 7.8942 v 7.8941805 7.894181 7.8941835 7.894183 7.894184 h -7.8942 -7.89417 -7.89419 -7.89417 -7.89419 v -7.894184 -7.894183 -7.8941835 -7.894181 z m 110.51855,0 h 7.8942 7.89417 7.89419 7.89418 7.89419 v 7.8941805 7.894181 7.8941835 7.894183 7.894184 h -7.89419 -7.89418 -7.89419 -7.89417 -7.8942 V 20.638977 12.744794 4.8506105 -3.0435705 Z M 427.2767,-3.0435705 v 7.894181 7.8941835 7.894183 h 7.89417 7.89419 7.89417 v -7.894183 -7.8941835 -7.894181 h -7.89417 -7.89419 z m 110.51856,0 v 7.894181 7.8941835 7.894183 h 7.89417 7.89419 7.89418 v -7.894183 -7.8941835 -7.894181 h -7.89418 -7.89419 z m -55.2593,23.6825475 h 7.8942 v 7.894184 7.894185 h -7.8942 v -7.894185 z m 86.83603,23.682553 v 7.894183 h 7.89417 V 44.32153 Z M 411.48833,91.682774 v 7.894183 7.894173 7.89417 7.89417 7.89417 7.89419 7.89418 h 7.89418 7.89419 7.89417 7.89419 7.89417 7.8942 7.89417 v -7.89418 -7.89419 -7.89417 -7.89417 -7.89417 -7.894173 -7.894183 h -7.89417 -7.8942 -7.89417 -7.89419 -7.89417 -7.89419 z m 7.89418,7.894183 h 7.89419 7.89417 7.89419 7.89417 7.8942 v 7.894173 7.89417 7.89417 7.89417 7.89419 h -7.8942 -7.89417 -7.89419 -7.89417 -7.89419 v -7.89419 -7.89417 -7.89417 -7.89417 z m 7.89419,7.894173 v 7.89417 7.89417 7.89417 h 7.89417 7.89419 7.89417 v -7.89417 -7.89417 -7.89417 h -7.89417 -7.89419 z m 110.51856,7.89417 v 7.89417 7.89417 h 7.89417 v -7.89417 h 7.89419 7.89418 7.89419 7.89417 v -7.89417 h -7.89417 -7.89419 -7.89418 -7.89419 z m 0,15.78834 h -7.8942 v 7.89419 h 7.8942 z m 7.89417,7.89419 v 7.89418 h 7.89419 v -7.89418 z m 23.68256,0 v 7.89418 h 7.89417 v -7.89418 z"
           style="stroke-width:1.97354" />
        <rect
           style="fill:none;fill-opacity:0.611482;stroke:#000000;stroke-width:6.94288;stroke-linejoin:miter;stroke-dasharray:none;stroke-opacity:1;paint-order:fill markers stroke"
           id="rect611"
           width="583.86176"
           height="158.83113"
           x="-214.4568"
           y="-15.360495" />
      </g>
    </g>
  </g>
</svg>
