<?xml version="1.0" standalone="no"?>
 <!DOCTYPE svg PUBLIC "-//W3C//DTD SVG 1.1//EN" 
 "http://www.w3.org/Graphics/SVG/1.1/DTD/svg11.dtd"> 
<svg
  xmlns:svg="http://www.w3.org/2000/svg"
  xmlns="http://www.w3.org/2000/svg"
  xmlns:xlink="http://www.w3.org/1999/xlink"
  version="1.1"
  width="108.3818mm" height="40.1320mm" viewBox="0.0000 0.0000 108.3818 40.1320">
<title>SVG Image created as ledboad-brd.svg date 2024/10/08 02:12:11 </title>
  <desc>Image generated by PCBNEW </desc>
<g style="fill:#000000; fill-opacity:1.0000;stroke:#000000; stroke-opacity:1.0000;
stroke-linecap:round; stroke-linejoin:round;"
 transform="translate(0 0) scale(1 1)">
</g>
<g style="fill:none; 
stroke:#D0D2CD; stroke-width:0.1000; stroke-opacity:1; 
stroke-linecap:round; stroke-linejoin:round;">
<path d="M78.3345 37.7482
L79.3345 36.7482
" />
<path d="M79.3345 36.7482
L100.5845 36.7482
" />
<path d="M65.3345 37.7482
L78.3345 37.7482
" />
<path d="M11.0845 4.4982
L11.0845 33.2482
" />
<path d="M101.5845 37.7482
L100.5845 36.7482
" />
<path d="M107.0845 34.2482
L107.0845 4.4982
" />
<path d="M39.0845 38.7482
L40.5845 37.2482
" />
<path d="M107.0845 4.4982
L11.0845 4.4982
" />
<path d="M48.5845 38.7482
L64.3345 38.7482
" />
<path d="M40.5845 37.2482
L47.0845 37.2482
" />
<path d="M17.0845 38.7482
L11.0845 33.2482
" />
<path d="M17.0845 38.7482
L39.0845 38.7482
" />
<path d="M103.5845 37.7482
L107.0845 34.2482
" />
<path d="M64.3345 38.7482
L65.3345 37.7482
" />
<path d="M101.5845 37.7482
L103.5845 37.7482
" />
<path d="M47.0845 37.2482
L48.5845 38.7482
" />
</g> 
</svg>
