%TF.GenerationSoftware,KiCad,Pcbnew,7.0.6*%
%TF.CreationDate,2023-07-18T02:13:15+02:00*%
%TF.ProjectId,ledboad,6c656462-6f61-4642-9e6b-696361645f70,rev?*%
%TF.SameCoordinates,Original*%
%TF.FileFunction,Legend,Bot*%
%TF.FilePolarity,Positive*%
%FSLAX46Y46*%
G04 Gerber Fmt 4.6, Leading zero omitted, Abs format (unit mm)*
G04 Created by KiCad (PCBNEW 7.0.6) date 2023-07-18 02:13:15*
%MOMM*%
%LPD*%
G01*
G04 APERTURE LIST*
G04 Aperture macros list*
%AMRoundRect*
0 Rectangle with rounded corners*
0 $1 Rounding radius*
0 $2 $3 $4 $5 $6 $7 $8 $9 X,Y pos of 4 corners*
0 Add a 4 corners polygon primitive as box body*
4,1,4,$2,$3,$4,$5,$6,$7,$8,$9,$2,$3,0*
0 Add four circle primitives for the rounded corners*
1,1,$1+$1,$2,$3*
1,1,$1+$1,$4,$5*
1,1,$1+$1,$6,$7*
1,1,$1+$1,$8,$9*
0 Add four rect primitives between the rounded corners*
20,1,$1+$1,$2,$3,$4,$5,0*
20,1,$1+$1,$4,$5,$6,$7,0*
20,1,$1+$1,$6,$7,$8,$9,0*
20,1,$1+$1,$8,$9,$2,$3,0*%
G04 Aperture macros list end*
%ADD10C,0.150000*%
%ADD11C,0.120000*%
%ADD12C,1.000000*%
%ADD13R,2.180000X1.600000*%
%ADD14RoundRect,0.023000X-0.092000X-0.227000X0.092000X-0.227000X0.092000X0.227000X-0.092000X0.227000X0*%
%ADD15RoundRect,0.022500X-0.202500X-0.227500X0.202500X-0.227500X0.202500X0.227500X-0.202500X0.227500X0*%
G04 APERTURE END LIST*
D10*
X123008458Y-42668771D02*
X123008458Y-42068771D01*
X123008458Y-42068771D02*
X122865601Y-42068771D01*
X122865601Y-42068771D02*
X122779887Y-42097342D01*
X122779887Y-42097342D02*
X122722744Y-42154485D01*
X122722744Y-42154485D02*
X122694173Y-42211628D01*
X122694173Y-42211628D02*
X122665601Y-42325914D01*
X122665601Y-42325914D02*
X122665601Y-42411628D01*
X122665601Y-42411628D02*
X122694173Y-42525914D01*
X122694173Y-42525914D02*
X122722744Y-42583057D01*
X122722744Y-42583057D02*
X122779887Y-42640200D01*
X122779887Y-42640200D02*
X122865601Y-42668771D01*
X122865601Y-42668771D02*
X123008458Y-42668771D01*
X122437030Y-42497342D02*
X122151316Y-42497342D01*
X122494173Y-42668771D02*
X122294173Y-42068771D01*
X122294173Y-42068771D02*
X122094173Y-42668771D01*
X121979887Y-42068771D02*
X121637030Y-42068771D01*
X121808458Y-42668771D02*
X121808458Y-42068771D01*
X121151315Y-42068771D02*
X121437029Y-42068771D01*
X121437029Y-42068771D02*
X121465601Y-42354485D01*
X121465601Y-42354485D02*
X121437029Y-42325914D01*
X121437029Y-42325914D02*
X121379887Y-42297342D01*
X121379887Y-42297342D02*
X121237029Y-42297342D01*
X121237029Y-42297342D02*
X121179887Y-42325914D01*
X121179887Y-42325914D02*
X121151315Y-42354485D01*
X121151315Y-42354485D02*
X121122744Y-42411628D01*
X121122744Y-42411628D02*
X121122744Y-42554485D01*
X121122744Y-42554485D02*
X121151315Y-42611628D01*
X121151315Y-42611628D02*
X121179887Y-42640200D01*
X121179887Y-42640200D02*
X121237029Y-42668771D01*
X121237029Y-42668771D02*
X121379887Y-42668771D01*
X121379887Y-42668771D02*
X121437029Y-42640200D01*
X121437029Y-42640200D02*
X121465601Y-42611628D01*
X103737030Y-31240200D02*
X103651316Y-31268771D01*
X103651316Y-31268771D02*
X103508458Y-31268771D01*
X103508458Y-31268771D02*
X103451316Y-31240200D01*
X103451316Y-31240200D02*
X103422744Y-31211628D01*
X103422744Y-31211628D02*
X103394173Y-31154485D01*
X103394173Y-31154485D02*
X103394173Y-31097342D01*
X103394173Y-31097342D02*
X103422744Y-31040200D01*
X103422744Y-31040200D02*
X103451316Y-31011628D01*
X103451316Y-31011628D02*
X103508458Y-30983057D01*
X103508458Y-30983057D02*
X103622744Y-30954485D01*
X103622744Y-30954485D02*
X103679887Y-30925914D01*
X103679887Y-30925914D02*
X103708458Y-30897342D01*
X103708458Y-30897342D02*
X103737030Y-30840200D01*
X103737030Y-30840200D02*
X103737030Y-30783057D01*
X103737030Y-30783057D02*
X103708458Y-30725914D01*
X103708458Y-30725914D02*
X103679887Y-30697342D01*
X103679887Y-30697342D02*
X103622744Y-30668771D01*
X103622744Y-30668771D02*
X103479887Y-30668771D01*
X103479887Y-30668771D02*
X103394173Y-30697342D01*
X103194172Y-30668771D02*
X103051315Y-31268771D01*
X103051315Y-31268771D02*
X102937029Y-30840200D01*
X102937029Y-30840200D02*
X102822744Y-31268771D01*
X102822744Y-31268771D02*
X102679887Y-30668771D01*
X102108458Y-31211628D02*
X102137030Y-31240200D01*
X102137030Y-31240200D02*
X102222744Y-31268771D01*
X102222744Y-31268771D02*
X102279887Y-31268771D01*
X102279887Y-31268771D02*
X102365601Y-31240200D01*
X102365601Y-31240200D02*
X102422744Y-31183057D01*
X102422744Y-31183057D02*
X102451315Y-31125914D01*
X102451315Y-31125914D02*
X102479887Y-31011628D01*
X102479887Y-31011628D02*
X102479887Y-30925914D01*
X102479887Y-30925914D02*
X102451315Y-30811628D01*
X102451315Y-30811628D02*
X102422744Y-30754485D01*
X102422744Y-30754485D02*
X102365601Y-30697342D01*
X102365601Y-30697342D02*
X102279887Y-30668771D01*
X102279887Y-30668771D02*
X102222744Y-30668771D01*
X102222744Y-30668771D02*
X102137030Y-30697342D01*
X102137030Y-30697342D02*
X102108458Y-30725914D01*
X101565601Y-31268771D02*
X101851315Y-31268771D01*
X101851315Y-31268771D02*
X101851315Y-30668771D01*
X101365601Y-31268771D02*
X101365601Y-30668771D01*
X101022744Y-31268771D02*
X101279887Y-30925914D01*
X101022744Y-30668771D02*
X101365601Y-31011628D01*
X100165601Y-31468771D02*
X100165601Y-30611628D01*
X99308458Y-31240200D02*
X99222744Y-31268771D01*
X99222744Y-31268771D02*
X99079886Y-31268771D01*
X99079886Y-31268771D02*
X99022744Y-31240200D01*
X99022744Y-31240200D02*
X98994172Y-31211628D01*
X98994172Y-31211628D02*
X98965601Y-31154485D01*
X98965601Y-31154485D02*
X98965601Y-31097342D01*
X98965601Y-31097342D02*
X98994172Y-31040200D01*
X98994172Y-31040200D02*
X99022744Y-31011628D01*
X99022744Y-31011628D02*
X99079886Y-30983057D01*
X99079886Y-30983057D02*
X99194172Y-30954485D01*
X99194172Y-30954485D02*
X99251315Y-30925914D01*
X99251315Y-30925914D02*
X99279886Y-30897342D01*
X99279886Y-30897342D02*
X99308458Y-30840200D01*
X99308458Y-30840200D02*
X99308458Y-30783057D01*
X99308458Y-30783057D02*
X99279886Y-30725914D01*
X99279886Y-30725914D02*
X99251315Y-30697342D01*
X99251315Y-30697342D02*
X99194172Y-30668771D01*
X99194172Y-30668771D02*
X99051315Y-30668771D01*
X99051315Y-30668771D02*
X98965601Y-30697342D01*
X98765600Y-30668771D02*
X98622743Y-31268771D01*
X98622743Y-31268771D02*
X98508457Y-30840200D01*
X98508457Y-30840200D02*
X98394172Y-31268771D01*
X98394172Y-31268771D02*
X98251315Y-30668771D01*
X98022743Y-31268771D02*
X98022743Y-30668771D01*
X98022743Y-30668771D02*
X97879886Y-30668771D01*
X97879886Y-30668771D02*
X97794172Y-30697342D01*
X97794172Y-30697342D02*
X97737029Y-30754485D01*
X97737029Y-30754485D02*
X97708458Y-30811628D01*
X97708458Y-30811628D02*
X97679886Y-30925914D01*
X97679886Y-30925914D02*
X97679886Y-31011628D01*
X97679886Y-31011628D02*
X97708458Y-31125914D01*
X97708458Y-31125914D02*
X97737029Y-31183057D01*
X97737029Y-31183057D02*
X97794172Y-31240200D01*
X97794172Y-31240200D02*
X97879886Y-31268771D01*
X97879886Y-31268771D02*
X98022743Y-31268771D01*
X97422743Y-31268771D02*
X97422743Y-30668771D01*
X97022744Y-30668771D02*
X96908458Y-30668771D01*
X96908458Y-30668771D02*
X96851315Y-30697342D01*
X96851315Y-30697342D02*
X96794172Y-30754485D01*
X96794172Y-30754485D02*
X96765601Y-30868771D01*
X96765601Y-30868771D02*
X96765601Y-31068771D01*
X96765601Y-31068771D02*
X96794172Y-31183057D01*
X96794172Y-31183057D02*
X96851315Y-31240200D01*
X96851315Y-31240200D02*
X96908458Y-31268771D01*
X96908458Y-31268771D02*
X97022744Y-31268771D01*
X97022744Y-31268771D02*
X97079887Y-31240200D01*
X97079887Y-31240200D02*
X97137029Y-31183057D01*
X97137029Y-31183057D02*
X97165601Y-31068771D01*
X97165601Y-31068771D02*
X97165601Y-30868771D01*
X97165601Y-30868771D02*
X97137029Y-30754485D01*
X97137029Y-30754485D02*
X97079887Y-30697342D01*
X97079887Y-30697342D02*
X97022744Y-30668771D01*
X95908458Y-31468771D02*
X95908458Y-30611628D01*
X94708458Y-30697342D02*
X94765601Y-30668771D01*
X94765601Y-30668771D02*
X94851315Y-30668771D01*
X94851315Y-30668771D02*
X94937029Y-30697342D01*
X94937029Y-30697342D02*
X94994172Y-30754485D01*
X94994172Y-30754485D02*
X95022743Y-30811628D01*
X95022743Y-30811628D02*
X95051315Y-30925914D01*
X95051315Y-30925914D02*
X95051315Y-31011628D01*
X95051315Y-31011628D02*
X95022743Y-31125914D01*
X95022743Y-31125914D02*
X94994172Y-31183057D01*
X94994172Y-31183057D02*
X94937029Y-31240200D01*
X94937029Y-31240200D02*
X94851315Y-31268771D01*
X94851315Y-31268771D02*
X94794172Y-31268771D01*
X94794172Y-31268771D02*
X94708458Y-31240200D01*
X94708458Y-31240200D02*
X94679886Y-31211628D01*
X94679886Y-31211628D02*
X94679886Y-31011628D01*
X94679886Y-31011628D02*
X94794172Y-31011628D01*
X94422743Y-31268771D02*
X94422743Y-30668771D01*
X94422743Y-30668771D02*
X94079886Y-31268771D01*
X94079886Y-31268771D02*
X94079886Y-30668771D01*
X93794172Y-31268771D02*
X93794172Y-30668771D01*
X93794172Y-30668771D02*
X93651315Y-30668771D01*
X93651315Y-30668771D02*
X93565601Y-30697342D01*
X93565601Y-30697342D02*
X93508458Y-30754485D01*
X93508458Y-30754485D02*
X93479887Y-30811628D01*
X93479887Y-30811628D02*
X93451315Y-30925914D01*
X93451315Y-30925914D02*
X93451315Y-31011628D01*
X93451315Y-31011628D02*
X93479887Y-31125914D01*
X93479887Y-31125914D02*
X93508458Y-31183057D01*
X93508458Y-31183057D02*
X93565601Y-31240200D01*
X93565601Y-31240200D02*
X93651315Y-31268771D01*
X93651315Y-31268771D02*
X93794172Y-31268771D01*
X92594172Y-31468771D02*
X92594172Y-30611628D01*
X91708457Y-30868771D02*
X91708457Y-31268771D01*
X91708457Y-30925914D02*
X91679886Y-30897342D01*
X91679886Y-30897342D02*
X91622743Y-30868771D01*
X91622743Y-30868771D02*
X91537029Y-30868771D01*
X91537029Y-30868771D02*
X91479886Y-30897342D01*
X91479886Y-30897342D02*
X91451315Y-30954485D01*
X91451315Y-30954485D02*
X91451315Y-31268771D01*
X90822743Y-31268771D02*
X91022743Y-30983057D01*
X91165600Y-31268771D02*
X91165600Y-30668771D01*
X91165600Y-30668771D02*
X90937029Y-30668771D01*
X90937029Y-30668771D02*
X90879886Y-30697342D01*
X90879886Y-30697342D02*
X90851315Y-30725914D01*
X90851315Y-30725914D02*
X90822743Y-30783057D01*
X90822743Y-30783057D02*
X90822743Y-30868771D01*
X90822743Y-30868771D02*
X90851315Y-30925914D01*
X90851315Y-30925914D02*
X90879886Y-30954485D01*
X90879886Y-30954485D02*
X90937029Y-30983057D01*
X90937029Y-30983057D02*
X91165600Y-30983057D01*
X90594172Y-31240200D02*
X90508458Y-31268771D01*
X90508458Y-31268771D02*
X90365600Y-31268771D01*
X90365600Y-31268771D02*
X90308458Y-31240200D01*
X90308458Y-31240200D02*
X90279886Y-31211628D01*
X90279886Y-31211628D02*
X90251315Y-31154485D01*
X90251315Y-31154485D02*
X90251315Y-31097342D01*
X90251315Y-31097342D02*
X90279886Y-31040200D01*
X90279886Y-31040200D02*
X90308458Y-31011628D01*
X90308458Y-31011628D02*
X90365600Y-30983057D01*
X90365600Y-30983057D02*
X90479886Y-30954485D01*
X90479886Y-30954485D02*
X90537029Y-30925914D01*
X90537029Y-30925914D02*
X90565600Y-30897342D01*
X90565600Y-30897342D02*
X90594172Y-30840200D01*
X90594172Y-30840200D02*
X90594172Y-30783057D01*
X90594172Y-30783057D02*
X90565600Y-30725914D01*
X90565600Y-30725914D02*
X90537029Y-30697342D01*
X90537029Y-30697342D02*
X90479886Y-30668771D01*
X90479886Y-30668771D02*
X90337029Y-30668771D01*
X90337029Y-30668771D02*
X90251315Y-30697342D01*
X90079886Y-30668771D02*
X89737029Y-30668771D01*
X89908457Y-31268771D02*
X89908457Y-30668771D01*
X88937028Y-31468771D02*
X88937028Y-30611628D01*
X88108456Y-30668771D02*
X87737028Y-30668771D01*
X87737028Y-30668771D02*
X87937028Y-30897342D01*
X87937028Y-30897342D02*
X87851313Y-30897342D01*
X87851313Y-30897342D02*
X87794171Y-30925914D01*
X87794171Y-30925914D02*
X87765599Y-30954485D01*
X87765599Y-30954485D02*
X87737028Y-31011628D01*
X87737028Y-31011628D02*
X87737028Y-31154485D01*
X87737028Y-31154485D02*
X87765599Y-31211628D01*
X87765599Y-31211628D02*
X87794171Y-31240200D01*
X87794171Y-31240200D02*
X87851313Y-31268771D01*
X87851313Y-31268771D02*
X88022742Y-31268771D01*
X88022742Y-31268771D02*
X88079885Y-31240200D01*
X88079885Y-31240200D02*
X88108456Y-31211628D01*
X87537027Y-30868771D02*
X87394170Y-31268771D01*
X87394170Y-31268771D02*
X87251313Y-30868771D01*
X87079884Y-30668771D02*
X86708456Y-30668771D01*
X86708456Y-30668771D02*
X86908456Y-30897342D01*
X86908456Y-30897342D02*
X86822741Y-30897342D01*
X86822741Y-30897342D02*
X86765599Y-30925914D01*
X86765599Y-30925914D02*
X86737027Y-30954485D01*
X86737027Y-30954485D02*
X86708456Y-31011628D01*
X86708456Y-31011628D02*
X86708456Y-31154485D01*
X86708456Y-31154485D02*
X86737027Y-31211628D01*
X86737027Y-31211628D02*
X86765599Y-31240200D01*
X86765599Y-31240200D02*
X86822741Y-31268771D01*
X86822741Y-31268771D02*
X86994170Y-31268771D01*
X86994170Y-31268771D02*
X87051313Y-31240200D01*
X87051313Y-31240200D02*
X87079884Y-31211628D01*
X85851312Y-31468771D02*
X85851312Y-30611628D01*
X85051312Y-30668771D02*
X84851312Y-31268771D01*
X84851312Y-31268771D02*
X84651312Y-30668771D01*
X84451311Y-31268771D02*
X84451311Y-30668771D01*
X84451311Y-30668771D02*
X84308454Y-30668771D01*
X84308454Y-30668771D02*
X84222740Y-30697342D01*
X84222740Y-30697342D02*
X84165597Y-30754485D01*
X84165597Y-30754485D02*
X84137026Y-30811628D01*
X84137026Y-30811628D02*
X84108454Y-30925914D01*
X84108454Y-30925914D02*
X84108454Y-31011628D01*
X84108454Y-31011628D02*
X84137026Y-31125914D01*
X84137026Y-31125914D02*
X84165597Y-31183057D01*
X84165597Y-31183057D02*
X84222740Y-31240200D01*
X84222740Y-31240200D02*
X84308454Y-31268771D01*
X84308454Y-31268771D02*
X84451311Y-31268771D01*
X83851311Y-31268771D02*
X83851311Y-30668771D01*
X83851311Y-30668771D02*
X83708454Y-30668771D01*
X83708454Y-30668771D02*
X83622740Y-30697342D01*
X83622740Y-30697342D02*
X83565597Y-30754485D01*
X83565597Y-30754485D02*
X83537026Y-30811628D01*
X83537026Y-30811628D02*
X83508454Y-30925914D01*
X83508454Y-30925914D02*
X83508454Y-31011628D01*
X83508454Y-31011628D02*
X83537026Y-31125914D01*
X83537026Y-31125914D02*
X83565597Y-31183057D01*
X83565597Y-31183057D02*
X83622740Y-31240200D01*
X83622740Y-31240200D02*
X83708454Y-31268771D01*
X83708454Y-31268771D02*
X83851311Y-31268771D01*
X82651311Y-31468771D02*
X82651311Y-30611628D01*
X81765596Y-31268771D02*
X81765596Y-30668771D01*
X81765596Y-30668771D02*
X81622739Y-30668771D01*
X81622739Y-30668771D02*
X81537025Y-30697342D01*
X81537025Y-30697342D02*
X81479882Y-30754485D01*
X81479882Y-30754485D02*
X81451311Y-30811628D01*
X81451311Y-30811628D02*
X81422739Y-30925914D01*
X81422739Y-30925914D02*
X81422739Y-31011628D01*
X81422739Y-31011628D02*
X81451311Y-31125914D01*
X81451311Y-31125914D02*
X81479882Y-31183057D01*
X81479882Y-31183057D02*
X81537025Y-31240200D01*
X81537025Y-31240200D02*
X81622739Y-31268771D01*
X81622739Y-31268771D02*
X81765596Y-31268771D01*
X81194168Y-31097342D02*
X80908454Y-31097342D01*
X81251311Y-31268771D02*
X81051311Y-30668771D01*
X81051311Y-30668771D02*
X80851311Y-31268771D01*
X80737025Y-30668771D02*
X80394168Y-30668771D01*
X80565596Y-31268771D02*
X80565596Y-30668771D01*
X80251310Y-30668771D02*
X79879882Y-30668771D01*
X79879882Y-30668771D02*
X80079882Y-30897342D01*
X80079882Y-30897342D02*
X79994167Y-30897342D01*
X79994167Y-30897342D02*
X79937025Y-30925914D01*
X79937025Y-30925914D02*
X79908453Y-30954485D01*
X79908453Y-30954485D02*
X79879882Y-31011628D01*
X79879882Y-31011628D02*
X79879882Y-31154485D01*
X79879882Y-31154485D02*
X79908453Y-31211628D01*
X79908453Y-31211628D02*
X79937025Y-31240200D01*
X79937025Y-31240200D02*
X79994167Y-31268771D01*
X79994167Y-31268771D02*
X80165596Y-31268771D01*
X80165596Y-31268771D02*
X80222739Y-31240200D01*
X80222739Y-31240200D02*
X80251310Y-31211628D01*
X94844173Y-37818771D02*
X94501316Y-37818771D01*
X94672744Y-38418771D02*
X94672744Y-37818771D01*
X94358458Y-37818771D02*
X93958458Y-38418771D01*
X93958458Y-37818771D02*
X94358458Y-38418771D01*
X93129886Y-38618771D02*
X93129886Y-37761628D01*
X91901314Y-38418771D02*
X92101314Y-38133057D01*
X92244171Y-38418771D02*
X92244171Y-37818771D01*
X92244171Y-37818771D02*
X92015600Y-37818771D01*
X92015600Y-37818771D02*
X91958457Y-37847342D01*
X91958457Y-37847342D02*
X91929886Y-37875914D01*
X91929886Y-37875914D02*
X91901314Y-37933057D01*
X91901314Y-37933057D02*
X91901314Y-38018771D01*
X91901314Y-38018771D02*
X91929886Y-38075914D01*
X91929886Y-38075914D02*
X91958457Y-38104485D01*
X91958457Y-38104485D02*
X92015600Y-38133057D01*
X92015600Y-38133057D02*
X92244171Y-38133057D01*
X91701314Y-37818771D02*
X91301314Y-38418771D01*
X91301314Y-37818771D02*
X91701314Y-38418771D01*
X133472744Y-46668771D02*
X133758458Y-46668771D01*
X133758458Y-46668771D02*
X133758458Y-46068771D01*
X133301316Y-46497342D02*
X133015602Y-46497342D01*
X133358459Y-46668771D02*
X133158459Y-46068771D01*
X133158459Y-46068771D02*
X132958459Y-46668771D01*
X132844173Y-46068771D02*
X132501316Y-46068771D01*
X132672744Y-46668771D02*
X132672744Y-46068771D01*
X131701315Y-46868771D02*
X131701315Y-46011628D01*
X130844172Y-46640200D02*
X130758458Y-46668771D01*
X130758458Y-46668771D02*
X130615600Y-46668771D01*
X130615600Y-46668771D02*
X130558458Y-46640200D01*
X130558458Y-46640200D02*
X130529886Y-46611628D01*
X130529886Y-46611628D02*
X130501315Y-46554485D01*
X130501315Y-46554485D02*
X130501315Y-46497342D01*
X130501315Y-46497342D02*
X130529886Y-46440200D01*
X130529886Y-46440200D02*
X130558458Y-46411628D01*
X130558458Y-46411628D02*
X130615600Y-46383057D01*
X130615600Y-46383057D02*
X130729886Y-46354485D01*
X130729886Y-46354485D02*
X130787029Y-46325914D01*
X130787029Y-46325914D02*
X130815600Y-46297342D01*
X130815600Y-46297342D02*
X130844172Y-46240200D01*
X130844172Y-46240200D02*
X130844172Y-46183057D01*
X130844172Y-46183057D02*
X130815600Y-46125914D01*
X130815600Y-46125914D02*
X130787029Y-46097342D01*
X130787029Y-46097342D02*
X130729886Y-46068771D01*
X130729886Y-46068771D02*
X130587029Y-46068771D01*
X130587029Y-46068771D02*
X130501315Y-46097342D01*
X129901314Y-46611628D02*
X129929886Y-46640200D01*
X129929886Y-46640200D02*
X130015600Y-46668771D01*
X130015600Y-46668771D02*
X130072743Y-46668771D01*
X130072743Y-46668771D02*
X130158457Y-46640200D01*
X130158457Y-46640200D02*
X130215600Y-46583057D01*
X130215600Y-46583057D02*
X130244171Y-46525914D01*
X130244171Y-46525914D02*
X130272743Y-46411628D01*
X130272743Y-46411628D02*
X130272743Y-46325914D01*
X130272743Y-46325914D02*
X130244171Y-46211628D01*
X130244171Y-46211628D02*
X130215600Y-46154485D01*
X130215600Y-46154485D02*
X130158457Y-46097342D01*
X130158457Y-46097342D02*
X130072743Y-46068771D01*
X130072743Y-46068771D02*
X130015600Y-46068771D01*
X130015600Y-46068771D02*
X129929886Y-46097342D01*
X129929886Y-46097342D02*
X129901314Y-46125914D01*
X129358457Y-46668771D02*
X129644171Y-46668771D01*
X129644171Y-46668771D02*
X129644171Y-46068771D01*
X129158457Y-46668771D02*
X129158457Y-46068771D01*
X128815600Y-46668771D02*
X129072743Y-46325914D01*
X128815600Y-46068771D02*
X129158457Y-46411628D01*
X129894173Y-37568771D02*
X129779887Y-37568771D01*
X129779887Y-37568771D02*
X129722744Y-37597342D01*
X129722744Y-37597342D02*
X129665601Y-37654485D01*
X129665601Y-37654485D02*
X129637030Y-37768771D01*
X129637030Y-37768771D02*
X129637030Y-37968771D01*
X129637030Y-37968771D02*
X129665601Y-38083057D01*
X129665601Y-38083057D02*
X129722744Y-38140200D01*
X129722744Y-38140200D02*
X129779887Y-38168771D01*
X129779887Y-38168771D02*
X129894173Y-38168771D01*
X129894173Y-38168771D02*
X129951316Y-38140200D01*
X129951316Y-38140200D02*
X130008458Y-38083057D01*
X130008458Y-38083057D02*
X130037030Y-37968771D01*
X130037030Y-37968771D02*
X130037030Y-37768771D01*
X130037030Y-37768771D02*
X130008458Y-37654485D01*
X130008458Y-37654485D02*
X129951316Y-37597342D01*
X129951316Y-37597342D02*
X129894173Y-37568771D01*
X129379887Y-37854485D02*
X129179887Y-37854485D01*
X129094173Y-38168771D02*
X129379887Y-38168771D01*
X129379887Y-38168771D02*
X129379887Y-37568771D01*
X129379887Y-37568771D02*
X129094173Y-37568771D01*
X96787030Y-32890200D02*
X96701316Y-32918771D01*
X96701316Y-32918771D02*
X96558458Y-32918771D01*
X96558458Y-32918771D02*
X96501316Y-32890200D01*
X96501316Y-32890200D02*
X96472744Y-32861628D01*
X96472744Y-32861628D02*
X96444173Y-32804485D01*
X96444173Y-32804485D02*
X96444173Y-32747342D01*
X96444173Y-32747342D02*
X96472744Y-32690200D01*
X96472744Y-32690200D02*
X96501316Y-32661628D01*
X96501316Y-32661628D02*
X96558458Y-32633057D01*
X96558458Y-32633057D02*
X96672744Y-32604485D01*
X96672744Y-32604485D02*
X96729887Y-32575914D01*
X96729887Y-32575914D02*
X96758458Y-32547342D01*
X96758458Y-32547342D02*
X96787030Y-32490200D01*
X96787030Y-32490200D02*
X96787030Y-32433057D01*
X96787030Y-32433057D02*
X96758458Y-32375914D01*
X96758458Y-32375914D02*
X96729887Y-32347342D01*
X96729887Y-32347342D02*
X96672744Y-32318771D01*
X96672744Y-32318771D02*
X96529887Y-32318771D01*
X96529887Y-32318771D02*
X96444173Y-32347342D01*
X96187029Y-32918771D02*
X96187029Y-32318771D01*
X96187029Y-32318771D02*
X95958458Y-32318771D01*
X95958458Y-32318771D02*
X95901315Y-32347342D01*
X95901315Y-32347342D02*
X95872744Y-32375914D01*
X95872744Y-32375914D02*
X95844172Y-32433057D01*
X95844172Y-32433057D02*
X95844172Y-32518771D01*
X95844172Y-32518771D02*
X95872744Y-32575914D01*
X95872744Y-32575914D02*
X95901315Y-32604485D01*
X95901315Y-32604485D02*
X95958458Y-32633057D01*
X95958458Y-32633057D02*
X96187029Y-32633057D01*
X95587029Y-32918771D02*
X95587029Y-32318771D01*
X95329887Y-32375914D02*
X95301315Y-32347342D01*
X95301315Y-32347342D02*
X95244173Y-32318771D01*
X95244173Y-32318771D02*
X95101315Y-32318771D01*
X95101315Y-32318771D02*
X95044173Y-32347342D01*
X95044173Y-32347342D02*
X95015601Y-32375914D01*
X95015601Y-32375914D02*
X94987030Y-32433057D01*
X94987030Y-32433057D02*
X94987030Y-32490200D01*
X94987030Y-32490200D02*
X95015601Y-32575914D01*
X95015601Y-32575914D02*
X95358458Y-32918771D01*
X95358458Y-32918771D02*
X94987030Y-32918771D01*
X94872744Y-32975914D02*
X94415601Y-32975914D01*
X94272743Y-32918771D02*
X94272743Y-32318771D01*
X94272743Y-32318771D02*
X93929886Y-32918771D01*
X93929886Y-32918771D02*
X93929886Y-32318771D01*
X93672744Y-32890200D02*
X93587030Y-32918771D01*
X93587030Y-32918771D02*
X93444172Y-32918771D01*
X93444172Y-32918771D02*
X93387030Y-32890200D01*
X93387030Y-32890200D02*
X93358458Y-32861628D01*
X93358458Y-32861628D02*
X93329887Y-32804485D01*
X93329887Y-32804485D02*
X93329887Y-32747342D01*
X93329887Y-32747342D02*
X93358458Y-32690200D01*
X93358458Y-32690200D02*
X93387030Y-32661628D01*
X93387030Y-32661628D02*
X93444172Y-32633057D01*
X93444172Y-32633057D02*
X93558458Y-32604485D01*
X93558458Y-32604485D02*
X93615601Y-32575914D01*
X93615601Y-32575914D02*
X93644172Y-32547342D01*
X93644172Y-32547342D02*
X93672744Y-32490200D01*
X93672744Y-32490200D02*
X93672744Y-32433057D01*
X93672744Y-32433057D02*
X93644172Y-32375914D01*
X93644172Y-32375914D02*
X93615601Y-32347342D01*
X93615601Y-32347342D02*
X93558458Y-32318771D01*
X93558458Y-32318771D02*
X93415601Y-32318771D01*
X93415601Y-32318771D02*
X93329887Y-32347342D01*
X93101315Y-32890200D02*
X93015601Y-32918771D01*
X93015601Y-32918771D02*
X92872743Y-32918771D01*
X92872743Y-32918771D02*
X92815601Y-32890200D01*
X92815601Y-32890200D02*
X92787029Y-32861628D01*
X92787029Y-32861628D02*
X92758458Y-32804485D01*
X92758458Y-32804485D02*
X92758458Y-32747342D01*
X92758458Y-32747342D02*
X92787029Y-32690200D01*
X92787029Y-32690200D02*
X92815601Y-32661628D01*
X92815601Y-32661628D02*
X92872743Y-32633057D01*
X92872743Y-32633057D02*
X92987029Y-32604485D01*
X92987029Y-32604485D02*
X93044172Y-32575914D01*
X93044172Y-32575914D02*
X93072743Y-32547342D01*
X93072743Y-32547342D02*
X93101315Y-32490200D01*
X93101315Y-32490200D02*
X93101315Y-32433057D01*
X93101315Y-32433057D02*
X93072743Y-32375914D01*
X93072743Y-32375914D02*
X93044172Y-32347342D01*
X93044172Y-32347342D02*
X92987029Y-32318771D01*
X92987029Y-32318771D02*
X92844172Y-32318771D01*
X92844172Y-32318771D02*
X92758458Y-32347342D01*
X91901314Y-33118771D02*
X91901314Y-32261628D01*
X91044171Y-32890200D02*
X90958457Y-32918771D01*
X90958457Y-32918771D02*
X90815599Y-32918771D01*
X90815599Y-32918771D02*
X90758457Y-32890200D01*
X90758457Y-32890200D02*
X90729885Y-32861628D01*
X90729885Y-32861628D02*
X90701314Y-32804485D01*
X90701314Y-32804485D02*
X90701314Y-32747342D01*
X90701314Y-32747342D02*
X90729885Y-32690200D01*
X90729885Y-32690200D02*
X90758457Y-32661628D01*
X90758457Y-32661628D02*
X90815599Y-32633057D01*
X90815599Y-32633057D02*
X90929885Y-32604485D01*
X90929885Y-32604485D02*
X90987028Y-32575914D01*
X90987028Y-32575914D02*
X91015599Y-32547342D01*
X91015599Y-32547342D02*
X91044171Y-32490200D01*
X91044171Y-32490200D02*
X91044171Y-32433057D01*
X91044171Y-32433057D02*
X91015599Y-32375914D01*
X91015599Y-32375914D02*
X90987028Y-32347342D01*
X90987028Y-32347342D02*
X90929885Y-32318771D01*
X90929885Y-32318771D02*
X90787028Y-32318771D01*
X90787028Y-32318771D02*
X90701314Y-32347342D01*
X90101313Y-32861628D02*
X90129885Y-32890200D01*
X90129885Y-32890200D02*
X90215599Y-32918771D01*
X90215599Y-32918771D02*
X90272742Y-32918771D01*
X90272742Y-32918771D02*
X90358456Y-32890200D01*
X90358456Y-32890200D02*
X90415599Y-32833057D01*
X90415599Y-32833057D02*
X90444170Y-32775914D01*
X90444170Y-32775914D02*
X90472742Y-32661628D01*
X90472742Y-32661628D02*
X90472742Y-32575914D01*
X90472742Y-32575914D02*
X90444170Y-32461628D01*
X90444170Y-32461628D02*
X90415599Y-32404485D01*
X90415599Y-32404485D02*
X90358456Y-32347342D01*
X90358456Y-32347342D02*
X90272742Y-32318771D01*
X90272742Y-32318771D02*
X90215599Y-32318771D01*
X90215599Y-32318771D02*
X90129885Y-32347342D01*
X90129885Y-32347342D02*
X90101313Y-32375914D01*
X89558456Y-32918771D02*
X89844170Y-32918771D01*
X89844170Y-32918771D02*
X89844170Y-32318771D01*
X89358456Y-32918771D02*
X89358456Y-32318771D01*
X89015599Y-32918771D02*
X89272742Y-32575914D01*
X89015599Y-32318771D02*
X89358456Y-32661628D01*
X88158456Y-33118771D02*
X88158456Y-32261628D01*
X86958456Y-32347342D02*
X87015599Y-32318771D01*
X87015599Y-32318771D02*
X87101313Y-32318771D01*
X87101313Y-32318771D02*
X87187027Y-32347342D01*
X87187027Y-32347342D02*
X87244170Y-32404485D01*
X87244170Y-32404485D02*
X87272741Y-32461628D01*
X87272741Y-32461628D02*
X87301313Y-32575914D01*
X87301313Y-32575914D02*
X87301313Y-32661628D01*
X87301313Y-32661628D02*
X87272741Y-32775914D01*
X87272741Y-32775914D02*
X87244170Y-32833057D01*
X87244170Y-32833057D02*
X87187027Y-32890200D01*
X87187027Y-32890200D02*
X87101313Y-32918771D01*
X87101313Y-32918771D02*
X87044170Y-32918771D01*
X87044170Y-32918771D02*
X86958456Y-32890200D01*
X86958456Y-32890200D02*
X86929884Y-32861628D01*
X86929884Y-32861628D02*
X86929884Y-32661628D01*
X86929884Y-32661628D02*
X87044170Y-32661628D01*
X86672741Y-32918771D02*
X86672741Y-32318771D01*
X86672741Y-32318771D02*
X86329884Y-32918771D01*
X86329884Y-32918771D02*
X86329884Y-32318771D01*
X86044170Y-32918771D02*
X86044170Y-32318771D01*
X86044170Y-32318771D02*
X85901313Y-32318771D01*
X85901313Y-32318771D02*
X85815599Y-32347342D01*
X85815599Y-32347342D02*
X85758456Y-32404485D01*
X85758456Y-32404485D02*
X85729885Y-32461628D01*
X85729885Y-32461628D02*
X85701313Y-32575914D01*
X85701313Y-32575914D02*
X85701313Y-32661628D01*
X85701313Y-32661628D02*
X85729885Y-32775914D01*
X85729885Y-32775914D02*
X85758456Y-32833057D01*
X85758456Y-32833057D02*
X85815599Y-32890200D01*
X85815599Y-32890200D02*
X85901313Y-32918771D01*
X85901313Y-32918771D02*
X86044170Y-32918771D01*
X84844170Y-33118771D02*
X84844170Y-32261628D01*
X83987027Y-32747342D02*
X83701313Y-32747342D01*
X84044170Y-32918771D02*
X83844170Y-32318771D01*
X83844170Y-32318771D02*
X83644170Y-32918771D01*
X83444169Y-32918771D02*
X83444169Y-32318771D01*
X83444169Y-32318771D02*
X83301312Y-32318771D01*
X83301312Y-32318771D02*
X83215598Y-32347342D01*
X83215598Y-32347342D02*
X83158455Y-32404485D01*
X83158455Y-32404485D02*
X83129884Y-32461628D01*
X83129884Y-32461628D02*
X83101312Y-32575914D01*
X83101312Y-32575914D02*
X83101312Y-32661628D01*
X83101312Y-32661628D02*
X83129884Y-32775914D01*
X83129884Y-32775914D02*
X83158455Y-32833057D01*
X83158455Y-32833057D02*
X83215598Y-32890200D01*
X83215598Y-32890200D02*
X83301312Y-32918771D01*
X83301312Y-32918771D02*
X83444169Y-32918771D01*
X82501312Y-32861628D02*
X82529884Y-32890200D01*
X82529884Y-32890200D02*
X82615598Y-32918771D01*
X82615598Y-32918771D02*
X82672741Y-32918771D01*
X82672741Y-32918771D02*
X82758455Y-32890200D01*
X82758455Y-32890200D02*
X82815598Y-32833057D01*
X82815598Y-32833057D02*
X82844169Y-32775914D01*
X82844169Y-32775914D02*
X82872741Y-32661628D01*
X82872741Y-32661628D02*
X82872741Y-32575914D01*
X82872741Y-32575914D02*
X82844169Y-32461628D01*
X82844169Y-32461628D02*
X82815598Y-32404485D01*
X82815598Y-32404485D02*
X82758455Y-32347342D01*
X82758455Y-32347342D02*
X82672741Y-32318771D01*
X82672741Y-32318771D02*
X82615598Y-32318771D01*
X82615598Y-32318771D02*
X82529884Y-32347342D01*
X82529884Y-32347342D02*
X82501312Y-32375914D01*
X72258458Y-46418771D02*
X72258458Y-45818771D01*
X72258458Y-45818771D02*
X72115601Y-45818771D01*
X72115601Y-45818771D02*
X72029887Y-45847342D01*
X72029887Y-45847342D02*
X71972744Y-45904485D01*
X71972744Y-45904485D02*
X71944173Y-45961628D01*
X71944173Y-45961628D02*
X71915601Y-46075914D01*
X71915601Y-46075914D02*
X71915601Y-46161628D01*
X71915601Y-46161628D02*
X71944173Y-46275914D01*
X71944173Y-46275914D02*
X71972744Y-46333057D01*
X71972744Y-46333057D02*
X72029887Y-46390200D01*
X72029887Y-46390200D02*
X72115601Y-46418771D01*
X72115601Y-46418771D02*
X72258458Y-46418771D01*
X71687030Y-46247342D02*
X71401316Y-46247342D01*
X71744173Y-46418771D02*
X71544173Y-45818771D01*
X71544173Y-45818771D02*
X71344173Y-46418771D01*
X71229887Y-45818771D02*
X70887030Y-45818771D01*
X71058458Y-46418771D02*
X71058458Y-45818771D01*
X70715601Y-45875914D02*
X70687029Y-45847342D01*
X70687029Y-45847342D02*
X70629887Y-45818771D01*
X70629887Y-45818771D02*
X70487029Y-45818771D01*
X70487029Y-45818771D02*
X70429887Y-45847342D01*
X70429887Y-45847342D02*
X70401315Y-45875914D01*
X70401315Y-45875914D02*
X70372744Y-45933057D01*
X70372744Y-45933057D02*
X70372744Y-45990200D01*
X70372744Y-45990200D02*
X70401315Y-46075914D01*
X70401315Y-46075914D02*
X70744172Y-46418771D01*
X70744172Y-46418771D02*
X70372744Y-46418771D01*
X103037030Y-34390200D02*
X102951316Y-34418771D01*
X102951316Y-34418771D02*
X102808458Y-34418771D01*
X102808458Y-34418771D02*
X102751316Y-34390200D01*
X102751316Y-34390200D02*
X102722744Y-34361628D01*
X102722744Y-34361628D02*
X102694173Y-34304485D01*
X102694173Y-34304485D02*
X102694173Y-34247342D01*
X102694173Y-34247342D02*
X102722744Y-34190200D01*
X102722744Y-34190200D02*
X102751316Y-34161628D01*
X102751316Y-34161628D02*
X102808458Y-34133057D01*
X102808458Y-34133057D02*
X102922744Y-34104485D01*
X102922744Y-34104485D02*
X102979887Y-34075914D01*
X102979887Y-34075914D02*
X103008458Y-34047342D01*
X103008458Y-34047342D02*
X103037030Y-33990200D01*
X103037030Y-33990200D02*
X103037030Y-33933057D01*
X103037030Y-33933057D02*
X103008458Y-33875914D01*
X103008458Y-33875914D02*
X102979887Y-33847342D01*
X102979887Y-33847342D02*
X102922744Y-33818771D01*
X102922744Y-33818771D02*
X102779887Y-33818771D01*
X102779887Y-33818771D02*
X102694173Y-33847342D01*
X102437029Y-34418771D02*
X102437029Y-33818771D01*
X102437029Y-33818771D02*
X102208458Y-33818771D01*
X102208458Y-33818771D02*
X102151315Y-33847342D01*
X102151315Y-33847342D02*
X102122744Y-33875914D01*
X102122744Y-33875914D02*
X102094172Y-33933057D01*
X102094172Y-33933057D02*
X102094172Y-34018771D01*
X102094172Y-34018771D02*
X102122744Y-34075914D01*
X102122744Y-34075914D02*
X102151315Y-34104485D01*
X102151315Y-34104485D02*
X102208458Y-34133057D01*
X102208458Y-34133057D02*
X102437029Y-34133057D01*
X101837029Y-34418771D02*
X101837029Y-33818771D01*
X101579887Y-33875914D02*
X101551315Y-33847342D01*
X101551315Y-33847342D02*
X101494173Y-33818771D01*
X101494173Y-33818771D02*
X101351315Y-33818771D01*
X101351315Y-33818771D02*
X101294173Y-33847342D01*
X101294173Y-33847342D02*
X101265601Y-33875914D01*
X101265601Y-33875914D02*
X101237030Y-33933057D01*
X101237030Y-33933057D02*
X101237030Y-33990200D01*
X101237030Y-33990200D02*
X101265601Y-34075914D01*
X101265601Y-34075914D02*
X101608458Y-34418771D01*
X101608458Y-34418771D02*
X101237030Y-34418771D01*
X101122744Y-34475914D02*
X100665601Y-34475914D01*
X100522743Y-34418771D02*
X100522743Y-33818771D01*
X100522743Y-33818771D02*
X100322743Y-34247342D01*
X100322743Y-34247342D02*
X100122743Y-33818771D01*
X100122743Y-33818771D02*
X100122743Y-34418771D01*
X99722744Y-33818771D02*
X99608458Y-33818771D01*
X99608458Y-33818771D02*
X99551315Y-33847342D01*
X99551315Y-33847342D02*
X99494172Y-33904485D01*
X99494172Y-33904485D02*
X99465601Y-34018771D01*
X99465601Y-34018771D02*
X99465601Y-34218771D01*
X99465601Y-34218771D02*
X99494172Y-34333057D01*
X99494172Y-34333057D02*
X99551315Y-34390200D01*
X99551315Y-34390200D02*
X99608458Y-34418771D01*
X99608458Y-34418771D02*
X99722744Y-34418771D01*
X99722744Y-34418771D02*
X99779887Y-34390200D01*
X99779887Y-34390200D02*
X99837029Y-34333057D01*
X99837029Y-34333057D02*
X99865601Y-34218771D01*
X99865601Y-34218771D02*
X99865601Y-34018771D01*
X99865601Y-34018771D02*
X99837029Y-33904485D01*
X99837029Y-33904485D02*
X99779887Y-33847342D01*
X99779887Y-33847342D02*
X99722744Y-33818771D01*
X99237030Y-34390200D02*
X99151316Y-34418771D01*
X99151316Y-34418771D02*
X99008458Y-34418771D01*
X99008458Y-34418771D02*
X98951316Y-34390200D01*
X98951316Y-34390200D02*
X98922744Y-34361628D01*
X98922744Y-34361628D02*
X98894173Y-34304485D01*
X98894173Y-34304485D02*
X98894173Y-34247342D01*
X98894173Y-34247342D02*
X98922744Y-34190200D01*
X98922744Y-34190200D02*
X98951316Y-34161628D01*
X98951316Y-34161628D02*
X99008458Y-34133057D01*
X99008458Y-34133057D02*
X99122744Y-34104485D01*
X99122744Y-34104485D02*
X99179887Y-34075914D01*
X99179887Y-34075914D02*
X99208458Y-34047342D01*
X99208458Y-34047342D02*
X99237030Y-33990200D01*
X99237030Y-33990200D02*
X99237030Y-33933057D01*
X99237030Y-33933057D02*
X99208458Y-33875914D01*
X99208458Y-33875914D02*
X99179887Y-33847342D01*
X99179887Y-33847342D02*
X99122744Y-33818771D01*
X99122744Y-33818771D02*
X98979887Y-33818771D01*
X98979887Y-33818771D02*
X98894173Y-33847342D01*
X98637029Y-34418771D02*
X98637029Y-33818771D01*
X97751315Y-34618771D02*
X97751315Y-33761628D01*
X96894172Y-34390200D02*
X96808458Y-34418771D01*
X96808458Y-34418771D02*
X96665600Y-34418771D01*
X96665600Y-34418771D02*
X96608458Y-34390200D01*
X96608458Y-34390200D02*
X96579886Y-34361628D01*
X96579886Y-34361628D02*
X96551315Y-34304485D01*
X96551315Y-34304485D02*
X96551315Y-34247342D01*
X96551315Y-34247342D02*
X96579886Y-34190200D01*
X96579886Y-34190200D02*
X96608458Y-34161628D01*
X96608458Y-34161628D02*
X96665600Y-34133057D01*
X96665600Y-34133057D02*
X96779886Y-34104485D01*
X96779886Y-34104485D02*
X96837029Y-34075914D01*
X96837029Y-34075914D02*
X96865600Y-34047342D01*
X96865600Y-34047342D02*
X96894172Y-33990200D01*
X96894172Y-33990200D02*
X96894172Y-33933057D01*
X96894172Y-33933057D02*
X96865600Y-33875914D01*
X96865600Y-33875914D02*
X96837029Y-33847342D01*
X96837029Y-33847342D02*
X96779886Y-33818771D01*
X96779886Y-33818771D02*
X96637029Y-33818771D01*
X96637029Y-33818771D02*
X96551315Y-33847342D01*
X96294171Y-34418771D02*
X96294171Y-33818771D01*
X96294171Y-33818771D02*
X96065600Y-33818771D01*
X96065600Y-33818771D02*
X96008457Y-33847342D01*
X96008457Y-33847342D02*
X95979886Y-33875914D01*
X95979886Y-33875914D02*
X95951314Y-33933057D01*
X95951314Y-33933057D02*
X95951314Y-34018771D01*
X95951314Y-34018771D02*
X95979886Y-34075914D01*
X95979886Y-34075914D02*
X96008457Y-34104485D01*
X96008457Y-34104485D02*
X96065600Y-34133057D01*
X96065600Y-34133057D02*
X96294171Y-34133057D01*
X95694171Y-34418771D02*
X95694171Y-33818771D01*
X95437029Y-33875914D02*
X95408457Y-33847342D01*
X95408457Y-33847342D02*
X95351315Y-33818771D01*
X95351315Y-33818771D02*
X95208457Y-33818771D01*
X95208457Y-33818771D02*
X95151315Y-33847342D01*
X95151315Y-33847342D02*
X95122743Y-33875914D01*
X95122743Y-33875914D02*
X95094172Y-33933057D01*
X95094172Y-33933057D02*
X95094172Y-33990200D01*
X95094172Y-33990200D02*
X95122743Y-34075914D01*
X95122743Y-34075914D02*
X95465600Y-34418771D01*
X95465600Y-34418771D02*
X95094172Y-34418771D01*
X94979886Y-34475914D02*
X94522743Y-34475914D01*
X94379885Y-34418771D02*
X94379885Y-33818771D01*
X94379885Y-33818771D02*
X94179885Y-34247342D01*
X94179885Y-34247342D02*
X93979885Y-33818771D01*
X93979885Y-33818771D02*
X93979885Y-34418771D01*
X93694171Y-34418771D02*
X93694171Y-33818771D01*
X93437029Y-34390200D02*
X93351315Y-34418771D01*
X93351315Y-34418771D02*
X93208457Y-34418771D01*
X93208457Y-34418771D02*
X93151315Y-34390200D01*
X93151315Y-34390200D02*
X93122743Y-34361628D01*
X93122743Y-34361628D02*
X93094172Y-34304485D01*
X93094172Y-34304485D02*
X93094172Y-34247342D01*
X93094172Y-34247342D02*
X93122743Y-34190200D01*
X93122743Y-34190200D02*
X93151315Y-34161628D01*
X93151315Y-34161628D02*
X93208457Y-34133057D01*
X93208457Y-34133057D02*
X93322743Y-34104485D01*
X93322743Y-34104485D02*
X93379886Y-34075914D01*
X93379886Y-34075914D02*
X93408457Y-34047342D01*
X93408457Y-34047342D02*
X93437029Y-33990200D01*
X93437029Y-33990200D02*
X93437029Y-33933057D01*
X93437029Y-33933057D02*
X93408457Y-33875914D01*
X93408457Y-33875914D02*
X93379886Y-33847342D01*
X93379886Y-33847342D02*
X93322743Y-33818771D01*
X93322743Y-33818771D02*
X93179886Y-33818771D01*
X93179886Y-33818771D02*
X93094172Y-33847342D01*
X92722743Y-33818771D02*
X92608457Y-33818771D01*
X92608457Y-33818771D02*
X92551314Y-33847342D01*
X92551314Y-33847342D02*
X92494171Y-33904485D01*
X92494171Y-33904485D02*
X92465600Y-34018771D01*
X92465600Y-34018771D02*
X92465600Y-34218771D01*
X92465600Y-34218771D02*
X92494171Y-34333057D01*
X92494171Y-34333057D02*
X92551314Y-34390200D01*
X92551314Y-34390200D02*
X92608457Y-34418771D01*
X92608457Y-34418771D02*
X92722743Y-34418771D01*
X92722743Y-34418771D02*
X92779886Y-34390200D01*
X92779886Y-34390200D02*
X92837028Y-34333057D01*
X92837028Y-34333057D02*
X92865600Y-34218771D01*
X92865600Y-34218771D02*
X92865600Y-34018771D01*
X92865600Y-34018771D02*
X92837028Y-33904485D01*
X92837028Y-33904485D02*
X92779886Y-33847342D01*
X92779886Y-33847342D02*
X92722743Y-33818771D01*
X91608457Y-34618771D02*
X91608457Y-33761628D01*
X90608457Y-33818771D02*
X90494171Y-33818771D01*
X90494171Y-33818771D02*
X90437028Y-33847342D01*
X90437028Y-33847342D02*
X90379885Y-33904485D01*
X90379885Y-33904485D02*
X90351314Y-34018771D01*
X90351314Y-34018771D02*
X90351314Y-34218771D01*
X90351314Y-34218771D02*
X90379885Y-34333057D01*
X90379885Y-34333057D02*
X90437028Y-34390200D01*
X90437028Y-34390200D02*
X90494171Y-34418771D01*
X90494171Y-34418771D02*
X90608457Y-34418771D01*
X90608457Y-34418771D02*
X90665600Y-34390200D01*
X90665600Y-34390200D02*
X90722742Y-34333057D01*
X90722742Y-34333057D02*
X90751314Y-34218771D01*
X90751314Y-34218771D02*
X90751314Y-34018771D01*
X90751314Y-34018771D02*
X90722742Y-33904485D01*
X90722742Y-33904485D02*
X90665600Y-33847342D01*
X90665600Y-33847342D02*
X90608457Y-33818771D01*
X90094171Y-34104485D02*
X89894171Y-34104485D01*
X89808457Y-34418771D02*
X90094171Y-34418771D01*
X90094171Y-34418771D02*
X90094171Y-33818771D01*
X90094171Y-33818771D02*
X89808457Y-33818771D01*
X88951314Y-34618771D02*
X88951314Y-33761628D01*
X88094171Y-34390200D02*
X88008457Y-34418771D01*
X88008457Y-34418771D02*
X87865599Y-34418771D01*
X87865599Y-34418771D02*
X87808457Y-34390200D01*
X87808457Y-34390200D02*
X87779885Y-34361628D01*
X87779885Y-34361628D02*
X87751314Y-34304485D01*
X87751314Y-34304485D02*
X87751314Y-34247342D01*
X87751314Y-34247342D02*
X87779885Y-34190200D01*
X87779885Y-34190200D02*
X87808457Y-34161628D01*
X87808457Y-34161628D02*
X87865599Y-34133057D01*
X87865599Y-34133057D02*
X87979885Y-34104485D01*
X87979885Y-34104485D02*
X88037028Y-34075914D01*
X88037028Y-34075914D02*
X88065599Y-34047342D01*
X88065599Y-34047342D02*
X88094171Y-33990200D01*
X88094171Y-33990200D02*
X88094171Y-33933057D01*
X88094171Y-33933057D02*
X88065599Y-33875914D01*
X88065599Y-33875914D02*
X88037028Y-33847342D01*
X88037028Y-33847342D02*
X87979885Y-33818771D01*
X87979885Y-33818771D02*
X87837028Y-33818771D01*
X87837028Y-33818771D02*
X87751314Y-33847342D01*
X87494170Y-34418771D02*
X87494170Y-33818771D01*
X87494170Y-33818771D02*
X87265599Y-33818771D01*
X87265599Y-33818771D02*
X87208456Y-33847342D01*
X87208456Y-33847342D02*
X87179885Y-33875914D01*
X87179885Y-33875914D02*
X87151313Y-33933057D01*
X87151313Y-33933057D02*
X87151313Y-34018771D01*
X87151313Y-34018771D02*
X87179885Y-34075914D01*
X87179885Y-34075914D02*
X87208456Y-34104485D01*
X87208456Y-34104485D02*
X87265599Y-34133057D01*
X87265599Y-34133057D02*
X87494170Y-34133057D01*
X86894170Y-34418771D02*
X86894170Y-33818771D01*
X86637028Y-33875914D02*
X86608456Y-33847342D01*
X86608456Y-33847342D02*
X86551314Y-33818771D01*
X86551314Y-33818771D02*
X86408456Y-33818771D01*
X86408456Y-33818771D02*
X86351314Y-33847342D01*
X86351314Y-33847342D02*
X86322742Y-33875914D01*
X86322742Y-33875914D02*
X86294171Y-33933057D01*
X86294171Y-33933057D02*
X86294171Y-33990200D01*
X86294171Y-33990200D02*
X86322742Y-34075914D01*
X86322742Y-34075914D02*
X86665599Y-34418771D01*
X86665599Y-34418771D02*
X86294171Y-34418771D01*
X86179885Y-34475914D02*
X85722742Y-34475914D01*
X85608456Y-34390200D02*
X85522742Y-34418771D01*
X85522742Y-34418771D02*
X85379884Y-34418771D01*
X85379884Y-34418771D02*
X85322742Y-34390200D01*
X85322742Y-34390200D02*
X85294170Y-34361628D01*
X85294170Y-34361628D02*
X85265599Y-34304485D01*
X85265599Y-34304485D02*
X85265599Y-34247342D01*
X85265599Y-34247342D02*
X85294170Y-34190200D01*
X85294170Y-34190200D02*
X85322742Y-34161628D01*
X85322742Y-34161628D02*
X85379884Y-34133057D01*
X85379884Y-34133057D02*
X85494170Y-34104485D01*
X85494170Y-34104485D02*
X85551313Y-34075914D01*
X85551313Y-34075914D02*
X85579884Y-34047342D01*
X85579884Y-34047342D02*
X85608456Y-33990200D01*
X85608456Y-33990200D02*
X85608456Y-33933057D01*
X85608456Y-33933057D02*
X85579884Y-33875914D01*
X85579884Y-33875914D02*
X85551313Y-33847342D01*
X85551313Y-33847342D02*
X85494170Y-33818771D01*
X85494170Y-33818771D02*
X85351313Y-33818771D01*
X85351313Y-33818771D02*
X85265599Y-33847342D01*
X84665598Y-34361628D02*
X84694170Y-34390200D01*
X84694170Y-34390200D02*
X84779884Y-34418771D01*
X84779884Y-34418771D02*
X84837027Y-34418771D01*
X84837027Y-34418771D02*
X84922741Y-34390200D01*
X84922741Y-34390200D02*
X84979884Y-34333057D01*
X84979884Y-34333057D02*
X85008455Y-34275914D01*
X85008455Y-34275914D02*
X85037027Y-34161628D01*
X85037027Y-34161628D02*
X85037027Y-34075914D01*
X85037027Y-34075914D02*
X85008455Y-33961628D01*
X85008455Y-33961628D02*
X84979884Y-33904485D01*
X84979884Y-33904485D02*
X84922741Y-33847342D01*
X84922741Y-33847342D02*
X84837027Y-33818771D01*
X84837027Y-33818771D02*
X84779884Y-33818771D01*
X84779884Y-33818771D02*
X84694170Y-33847342D01*
X84694170Y-33847342D02*
X84665598Y-33875914D01*
X84122741Y-34418771D02*
X84408455Y-34418771D01*
X84408455Y-34418771D02*
X84408455Y-33818771D01*
X83922741Y-34418771D02*
X83922741Y-33818771D01*
X83579884Y-34418771D02*
X83837027Y-34075914D01*
X83579884Y-33818771D02*
X83922741Y-34161628D01*
X135258458Y-42918771D02*
X135258458Y-42318771D01*
X135258458Y-42318771D02*
X135115601Y-42318771D01*
X135115601Y-42318771D02*
X135029887Y-42347342D01*
X135029887Y-42347342D02*
X134972744Y-42404485D01*
X134972744Y-42404485D02*
X134944173Y-42461628D01*
X134944173Y-42461628D02*
X134915601Y-42575914D01*
X134915601Y-42575914D02*
X134915601Y-42661628D01*
X134915601Y-42661628D02*
X134944173Y-42775914D01*
X134944173Y-42775914D02*
X134972744Y-42833057D01*
X134972744Y-42833057D02*
X135029887Y-42890200D01*
X135029887Y-42890200D02*
X135115601Y-42918771D01*
X135115601Y-42918771D02*
X135258458Y-42918771D01*
X134687030Y-42747342D02*
X134401316Y-42747342D01*
X134744173Y-42918771D02*
X134544173Y-42318771D01*
X134544173Y-42318771D02*
X134344173Y-42918771D01*
X134229887Y-42318771D02*
X133887030Y-42318771D01*
X134058458Y-42918771D02*
X134058458Y-42318771D01*
X133429887Y-42318771D02*
X133544172Y-42318771D01*
X133544172Y-42318771D02*
X133601315Y-42347342D01*
X133601315Y-42347342D02*
X133629887Y-42375914D01*
X133629887Y-42375914D02*
X133687029Y-42461628D01*
X133687029Y-42461628D02*
X133715601Y-42575914D01*
X133715601Y-42575914D02*
X133715601Y-42804485D01*
X133715601Y-42804485D02*
X133687029Y-42861628D01*
X133687029Y-42861628D02*
X133658458Y-42890200D01*
X133658458Y-42890200D02*
X133601315Y-42918771D01*
X133601315Y-42918771D02*
X133487029Y-42918771D01*
X133487029Y-42918771D02*
X133429887Y-42890200D01*
X133429887Y-42890200D02*
X133401315Y-42861628D01*
X133401315Y-42861628D02*
X133372744Y-42804485D01*
X133372744Y-42804485D02*
X133372744Y-42661628D01*
X133372744Y-42661628D02*
X133401315Y-42604485D01*
X133401315Y-42604485D02*
X133429887Y-42575914D01*
X133429887Y-42575914D02*
X133487029Y-42547342D01*
X133487029Y-42547342D02*
X133601315Y-42547342D01*
X133601315Y-42547342D02*
X133658458Y-42575914D01*
X133658458Y-42575914D02*
X133687029Y-42604485D01*
X133687029Y-42604485D02*
X133715601Y-42661628D01*
D11*
%TO.C,TP10*%
X123100000Y-43900000D02*
G75*
G03*
X123100000Y-43900000I-700000J0D01*
G01*
%TO.C,TP7*%
X72200000Y-47700000D02*
G75*
G03*
X72200000Y-47700000I-700000J0D01*
G01*
%TO.C,TP24*%
X92350000Y-39800000D02*
G75*
G03*
X92350000Y-39800000I-700000J0D01*
G01*
%TO.C,TP13*%
X92950000Y-51500000D02*
G75*
G03*
X92950000Y-51500000I-700000J0D01*
G01*
%TO.C,TP32*%
X88950000Y-50000000D02*
G75*
G03*
X88950000Y-50000000I-700000J0D01*
G01*
%TO.C,TP26*%
X93100000Y-43500000D02*
G75*
G03*
X93100000Y-43500000I-700000J0D01*
G01*
%TO.C,TP18*%
X133200000Y-48000000D02*
G75*
G03*
X133200000Y-48000000I-700000J0D01*
G01*
%TO.C,SW1*%
X96410000Y-48510000D02*
X96410000Y-44890000D01*
X96410000Y-44890000D02*
X90290000Y-44890000D01*
X90290000Y-48510000D02*
X96410000Y-48510000D01*
X90290000Y-44890000D02*
X90290000Y-48510000D01*
%TO.C,TP19*%
X130050000Y-39750000D02*
G75*
G03*
X130050000Y-39750000I-700000J0D01*
G01*
%TO.C,TP8*%
X85050000Y-43500000D02*
G75*
G03*
X85050000Y-43500000I-700000J0D01*
G01*
%TO.C,TP16*%
X132900000Y-42550000D02*
G75*
G03*
X132900000Y-42550000I-700000J0D01*
G01*
%TO.C,TP22*%
X91100000Y-43500000D02*
G75*
G03*
X91100000Y-43500000I-700000J0D01*
G01*
%TO.C,TP21*%
X97200000Y-43450000D02*
G75*
G03*
X97200000Y-43450000I-700000J0D01*
G01*
%TO.C,TP11*%
X94450000Y-50250000D02*
G75*
G03*
X94450000Y-50250000I-700000J0D01*
G01*
%TO.C,TP25*%
X89050000Y-43500000D02*
G75*
G03*
X89050000Y-43500000I-700000J0D01*
G01*
%TO.C,TP4*%
X95950000Y-51500000D02*
G75*
G03*
X95950000Y-51500000I-700000J0D01*
G01*
%TO.C,TP17*%
X131150000Y-48000000D02*
G75*
G03*
X131150000Y-48000000I-700000J0D01*
G01*
%TO.C,TP14*%
X91700000Y-50000000D02*
G75*
G03*
X91700000Y-50000000I-700000J0D01*
G01*
%TO.C,TP2*%
X98950000Y-51500000D02*
G75*
G03*
X98950000Y-51500000I-700000J0D01*
G01*
%TO.C,TP1*%
X90450000Y-51500000D02*
G75*
G03*
X90450000Y-51500000I-700000J0D01*
G01*
%TO.C,TP27*%
X87000000Y-43500000D02*
G75*
G03*
X87000000Y-43500000I-700000J0D01*
G01*
%TO.C,J1*%
X58350000Y-48700000D02*
X58950000Y-48700000D01*
X58350000Y-50500000D02*
X58950000Y-50500000D01*
X61050000Y-48700000D02*
X61650000Y-48700000D01*
X61050000Y-50500000D02*
X61650000Y-50500000D01*
%TO.C,TP3*%
X97450000Y-50250000D02*
G75*
G03*
X97450000Y-50250000I-700000J0D01*
G01*
%TO.C,TP23*%
X95600000Y-40250000D02*
G75*
G03*
X95600000Y-40250000I-700000J0D01*
G01*
%TO.C,TP20*%
X95150000Y-43500000D02*
G75*
G03*
X95150000Y-43500000I-700000J0D01*
G01*
%TD*%
%LPC*%
D12*
%TO.C,TP10*%
X122400000Y-43900000D03*
%TD*%
%TO.C,TP7*%
X71500000Y-47700000D03*
%TD*%
%TO.C,TP24*%
X91650000Y-39800000D03*
%TD*%
%TO.C,TP13*%
X92250000Y-51500000D03*
%TD*%
%TO.C,TP32*%
X88250000Y-50000000D03*
%TD*%
%TO.C,TP26*%
X92400000Y-43500000D03*
%TD*%
%TO.C,TP18*%
X132500000Y-48000000D03*
%TD*%
D13*
%TO.C,SW1*%
X97940000Y-46700000D03*
X88760000Y-46700000D03*
%TD*%
D12*
%TO.C,TP19*%
X129350000Y-39750000D03*
%TD*%
%TO.C,TP8*%
X84350000Y-43500000D03*
%TD*%
%TO.C,TP16*%
X132200000Y-42550000D03*
%TD*%
%TO.C,TP22*%
X90400000Y-43500000D03*
%TD*%
%TO.C,TP21*%
X96500000Y-43450000D03*
%TD*%
%TO.C,TP11*%
X93750000Y-50250000D03*
%TD*%
%TO.C,TP25*%
X88350000Y-43500000D03*
%TD*%
%TO.C,TP4*%
X95250000Y-51500000D03*
%TD*%
%TO.C,TP17*%
X130450000Y-48000000D03*
%TD*%
%TO.C,TP14*%
X91000000Y-50000000D03*
%TD*%
%TO.C,TP2*%
X98250000Y-51500000D03*
%TD*%
%TO.C,TP1*%
X89750000Y-51500000D03*
%TD*%
%TO.C,TP27*%
X86300000Y-43500000D03*
%TD*%
D14*
%TO.C,J1*%
X59200000Y-50400000D03*
X59200000Y-48800000D03*
X59600000Y-50400000D03*
X59600000Y-48800000D03*
X60000000Y-50400000D03*
X60000000Y-48800000D03*
X60400000Y-50400000D03*
X60400000Y-48800000D03*
X60800000Y-50400000D03*
X60800000Y-48800000D03*
D15*
X58400000Y-49050000D03*
X58400000Y-50150000D03*
X61600000Y-49050000D03*
X61600000Y-50150000D03*
%TD*%
D12*
%TO.C,TP3*%
X96750000Y-50250000D03*
%TD*%
%TO.C,TP23*%
X94900000Y-40250000D03*
%TD*%
%TO.C,TP20*%
X94450000Y-43500000D03*
%TD*%
%LPD*%
M02*
