%TF.GenerationSoftware,KiCad,Pcbnew,7.0.6*%
%TF.CreationDate,2023-07-18T02:13:15+02:00*%
%TF.ProjectId,ledboad,6c656462-6f61-4642-9e6b-696361645f70,rev?*%
%TF.SameCoordinates,Original*%
%TF.FileFunction,Soldermask,Top*%
%TF.FilePolarity,Negative*%
%FSLAX46Y46*%
G04 Gerber Fmt 4.6, Leading zero omitted, Abs format (unit mm)*
G04 Created by KiCad (PCBNEW 7.0.6) date 2023-07-18 02:13:15*
%MOMM*%
%LPD*%
G01*
G04 APERTURE LIST*
G04 Aperture macros list*
%AMRoundRect*
0 Rectangle with rounded corners*
0 $1 Rounding radius*
0 $2 $3 $4 $5 $6 $7 $8 $9 X,Y pos of 4 corners*
0 Add a 4 corners polygon primitive as box body*
4,1,4,$2,$3,$4,$5,$6,$7,$8,$9,$2,$3,0*
0 Add four circle primitives for the rounded corners*
1,1,$1+$1,$2,$3*
1,1,$1+$1,$4,$5*
1,1,$1+$1,$6,$7*
1,1,$1+$1,$8,$9*
0 Add four rect primitives between the rounded corners*
20,1,$1+$1,$2,$3,$4,$5,0*
20,1,$1+$1,$4,$5,$6,$7,0*
20,1,$1+$1,$6,$7,$8,$9,0*
20,1,$1+$1,$8,$9,$2,$3,0*%
G04 Aperture macros list end*
%ADD10R,0.600000X0.400000*%
%ADD11R,0.400000X1.200000*%
%ADD12RoundRect,0.075000X-0.662500X-0.075000X0.662500X-0.075000X0.662500X0.075000X-0.662500X0.075000X0*%
%ADD13RoundRect,0.075000X-0.075000X-0.662500X0.075000X-0.662500X0.075000X0.662500X-0.075000X0.662500X0*%
%ADD14RoundRect,0.150000X-0.150000X0.587500X-0.150000X-0.587500X0.150000X-0.587500X0.150000X0.587500X0*%
%ADD15RoundRect,0.135000X-0.185000X0.135000X-0.185000X-0.135000X0.185000X-0.135000X0.185000X0.135000X0*%
%ADD16C,1.000000*%
%ADD17RoundRect,0.135000X0.185000X-0.135000X0.185000X0.135000X-0.185000X0.135000X-0.185000X-0.135000X0*%
%ADD18RoundRect,0.140000X-0.140000X-0.170000X0.140000X-0.170000X0.140000X0.170000X-0.140000X0.170000X0*%
%ADD19RoundRect,0.135000X0.135000X0.185000X-0.135000X0.185000X-0.135000X-0.185000X0.135000X-0.185000X0*%
%ADD20R,0.800000X0.900000*%
%ADD21RoundRect,0.140000X0.140000X0.170000X-0.140000X0.170000X-0.140000X-0.170000X0.140000X-0.170000X0*%
%ADD22RoundRect,0.150000X0.150000X-0.587500X0.150000X0.587500X-0.150000X0.587500X-0.150000X-0.587500X0*%
%ADD23RoundRect,0.150000X0.150000X-0.512500X0.150000X0.512500X-0.150000X0.512500X-0.150000X-0.512500X0*%
%ADD24RoundRect,0.140000X-0.170000X0.140000X-0.170000X-0.140000X0.170000X-0.140000X0.170000X0.140000X0*%
%ADD25RoundRect,0.140000X0.170000X-0.140000X0.170000X0.140000X-0.170000X0.140000X-0.170000X-0.140000X0*%
%ADD26RoundRect,0.135000X-0.135000X-0.185000X0.135000X-0.185000X0.135000X0.185000X-0.135000X0.185000X0*%
%ADD27R,0.400000X0.600000*%
G04 APERTURE END LIST*
D10*
%TO.C,D5_6*%
X61597430Y-33698700D03*
X62997430Y-33698700D03*
X62997430Y-34498700D03*
X61597430Y-34498700D03*
%TD*%
%TO.C,D8_4*%
X70595888Y-27699220D03*
X71995888Y-27699220D03*
X71995888Y-28499220D03*
X70595888Y-28499220D03*
%TD*%
%TO.C,D11_3*%
X79594346Y-24699480D03*
X80994346Y-24699480D03*
X80994346Y-25499480D03*
X79594346Y-25499480D03*
%TD*%
%TO.C,D3_7*%
X55598458Y-36698440D03*
X56998458Y-36698440D03*
X56998458Y-37498440D03*
X55598458Y-37498440D03*
%TD*%
%TO.C,D0_3*%
X46600000Y-24699480D03*
X48000000Y-24699480D03*
X48000000Y-25499480D03*
X46600000Y-25499480D03*
%TD*%
%TO.C,D3_5*%
X55598458Y-30698960D03*
X56998458Y-30698960D03*
X56998458Y-31498960D03*
X55598458Y-31498960D03*
%TD*%
%TO.C,D4_3*%
X58597944Y-24699480D03*
X59997944Y-24699480D03*
X59997944Y-25499480D03*
X58597944Y-25499480D03*
%TD*%
%TO.C,D17_6*%
X97591262Y-33698700D03*
X98991262Y-33698700D03*
X98991262Y-34498700D03*
X97591262Y-34498700D03*
%TD*%
%TO.C,D22_2*%
X112587005Y-21699740D03*
X113987005Y-21699740D03*
X113987005Y-22499740D03*
X112587005Y-22499740D03*
%TD*%
%TO.C,D25_2*%
X121587150Y-21699740D03*
X122987150Y-21699740D03*
X122987150Y-22499740D03*
X121587150Y-22499740D03*
%TD*%
%TO.C,D13_5*%
X85593318Y-30698960D03*
X86993318Y-30698960D03*
X86993318Y-31498960D03*
X85593318Y-31498960D03*
%TD*%
%TO.C,D25_6*%
X121587150Y-33698700D03*
X122987150Y-33698700D03*
X122987150Y-34498700D03*
X121587150Y-34498700D03*
%TD*%
%TO.C,D13_6*%
X85593318Y-33698700D03*
X86993318Y-33698700D03*
X86993318Y-34498700D03*
X85593318Y-34498700D03*
%TD*%
%TO.C,D17_2*%
X97591262Y-21699740D03*
X98991262Y-21699740D03*
X98991262Y-22499740D03*
X97591262Y-22499740D03*
%TD*%
D11*
%TO.C,RU2*%
X104007500Y-48037500D03*
X104642500Y-48037500D03*
X105277500Y-48037500D03*
X105912500Y-48037500D03*
X106547500Y-48037500D03*
X107182500Y-48037500D03*
X107817500Y-48037500D03*
X108452500Y-48037500D03*
X109087500Y-48037500D03*
X109722500Y-48037500D03*
X110357500Y-48037500D03*
X110992500Y-48037500D03*
X110992500Y-42837500D03*
X110357500Y-42837500D03*
X109722500Y-42837500D03*
X109087500Y-42837500D03*
X108452500Y-42837500D03*
X107817500Y-42837500D03*
X107182500Y-42837500D03*
X106547500Y-42837500D03*
X105912500Y-42837500D03*
X105277500Y-42837500D03*
X104642500Y-42837500D03*
X104007500Y-42837500D03*
%TD*%
D10*
%TO.C,D8_2*%
X70595888Y-21699740D03*
X71995888Y-21699740D03*
X71995888Y-22499740D03*
X70595888Y-22499740D03*
%TD*%
D11*
%TO.C,RU1*%
X50507500Y-48100000D03*
X51142500Y-48100000D03*
X51777500Y-48100000D03*
X52412500Y-48100000D03*
X53047500Y-48100000D03*
X53682500Y-48100000D03*
X54317500Y-48100000D03*
X54952500Y-48100000D03*
X55587500Y-48100000D03*
X56222500Y-48100000D03*
X56857500Y-48100000D03*
X57492500Y-48100000D03*
X57492500Y-42900000D03*
X56857500Y-42900000D03*
X56222500Y-42900000D03*
X55587500Y-42900000D03*
X54952500Y-42900000D03*
X54317500Y-42900000D03*
X53682500Y-42900000D03*
X53047500Y-42900000D03*
X52412500Y-42900000D03*
X51777500Y-42900000D03*
X51142500Y-42900000D03*
X50507500Y-42900000D03*
%TD*%
D10*
%TO.C,D2_4*%
X52598972Y-27699220D03*
X53998972Y-27699220D03*
X53998972Y-28499220D03*
X52598972Y-28499220D03*
%TD*%
%TO.C,D23_7*%
X115588178Y-36698440D03*
X116988178Y-36698440D03*
X116988178Y-37498440D03*
X115588178Y-37498440D03*
%TD*%
%TO.C,D20_4*%
X106589720Y-27699220D03*
X107989720Y-27699220D03*
X107989720Y-28499220D03*
X106589720Y-28499220D03*
%TD*%
%TO.C,D30_4*%
X136584580Y-27699220D03*
X137984580Y-27699220D03*
X137984580Y-28499220D03*
X136584580Y-28499220D03*
%TD*%
%TO.C,D9_7*%
X73595374Y-36698440D03*
X74995374Y-36698440D03*
X74995374Y-37498440D03*
X73595374Y-37498440D03*
%TD*%
%TO.C,D30_7*%
X136584580Y-36698440D03*
X137984580Y-36698440D03*
X137984580Y-37498440D03*
X136584580Y-37498440D03*
%TD*%
%TO.C,D22_7*%
X112587005Y-36698440D03*
X113987005Y-36698440D03*
X113987005Y-37498440D03*
X112587005Y-37498440D03*
%TD*%
D12*
%TO.C,U1*%
X89587500Y-43750000D03*
X89587500Y-44250000D03*
X89587500Y-44750000D03*
X89587500Y-45250000D03*
X89587500Y-45750000D03*
X89587500Y-46250000D03*
X89587500Y-46750000D03*
X89587500Y-47250000D03*
X89587500Y-47750000D03*
X89587500Y-48250000D03*
X89587500Y-48750000D03*
X89587500Y-49250000D03*
D13*
X91000000Y-50662500D03*
X91500000Y-50662500D03*
X92000000Y-50662500D03*
X92500000Y-50662500D03*
X93000000Y-50662500D03*
X93500000Y-50662500D03*
X94000000Y-50662500D03*
X94500000Y-50662500D03*
X95000000Y-50662500D03*
X95500000Y-50662500D03*
X96000000Y-50662500D03*
X96500000Y-50662500D03*
D12*
X97912500Y-49250000D03*
X97912500Y-48750000D03*
X97912500Y-48250000D03*
X97912500Y-47750000D03*
X97912500Y-47250000D03*
X97912500Y-46750000D03*
X97912500Y-46250000D03*
X97912500Y-45750000D03*
X97912500Y-45250000D03*
X97912500Y-44750000D03*
X97912500Y-44250000D03*
X97912500Y-43750000D03*
D13*
X96500000Y-42337500D03*
X96000000Y-42337500D03*
X95500000Y-42337500D03*
X95000000Y-42337500D03*
X94500000Y-42337500D03*
X94000000Y-42337500D03*
X93500000Y-42337500D03*
X93000000Y-42337500D03*
X92500000Y-42337500D03*
X92000000Y-42337500D03*
X91500000Y-42337500D03*
X91000000Y-42337500D03*
%TD*%
D10*
%TO.C,D13_2*%
X85593318Y-21699740D03*
X86993318Y-21699740D03*
X86993318Y-22499740D03*
X85593318Y-22499740D03*
%TD*%
D14*
%TO.C,Q2*%
X101850000Y-43200000D03*
X99950000Y-43200000D03*
X100900000Y-45075000D03*
%TD*%
D10*
%TO.C,D14_7*%
X88592804Y-36698440D03*
X89992804Y-36698440D03*
X89992804Y-37498440D03*
X88592804Y-37498440D03*
%TD*%
D15*
%TO.C,R13*%
X74725000Y-46440000D03*
X74725000Y-47460000D03*
%TD*%
D10*
%TO.C,D18_7*%
X100590748Y-36698440D03*
X101990748Y-36698440D03*
X101990748Y-37498440D03*
X100590748Y-37498440D03*
%TD*%
D16*
%TO.C,TP5*%
X51550000Y-50600000D03*
%TD*%
D10*
%TO.C,D1_1*%
X49599486Y-18700000D03*
X50999486Y-18700000D03*
X50999486Y-19500000D03*
X49599486Y-19500000D03*
%TD*%
D11*
%TO.C,RU6*%
X129957500Y-48025000D03*
X130592500Y-48025000D03*
X131227500Y-48025000D03*
X131862500Y-48025000D03*
X132497500Y-48025000D03*
X133132500Y-48025000D03*
X133767500Y-48025000D03*
X134402500Y-48025000D03*
X135037500Y-48025000D03*
X135672500Y-48025000D03*
X136307500Y-48025000D03*
X136942500Y-48025000D03*
X136942500Y-42825000D03*
X136307500Y-42825000D03*
X135672500Y-42825000D03*
X135037500Y-42825000D03*
X134402500Y-42825000D03*
X133767500Y-42825000D03*
X133132500Y-42825000D03*
X132497500Y-42825000D03*
X131862500Y-42825000D03*
X131227500Y-42825000D03*
X130592500Y-42825000D03*
X129957500Y-42825000D03*
%TD*%
D10*
%TO.C,D31_4*%
X139584066Y-27699220D03*
X140984066Y-27699220D03*
X140984066Y-28499220D03*
X139584066Y-28499220D03*
%TD*%
%TO.C,D4_8*%
X58597944Y-39698180D03*
X59997944Y-39698180D03*
X59997944Y-40498180D03*
X58597944Y-40498180D03*
%TD*%
%TO.C,D18_3*%
X100590748Y-24699480D03*
X101990748Y-24699480D03*
X101990748Y-25499480D03*
X100590748Y-25499480D03*
%TD*%
%TO.C,D23_5*%
X115588178Y-30698960D03*
X116988178Y-30698960D03*
X116988178Y-31498960D03*
X115588178Y-31498960D03*
%TD*%
%TO.C,D21_3*%
X109589206Y-24699480D03*
X110989206Y-24699480D03*
X110989206Y-25499480D03*
X109589206Y-25499480D03*
%TD*%
%TO.C,D13_4*%
X85593318Y-27699220D03*
X86993318Y-27699220D03*
X86993318Y-28499220D03*
X85593318Y-28499220D03*
%TD*%
%TO.C,D24_7*%
X118587664Y-36698440D03*
X119987664Y-36698440D03*
X119987664Y-37498440D03*
X118587664Y-37498440D03*
%TD*%
%TO.C,D18_2*%
X100590748Y-21699740D03*
X101990748Y-21699740D03*
X101990748Y-22499740D03*
X100590748Y-22499740D03*
%TD*%
D17*
%TO.C,R2*%
X99450000Y-46935000D03*
X99450000Y-45915000D03*
%TD*%
D10*
%TO.C,D24_3*%
X118587664Y-24699480D03*
X119987664Y-24699480D03*
X119987664Y-25499480D03*
X118587664Y-25499480D03*
%TD*%
D14*
%TO.C,Q5*%
X74450000Y-43200000D03*
X72550000Y-43200000D03*
X73500000Y-45075000D03*
%TD*%
%TO.C,Q3*%
X61450000Y-43125000D03*
X59550000Y-43125000D03*
X60500000Y-45000000D03*
%TD*%
D10*
%TO.C,D2_5*%
X52598972Y-30698960D03*
X53998972Y-30698960D03*
X53998972Y-31498960D03*
X52598972Y-31498960D03*
%TD*%
D15*
%TO.C,R11*%
X61750000Y-46440000D03*
X61750000Y-47460000D03*
%TD*%
D10*
%TO.C,D17_5*%
X97591262Y-30698960D03*
X98991262Y-30698960D03*
X98991262Y-31498960D03*
X97591262Y-31498960D03*
%TD*%
%TO.C,D5_8*%
X61597430Y-39698180D03*
X62997430Y-39698180D03*
X62997430Y-40498180D03*
X61597430Y-40498180D03*
%TD*%
%TO.C,D2_6*%
X52598972Y-33698700D03*
X53998972Y-33698700D03*
X53998972Y-34498700D03*
X52598972Y-34498700D03*
%TD*%
%TO.C,D20_7*%
X106589720Y-36698440D03*
X107989720Y-36698440D03*
X107989720Y-37498440D03*
X106589720Y-37498440D03*
%TD*%
%TO.C,D0_1*%
X46600000Y-18700000D03*
X48000000Y-18700000D03*
X48000000Y-19500000D03*
X46600000Y-19500000D03*
%TD*%
%TO.C,D23_6*%
X115588178Y-33698700D03*
X116988178Y-33698700D03*
X116988178Y-34498700D03*
X115588178Y-34498700D03*
%TD*%
%TO.C,D10_5*%
X76594860Y-30698960D03*
X77994860Y-30698960D03*
X77994860Y-31498960D03*
X76594860Y-31498960D03*
%TD*%
%TO.C,D31_3*%
X139584066Y-24699480D03*
X140984066Y-24699480D03*
X140984066Y-25499480D03*
X139584066Y-25499480D03*
%TD*%
D18*
%TO.C,C2*%
X88970000Y-42200000D03*
X89930000Y-42200000D03*
%TD*%
D19*
%TO.C,R8*%
X137660000Y-49400000D03*
X136640000Y-49400000D03*
%TD*%
D10*
%TO.C,D7_8*%
X67596402Y-39698180D03*
X68996402Y-39698180D03*
X68996402Y-40498180D03*
X67596402Y-40498180D03*
%TD*%
%TO.C,D5_5*%
X61597430Y-30698960D03*
X62997430Y-30698960D03*
X62997430Y-31498960D03*
X61597430Y-31498960D03*
%TD*%
%TO.C,D20_2*%
X106589720Y-21699740D03*
X107989720Y-21699740D03*
X107989720Y-22499740D03*
X106589720Y-22499740D03*
%TD*%
%TO.C,D22_5*%
X112587005Y-30698960D03*
X113987005Y-30698960D03*
X113987005Y-31498960D03*
X112587005Y-31498960D03*
%TD*%
%TO.C,D17_7*%
X97591262Y-36698440D03*
X98991262Y-36698440D03*
X98991262Y-37498440D03*
X97591262Y-37498440D03*
%TD*%
%TO.C,D25_7*%
X121587150Y-36698440D03*
X122987150Y-36698440D03*
X122987150Y-37498440D03*
X121587150Y-37498440D03*
%TD*%
%TO.C,D20_8*%
X106589720Y-39698180D03*
X107989720Y-39698180D03*
X107989720Y-40498180D03*
X106589720Y-40498180D03*
%TD*%
%TO.C,D28_5*%
X130585608Y-30698960D03*
X131985608Y-30698960D03*
X131985608Y-31498960D03*
X130585608Y-31498960D03*
%TD*%
%TO.C,D0_7*%
X46600000Y-36698440D03*
X48000000Y-36698440D03*
X48000000Y-37498440D03*
X46600000Y-37498440D03*
%TD*%
%TO.C,D12_3*%
X82593832Y-24699480D03*
X83993832Y-24699480D03*
X83993832Y-25499480D03*
X82593832Y-25499480D03*
%TD*%
D20*
%TO.C,Y1*%
X85450000Y-48325000D03*
X85450000Y-49725000D03*
X86550000Y-49725000D03*
X86550000Y-48325000D03*
%TD*%
D10*
%TO.C,D14_6*%
X88592804Y-33698700D03*
X89992804Y-33698700D03*
X89992804Y-34498700D03*
X88592804Y-34498700D03*
%TD*%
D21*
%TO.C,C3*%
X90005000Y-50875000D03*
X89045000Y-50875000D03*
%TD*%
D10*
%TO.C,D14_5*%
X88592804Y-30698960D03*
X89992804Y-30698960D03*
X89992804Y-31498960D03*
X88592804Y-31498960D03*
%TD*%
%TO.C,D16_7*%
X94591776Y-36698440D03*
X95991776Y-36698440D03*
X95991776Y-37498440D03*
X94591776Y-37498440D03*
%TD*%
%TO.C,D23_4*%
X115588178Y-27699220D03*
X116988178Y-27699220D03*
X116988178Y-28499220D03*
X115588178Y-28499220D03*
%TD*%
%TO.C,D21_5*%
X109589206Y-30698960D03*
X110989206Y-30698960D03*
X110989206Y-31498960D03*
X109589206Y-31498960D03*
%TD*%
%TO.C,D7_7*%
X67596402Y-36698440D03*
X68996402Y-36698440D03*
X68996402Y-37498440D03*
X67596402Y-37498440D03*
%TD*%
%TO.C,D5_4*%
X61597430Y-27699220D03*
X62997430Y-27699220D03*
X62997430Y-28499220D03*
X61597430Y-28499220D03*
%TD*%
%TO.C,D16_3*%
X94591776Y-24699480D03*
X95991776Y-24699480D03*
X95991776Y-25499480D03*
X94591776Y-25499480D03*
%TD*%
%TO.C,D28_8*%
X130585608Y-39698180D03*
X131985608Y-39698180D03*
X131985608Y-40498180D03*
X130585608Y-40498180D03*
%TD*%
%TO.C,D2_2*%
X52598972Y-21699740D03*
X53998972Y-21699740D03*
X53998972Y-22499740D03*
X52598972Y-22499740D03*
%TD*%
%TO.C,D19_7*%
X103590234Y-36698440D03*
X104990234Y-36698440D03*
X104990234Y-37498440D03*
X103590234Y-37498440D03*
%TD*%
%TO.C,D17_8*%
X97591262Y-39698180D03*
X98991262Y-39698180D03*
X98991262Y-40498180D03*
X97591262Y-40498180D03*
%TD*%
D11*
%TO.C,RU5*%
X76507500Y-48100000D03*
X77142500Y-48100000D03*
X77777500Y-48100000D03*
X78412500Y-48100000D03*
X79047500Y-48100000D03*
X79682500Y-48100000D03*
X80317500Y-48100000D03*
X80952500Y-48100000D03*
X81587500Y-48100000D03*
X82222500Y-48100000D03*
X82857500Y-48100000D03*
X83492500Y-48100000D03*
X83492500Y-42900000D03*
X82857500Y-42900000D03*
X82222500Y-42900000D03*
X81587500Y-42900000D03*
X80952500Y-42900000D03*
X80317500Y-42900000D03*
X79682500Y-42900000D03*
X79047500Y-42900000D03*
X78412500Y-42900000D03*
X77777500Y-42900000D03*
X77142500Y-42900000D03*
X76507500Y-42900000D03*
%TD*%
D10*
%TO.C,D5_7*%
X61597430Y-36698440D03*
X62997430Y-36698440D03*
X62997430Y-37498440D03*
X61597430Y-37498440D03*
%TD*%
%TO.C,D23_2*%
X115588178Y-21699740D03*
X116988178Y-21699740D03*
X116988178Y-22499740D03*
X115588178Y-22499740D03*
%TD*%
%TO.C,D0_4*%
X46600000Y-27699220D03*
X48000000Y-27699220D03*
X48000000Y-28499220D03*
X46600000Y-28499220D03*
%TD*%
%TO.C,D15_3*%
X91592290Y-24699480D03*
X92992290Y-24699480D03*
X92992290Y-25499480D03*
X91592290Y-25499480D03*
%TD*%
D15*
%TO.C,R10*%
X112650000Y-46340000D03*
X112650000Y-47360000D03*
%TD*%
D10*
%TO.C,D10_4*%
X76594860Y-27699220D03*
X77994860Y-27699220D03*
X77994860Y-28499220D03*
X76594860Y-28499220D03*
%TD*%
%TO.C,D14_8*%
X88592804Y-39698180D03*
X89992804Y-39698180D03*
X89992804Y-40498180D03*
X88592804Y-40498180D03*
%TD*%
%TO.C,D24_5*%
X118587664Y-30698960D03*
X119987664Y-30698960D03*
X119987664Y-31498960D03*
X118587664Y-31498960D03*
%TD*%
%TO.C,D26_1*%
X124584949Y-18700000D03*
X125984949Y-18700000D03*
X125984949Y-19500000D03*
X124584949Y-19500000D03*
%TD*%
%TO.C,D2_3*%
X52598972Y-24699480D03*
X53998972Y-24699480D03*
X53998972Y-25499480D03*
X52598972Y-25499480D03*
%TD*%
D15*
%TO.C,R3*%
X59250000Y-46440000D03*
X59250000Y-47460000D03*
%TD*%
D10*
%TO.C,D31_2*%
X139584066Y-21699740D03*
X140984066Y-21699740D03*
X140984066Y-22499740D03*
X139584066Y-22499740D03*
%TD*%
%TO.C,D11_7*%
X79594346Y-36698440D03*
X80994346Y-36698440D03*
X80994346Y-37498440D03*
X79594346Y-37498440D03*
%TD*%
%TO.C,D29_7*%
X133585094Y-36698440D03*
X134985094Y-36698440D03*
X134985094Y-37498440D03*
X133585094Y-37498440D03*
%TD*%
%TO.C,D18_5*%
X100590748Y-30698960D03*
X101990748Y-30698960D03*
X101990748Y-31498960D03*
X100590748Y-31498960D03*
%TD*%
%TO.C,D27_8*%
X127586122Y-39698180D03*
X128986122Y-39698180D03*
X128986122Y-40498180D03*
X127586122Y-40498180D03*
%TD*%
%TO.C,D0_5*%
X46600000Y-30698960D03*
X48000000Y-30698960D03*
X48000000Y-31498960D03*
X46600000Y-31498960D03*
%TD*%
%TO.C,D19_6*%
X103590234Y-33698700D03*
X104990234Y-33698700D03*
X104990234Y-34498700D03*
X103590234Y-34498700D03*
%TD*%
D16*
%TO.C,TP9*%
X114000000Y-46800000D03*
%TD*%
D10*
%TO.C,D13_8*%
X85593318Y-39698180D03*
X86993318Y-39698180D03*
X86993318Y-40498180D03*
X85593318Y-40498180D03*
%TD*%
%TO.C,D5_3*%
X61597430Y-24699480D03*
X62997430Y-24699480D03*
X62997430Y-25499480D03*
X61597430Y-25499480D03*
%TD*%
%TO.C,D22_1*%
X112587005Y-18700000D03*
X113987005Y-18700000D03*
X113987005Y-19500000D03*
X112587005Y-19500000D03*
%TD*%
%TO.C,D14_2*%
X88592804Y-21699740D03*
X89992804Y-21699740D03*
X89992804Y-22499740D03*
X88592804Y-22499740D03*
%TD*%
%TO.C,D1_2*%
X49599486Y-21699740D03*
X50999486Y-21699740D03*
X50999486Y-22499740D03*
X49599486Y-22499740D03*
%TD*%
D19*
%TO.C,R7*%
X137660000Y-50350000D03*
X136640000Y-50350000D03*
%TD*%
D10*
%TO.C,D22_4*%
X112587005Y-27699220D03*
X113987005Y-27699220D03*
X113987005Y-28499220D03*
X112587005Y-28499220D03*
%TD*%
%TO.C,D24_2*%
X118587664Y-21699740D03*
X119987664Y-21699740D03*
X119987664Y-22499740D03*
X118587664Y-22499740D03*
%TD*%
%TO.C,D20_6*%
X106589720Y-33698700D03*
X107989720Y-33698700D03*
X107989720Y-34498700D03*
X106589720Y-34498700D03*
%TD*%
%TO.C,D19_1*%
X103590234Y-18700000D03*
X104990234Y-18700000D03*
X104990234Y-19500000D03*
X103590234Y-19500000D03*
%TD*%
%TO.C,D25_8*%
X121587150Y-39698180D03*
X122987150Y-39698180D03*
X122987150Y-40498180D03*
X121587150Y-40498180D03*
%TD*%
%TO.C,D15_1*%
X91592290Y-18700000D03*
X92992290Y-18700000D03*
X92992290Y-19500000D03*
X91592290Y-19500000D03*
%TD*%
%TO.C,D26_6*%
X124584949Y-33698700D03*
X125984949Y-33698700D03*
X125984949Y-34498700D03*
X124584949Y-34498700D03*
%TD*%
%TO.C,D21_2*%
X109589206Y-21699740D03*
X110989206Y-21699740D03*
X110989206Y-22499740D03*
X109589206Y-22499740D03*
%TD*%
%TO.C,D23_3*%
X115588178Y-24699480D03*
X116988178Y-24699480D03*
X116988178Y-25499480D03*
X115588178Y-25499480D03*
%TD*%
%TO.C,D22_3*%
X112587005Y-24699480D03*
X113987005Y-24699480D03*
X113987005Y-25499480D03*
X112587005Y-25499480D03*
%TD*%
%TO.C,D1_3*%
X49599486Y-24699480D03*
X50999486Y-24699480D03*
X50999486Y-25499480D03*
X49599486Y-25499480D03*
%TD*%
%TO.C,D28_1*%
X130585608Y-18700000D03*
X131985608Y-18700000D03*
X131985608Y-19500000D03*
X130585608Y-19500000D03*
%TD*%
%TO.C,D14_4*%
X88592804Y-27699220D03*
X89992804Y-27699220D03*
X89992804Y-28499220D03*
X88592804Y-28499220D03*
%TD*%
%TO.C,D12_7*%
X82593832Y-36698440D03*
X83993832Y-36698440D03*
X83993832Y-37498440D03*
X82593832Y-37498440D03*
%TD*%
%TO.C,D20_1*%
X106589720Y-18700000D03*
X107989720Y-18700000D03*
X107989720Y-19500000D03*
X106589720Y-19500000D03*
%TD*%
%TO.C,D27_5*%
X127586122Y-30698960D03*
X128986122Y-30698960D03*
X128986122Y-31498960D03*
X127586122Y-31498960D03*
%TD*%
D14*
%TO.C,Q1*%
X48450000Y-43062500D03*
X46550000Y-43062500D03*
X47500000Y-44937500D03*
%TD*%
D10*
%TO.C,D14_3*%
X88592804Y-24699480D03*
X89992804Y-24699480D03*
X89992804Y-25499480D03*
X88592804Y-25499480D03*
%TD*%
D14*
%TO.C,Q4*%
X114950000Y-43100000D03*
X113050000Y-43100000D03*
X114000000Y-44975000D03*
%TD*%
D10*
%TO.C,D6_8*%
X64596916Y-39698180D03*
X65996916Y-39698180D03*
X65996916Y-40498180D03*
X64596916Y-40498180D03*
%TD*%
%TO.C,D23_1*%
X115588178Y-18700000D03*
X116988178Y-18700000D03*
X116988178Y-19500000D03*
X115588178Y-19500000D03*
%TD*%
%TO.C,D10_1*%
X76594860Y-18700000D03*
X77994860Y-18700000D03*
X77994860Y-19500000D03*
X76594860Y-19500000D03*
%TD*%
%TO.C,D19_4*%
X103590234Y-27699220D03*
X104990234Y-27699220D03*
X104990234Y-28499220D03*
X103590234Y-28499220D03*
%TD*%
%TO.C,D1_6*%
X49599486Y-33698700D03*
X50999486Y-33698700D03*
X50999486Y-34498700D03*
X49599486Y-34498700D03*
%TD*%
%TO.C,D3_3*%
X55598458Y-24699480D03*
X56998458Y-24699480D03*
X56998458Y-25499480D03*
X55598458Y-25499480D03*
%TD*%
%TO.C,D5_2*%
X61597430Y-21699740D03*
X62997430Y-21699740D03*
X62997430Y-22499740D03*
X61597430Y-22499740D03*
%TD*%
%TO.C,D30_6*%
X136584580Y-33698700D03*
X137984580Y-33698700D03*
X137984580Y-34498700D03*
X136584580Y-34498700D03*
%TD*%
%TO.C,D15_5*%
X91592290Y-30698960D03*
X92992290Y-30698960D03*
X92992290Y-31498960D03*
X91592290Y-31498960D03*
%TD*%
%TO.C,D28_3*%
X130585608Y-24699480D03*
X131985608Y-24699480D03*
X131985608Y-25499480D03*
X130585608Y-25499480D03*
%TD*%
%TO.C,D7_2*%
X67596402Y-21699740D03*
X68996402Y-21699740D03*
X68996402Y-22499740D03*
X67596402Y-22499740D03*
%TD*%
%TO.C,D10_6*%
X76594860Y-33698700D03*
X77994860Y-33698700D03*
X77994860Y-34498700D03*
X76594860Y-34498700D03*
%TD*%
D15*
%TO.C,R5*%
X72300000Y-46440000D03*
X72300000Y-47460000D03*
%TD*%
D10*
%TO.C,D18_6*%
X100590748Y-33698700D03*
X101990748Y-33698700D03*
X101990748Y-34498700D03*
X100590748Y-34498700D03*
%TD*%
%TO.C,D11_1*%
X79594346Y-18700000D03*
X80994346Y-18700000D03*
X80994346Y-19500000D03*
X79594346Y-19500000D03*
%TD*%
%TO.C,D21_1*%
X109589206Y-18700000D03*
X110989206Y-18700000D03*
X110989206Y-19500000D03*
X109589206Y-19500000D03*
%TD*%
%TO.C,D1_7*%
X49599486Y-36698440D03*
X50999486Y-36698440D03*
X50999486Y-37498440D03*
X49599486Y-37498440D03*
%TD*%
%TO.C,D27_1*%
X127586122Y-18700000D03*
X128986122Y-18700000D03*
X128986122Y-19500000D03*
X127586122Y-19500000D03*
%TD*%
%TO.C,D24_6*%
X118587664Y-33698700D03*
X119987664Y-33698700D03*
X119987664Y-34498700D03*
X118587664Y-34498700D03*
%TD*%
%TO.C,D9_8*%
X73595374Y-39698180D03*
X74995374Y-39698180D03*
X74995374Y-40498180D03*
X73595374Y-40498180D03*
%TD*%
%TO.C,D8_1*%
X70595888Y-18700000D03*
X71995888Y-18700000D03*
X71995888Y-19500000D03*
X70595888Y-19500000D03*
%TD*%
%TO.C,D25_5*%
X121587150Y-30698960D03*
X122987150Y-30698960D03*
X122987150Y-31498960D03*
X121587150Y-31498960D03*
%TD*%
%TO.C,D12_6*%
X82593832Y-33698700D03*
X83993832Y-33698700D03*
X83993832Y-34498700D03*
X82593832Y-34498700D03*
%TD*%
%TO.C,D0_8*%
X46600000Y-39698180D03*
X48000000Y-39698180D03*
X48000000Y-40498180D03*
X46600000Y-40498180D03*
%TD*%
%TO.C,D16_4*%
X94591776Y-27699220D03*
X95991776Y-27699220D03*
X95991776Y-28499220D03*
X94591776Y-28499220D03*
%TD*%
%TO.C,D19_5*%
X103590234Y-30698960D03*
X104990234Y-30698960D03*
X104990234Y-31498960D03*
X103590234Y-31498960D03*
%TD*%
%TO.C,D11_4*%
X79594346Y-27699220D03*
X80994346Y-27699220D03*
X80994346Y-28499220D03*
X79594346Y-28499220D03*
%TD*%
%TO.C,D9_6*%
X73595374Y-33698700D03*
X74995374Y-33698700D03*
X74995374Y-34498700D03*
X73595374Y-34498700D03*
%TD*%
%TO.C,D29_6*%
X133585094Y-33698700D03*
X134985094Y-33698700D03*
X134985094Y-34498700D03*
X133585094Y-34498700D03*
%TD*%
D11*
%TO.C,RU3*%
X63507500Y-48100000D03*
X64142500Y-48100000D03*
X64777500Y-48100000D03*
X65412500Y-48100000D03*
X66047500Y-48100000D03*
X66682500Y-48100000D03*
X67317500Y-48100000D03*
X67952500Y-48100000D03*
X68587500Y-48100000D03*
X69222500Y-48100000D03*
X69857500Y-48100000D03*
X70492500Y-48100000D03*
X70492500Y-42900000D03*
X69857500Y-42900000D03*
X69222500Y-42900000D03*
X68587500Y-42900000D03*
X67952500Y-42900000D03*
X67317500Y-42900000D03*
X66682500Y-42900000D03*
X66047500Y-42900000D03*
X65412500Y-42900000D03*
X64777500Y-42900000D03*
X64142500Y-42900000D03*
X63507500Y-42900000D03*
%TD*%
D10*
%TO.C,D31_8*%
X139584066Y-39698180D03*
X140984066Y-39698180D03*
X140984066Y-40498180D03*
X139584066Y-40498180D03*
%TD*%
%TO.C,D3_4*%
X55598458Y-27699220D03*
X56998458Y-27699220D03*
X56998458Y-28499220D03*
X55598458Y-28499220D03*
%TD*%
%TO.C,D30_1*%
X136584580Y-18700000D03*
X137984580Y-18700000D03*
X137984580Y-19500000D03*
X136584580Y-19500000D03*
%TD*%
%TO.C,D31_5*%
X139584066Y-30698960D03*
X140984066Y-30698960D03*
X140984066Y-31498960D03*
X139584066Y-31498960D03*
%TD*%
D16*
%TO.C,TP28*%
X59750000Y-50650000D03*
%TD*%
D10*
%TO.C,D25_4*%
X121587150Y-27699220D03*
X122987150Y-27699220D03*
X122987150Y-28499220D03*
X121587150Y-28499220D03*
%TD*%
%TO.C,D11_8*%
X79594346Y-39698180D03*
X80994346Y-39698180D03*
X80994346Y-40498180D03*
X79594346Y-40498180D03*
%TD*%
%TO.C,D26_2*%
X124584949Y-21699740D03*
X125984949Y-21699740D03*
X125984949Y-22499740D03*
X124584949Y-22499740D03*
%TD*%
%TO.C,D27_6*%
X127586122Y-33698700D03*
X128986122Y-33698700D03*
X128986122Y-34498700D03*
X127586122Y-34498700D03*
%TD*%
%TO.C,D31_6*%
X139584066Y-33698700D03*
X140984066Y-33698700D03*
X140984066Y-34498700D03*
X139584066Y-34498700D03*
%TD*%
%TO.C,D6_3*%
X64596916Y-24699480D03*
X65996916Y-24699480D03*
X65996916Y-25499480D03*
X64596916Y-25499480D03*
%TD*%
%TO.C,D8_3*%
X70595888Y-24699480D03*
X71995888Y-24699480D03*
X71995888Y-25499480D03*
X70595888Y-25499480D03*
%TD*%
D22*
%TO.C,Q8*%
X138850000Y-44237500D03*
X140750000Y-44237500D03*
X139800000Y-42362500D03*
%TD*%
D10*
%TO.C,D29_1*%
X133585094Y-18700000D03*
X134985094Y-18700000D03*
X134985094Y-19500000D03*
X133585094Y-19500000D03*
%TD*%
%TO.C,D4_2*%
X58597944Y-21699740D03*
X59997944Y-21699740D03*
X59997944Y-22499740D03*
X58597944Y-22499740D03*
%TD*%
%TO.C,D28_2*%
X130585608Y-21699740D03*
X131985608Y-21699740D03*
X131985608Y-22499740D03*
X130585608Y-22499740D03*
%TD*%
%TO.C,D1_4*%
X49599486Y-27699220D03*
X50999486Y-27699220D03*
X50999486Y-28499220D03*
X49599486Y-28499220D03*
%TD*%
%TO.C,D19_8*%
X103590234Y-39698180D03*
X104990234Y-39698180D03*
X104990234Y-40498180D03*
X103590234Y-40498180D03*
%TD*%
%TO.C,D12_5*%
X82593832Y-30698960D03*
X83993832Y-30698960D03*
X83993832Y-31498960D03*
X82593832Y-31498960D03*
%TD*%
%TO.C,D13_1*%
X85593318Y-18700000D03*
X86993318Y-18700000D03*
X86993318Y-19500000D03*
X85593318Y-19500000D03*
%TD*%
%TO.C,D17_1*%
X97591262Y-18700000D03*
X98991262Y-18700000D03*
X98991262Y-19500000D03*
X97591262Y-19500000D03*
%TD*%
D15*
%TO.C,R14*%
X128200000Y-46440000D03*
X128200000Y-47460000D03*
%TD*%
D10*
%TO.C,D26_3*%
X124584949Y-24699480D03*
X125984949Y-24699480D03*
X125984949Y-25499480D03*
X124584949Y-25499480D03*
%TD*%
%TO.C,D8_5*%
X70595888Y-30698960D03*
X71995888Y-30698960D03*
X71995888Y-31498960D03*
X70595888Y-31498960D03*
%TD*%
%TO.C,D30_2*%
X136584580Y-21699740D03*
X137984580Y-21699740D03*
X137984580Y-22499740D03*
X136584580Y-22499740D03*
%TD*%
%TO.C,D30_3*%
X136584580Y-24699480D03*
X137984580Y-24699480D03*
X137984580Y-25499480D03*
X136584580Y-25499480D03*
%TD*%
D17*
%TO.C,R12*%
X127000000Y-47660000D03*
X127000000Y-46640000D03*
%TD*%
D10*
%TO.C,D9_3*%
X73595374Y-24699480D03*
X74995374Y-24699480D03*
X74995374Y-25499480D03*
X73595374Y-25499480D03*
%TD*%
%TO.C,D19_3*%
X103590234Y-24699480D03*
X104990234Y-24699480D03*
X104990234Y-25499480D03*
X103590234Y-25499480D03*
%TD*%
%TO.C,D8_7*%
X70595888Y-36698440D03*
X71995888Y-36698440D03*
X71995888Y-37498440D03*
X70595888Y-37498440D03*
%TD*%
%TO.C,D12_1*%
X82593832Y-18700000D03*
X83993832Y-18700000D03*
X83993832Y-19500000D03*
X82593832Y-19500000D03*
%TD*%
%TO.C,D26_7*%
X124584949Y-36698440D03*
X125984949Y-36698440D03*
X125984949Y-37498440D03*
X124584949Y-37498440D03*
%TD*%
%TO.C,D9_4*%
X73595374Y-27699220D03*
X74995374Y-27699220D03*
X74995374Y-28499220D03*
X73595374Y-28499220D03*
%TD*%
%TO.C,D6_4*%
X64596916Y-27699220D03*
X65996916Y-27699220D03*
X65996916Y-28499220D03*
X64596916Y-28499220D03*
%TD*%
%TO.C,D4_7*%
X58597944Y-36698440D03*
X59997944Y-36698440D03*
X59997944Y-37498440D03*
X58597944Y-37498440D03*
%TD*%
%TO.C,D16_8*%
X94591776Y-39698180D03*
X95991776Y-39698180D03*
X95991776Y-40498180D03*
X94591776Y-40498180D03*
%TD*%
%TO.C,D11_2*%
X79594346Y-21699740D03*
X80994346Y-21699740D03*
X80994346Y-22499740D03*
X79594346Y-22499740D03*
%TD*%
%TO.C,D6_5*%
X64596916Y-30698960D03*
X65996916Y-30698960D03*
X65996916Y-31498960D03*
X64596916Y-31498960D03*
%TD*%
%TO.C,D16_5*%
X94591776Y-30698960D03*
X95991776Y-30698960D03*
X95991776Y-31498960D03*
X94591776Y-31498960D03*
%TD*%
%TO.C,D26_4*%
X124584949Y-27699220D03*
X125984949Y-27699220D03*
X125984949Y-28499220D03*
X124584949Y-28499220D03*
%TD*%
%TO.C,D8_6*%
X70595888Y-33698700D03*
X71995888Y-33698700D03*
X71995888Y-34498700D03*
X70595888Y-34498700D03*
%TD*%
D23*
%TO.C,U2*%
X85750000Y-44550000D03*
X87650000Y-44550000D03*
X86700000Y-42275000D03*
%TD*%
D10*
%TO.C,D7_1*%
X67596402Y-18700000D03*
X68996402Y-18700000D03*
X68996402Y-19500000D03*
X67596402Y-19500000D03*
%TD*%
%TO.C,D22_8*%
X112587005Y-39698180D03*
X113987005Y-39698180D03*
X113987005Y-40498180D03*
X112587005Y-40498180D03*
%TD*%
%TO.C,D6_6*%
X64596916Y-33698700D03*
X65996916Y-33698700D03*
X65996916Y-34498700D03*
X64596916Y-34498700D03*
%TD*%
%TO.C,D28_7*%
X130585608Y-36698440D03*
X131985608Y-36698440D03*
X131985608Y-37498440D03*
X130585608Y-37498440D03*
%TD*%
%TO.C,D15_8*%
X91592290Y-39698180D03*
X92992290Y-39698180D03*
X92992290Y-40498180D03*
X91592290Y-40498180D03*
%TD*%
%TO.C,D3_2*%
X55598458Y-21699740D03*
X56998458Y-21699740D03*
X56998458Y-22499740D03*
X55598458Y-22499740D03*
%TD*%
%TO.C,D6_1*%
X64596916Y-18700000D03*
X65996916Y-18700000D03*
X65996916Y-19500000D03*
X64596916Y-19500000D03*
%TD*%
%TO.C,D16_1*%
X94591776Y-18700000D03*
X95991776Y-18700000D03*
X95991776Y-19500000D03*
X94591776Y-19500000D03*
%TD*%
%TO.C,D4_6*%
X58597944Y-33698700D03*
X59997944Y-33698700D03*
X59997944Y-34498700D03*
X58597944Y-34498700D03*
%TD*%
%TO.C,D15_6*%
X91592290Y-33698700D03*
X92992290Y-33698700D03*
X92992290Y-34498700D03*
X91592290Y-34498700D03*
%TD*%
D16*
%TO.C,TP31*%
X62100000Y-50700000D03*
%TD*%
D15*
%TO.C,R16*%
X99450000Y-47890000D03*
X99450000Y-48910000D03*
%TD*%
D10*
%TO.C,D29_8*%
X133585094Y-39698180D03*
X134985094Y-39698180D03*
X134985094Y-40498180D03*
X133585094Y-40498180D03*
%TD*%
%TO.C,D12_4*%
X82593832Y-27699220D03*
X83993832Y-27699220D03*
X83993832Y-28499220D03*
X82593832Y-28499220D03*
%TD*%
D14*
%TO.C,Q7*%
X140750000Y-46212500D03*
X138850000Y-46212500D03*
X139800000Y-48087500D03*
%TD*%
D18*
%TO.C,C7*%
X85470000Y-47150000D03*
X86430000Y-47150000D03*
%TD*%
D10*
%TO.C,D20_3*%
X106589720Y-24699480D03*
X107989720Y-24699480D03*
X107989720Y-25499480D03*
X106589720Y-25499480D03*
%TD*%
D15*
%TO.C,R17*%
X102350000Y-46840000D03*
X102350000Y-47860000D03*
%TD*%
D10*
%TO.C,D1_8*%
X49599486Y-39698180D03*
X50999486Y-39698180D03*
X50999486Y-40498180D03*
X49599486Y-40498180D03*
%TD*%
%TO.C,D19_2*%
X103590234Y-21699740D03*
X104990234Y-21699740D03*
X104990234Y-22499740D03*
X103590234Y-22499740D03*
%TD*%
%TO.C,D4_1*%
X58597944Y-18700000D03*
X59997944Y-18700000D03*
X59997944Y-19500000D03*
X58597944Y-19500000D03*
%TD*%
D24*
%TO.C,C10*%
X138600000Y-49370000D03*
X138600000Y-50330000D03*
%TD*%
D10*
%TO.C,D10_7*%
X76594860Y-36698440D03*
X77994860Y-36698440D03*
X77994860Y-37498440D03*
X76594860Y-37498440D03*
%TD*%
%TO.C,D8_8*%
X70595888Y-39698180D03*
X71995888Y-39698180D03*
X71995888Y-40498180D03*
X70595888Y-40498180D03*
%TD*%
D16*
%TO.C,TP15*%
X49250000Y-49000000D03*
%TD*%
D10*
%TO.C,D21_6*%
X109589206Y-33698700D03*
X110989206Y-33698700D03*
X110989206Y-34498700D03*
X109589206Y-34498700D03*
%TD*%
%TO.C,D9_2*%
X73595374Y-21699740D03*
X74995374Y-21699740D03*
X74995374Y-22499740D03*
X73595374Y-22499740D03*
%TD*%
D14*
%TO.C,Q6*%
X127850000Y-43100000D03*
X125950000Y-43100000D03*
X126900000Y-44975000D03*
%TD*%
D16*
%TO.C,TP6*%
X60525000Y-48225000D03*
%TD*%
D10*
%TO.C,D14_1*%
X88592804Y-18700000D03*
X89992804Y-18700000D03*
X89992804Y-19500000D03*
X88592804Y-19500000D03*
%TD*%
%TO.C,D31_1*%
X139584066Y-18700000D03*
X140984066Y-18700000D03*
X140984066Y-19500000D03*
X139584066Y-19500000D03*
%TD*%
%TO.C,D29_5*%
X133585094Y-30698960D03*
X134985094Y-30698960D03*
X134985094Y-31498960D03*
X133585094Y-31498960D03*
%TD*%
%TO.C,D16_6*%
X94591776Y-33698700D03*
X95991776Y-33698700D03*
X95991776Y-34498700D03*
X94591776Y-34498700D03*
%TD*%
%TO.C,D13_3*%
X85593318Y-24699480D03*
X86993318Y-24699480D03*
X86993318Y-25499480D03*
X85593318Y-25499480D03*
%TD*%
%TO.C,D15_2*%
X91592290Y-21699740D03*
X92992290Y-21699740D03*
X92992290Y-22499740D03*
X91592290Y-22499740D03*
%TD*%
%TO.C,D21_7*%
X109589206Y-36698440D03*
X110989206Y-36698440D03*
X110989206Y-37498440D03*
X109589206Y-37498440D03*
%TD*%
%TO.C,D24_8*%
X118587664Y-39698180D03*
X119987664Y-39698180D03*
X119987664Y-40498180D03*
X118587664Y-40498180D03*
%TD*%
%TO.C,D9_1*%
X73595374Y-18700000D03*
X74995374Y-18700000D03*
X74995374Y-19500000D03*
X73595374Y-19500000D03*
%TD*%
%TO.C,D16_2*%
X94591776Y-21699740D03*
X95991776Y-21699740D03*
X95991776Y-22499740D03*
X94591776Y-22499740D03*
%TD*%
D15*
%TO.C,R6*%
X125700000Y-46440000D03*
X125700000Y-47460000D03*
%TD*%
D10*
%TO.C,D3_8*%
X55598458Y-39698180D03*
X56998458Y-39698180D03*
X56998458Y-40498180D03*
X55598458Y-40498180D03*
%TD*%
%TO.C,D5_1*%
X61597430Y-18700000D03*
X62997430Y-18700000D03*
X62997430Y-19500000D03*
X61597430Y-19500000D03*
%TD*%
%TO.C,D28_4*%
X130585608Y-27699220D03*
X131985608Y-27699220D03*
X131985608Y-28499220D03*
X130585608Y-28499220D03*
%TD*%
%TO.C,D3_1*%
X55598458Y-18700000D03*
X56998458Y-18700000D03*
X56998458Y-19500000D03*
X55598458Y-19500000D03*
%TD*%
%TO.C,D20_5*%
X106589720Y-30698960D03*
X107989720Y-30698960D03*
X107989720Y-31498960D03*
X106589720Y-31498960D03*
%TD*%
%TO.C,D11_5*%
X79594346Y-30698960D03*
X80994346Y-30698960D03*
X80994346Y-31498960D03*
X79594346Y-31498960D03*
%TD*%
%TO.C,D18_1*%
X100590748Y-18700000D03*
X101990748Y-18700000D03*
X101990748Y-19500000D03*
X100590748Y-19500000D03*
%TD*%
D16*
%TO.C,TP12*%
X53925000Y-50625000D03*
%TD*%
D10*
%TO.C,D1_5*%
X49599486Y-30698960D03*
X50999486Y-30698960D03*
X50999486Y-31498960D03*
X49599486Y-31498960D03*
%TD*%
%TO.C,D26_8*%
X124584949Y-39698180D03*
X125984949Y-39698180D03*
X125984949Y-40498180D03*
X124584949Y-40498180D03*
%TD*%
%TO.C,D29_3*%
X133585094Y-24699480D03*
X134985094Y-24699480D03*
X134985094Y-25499480D03*
X133585094Y-25499480D03*
%TD*%
%TO.C,D18_4*%
X100590748Y-27699220D03*
X101990748Y-27699220D03*
X101990748Y-28499220D03*
X100590748Y-28499220D03*
%TD*%
%TO.C,D25_1*%
X121587150Y-18700000D03*
X122987150Y-18700000D03*
X122987150Y-19500000D03*
X121587150Y-19500000D03*
%TD*%
D24*
%TO.C,C1*%
X88000000Y-45970000D03*
X88000000Y-46930000D03*
%TD*%
D10*
%TO.C,D15_4*%
X91592290Y-27699220D03*
X92992290Y-27699220D03*
X92992290Y-28499220D03*
X91592290Y-28499220D03*
%TD*%
%TO.C,D7_6*%
X67596402Y-33698700D03*
X68996402Y-33698700D03*
X68996402Y-34498700D03*
X67596402Y-34498700D03*
%TD*%
%TO.C,D10_8*%
X76594860Y-39698180D03*
X77994860Y-39698180D03*
X77994860Y-40498180D03*
X76594860Y-40498180D03*
%TD*%
%TO.C,D9_5*%
X73595374Y-30698960D03*
X74995374Y-30698960D03*
X74995374Y-31498960D03*
X73595374Y-31498960D03*
%TD*%
D16*
%TO.C,TP29*%
X56350000Y-50550000D03*
%TD*%
D10*
%TO.C,D10_2*%
X76594860Y-21699740D03*
X77994860Y-21699740D03*
X77994860Y-22499740D03*
X76594860Y-22499740D03*
%TD*%
%TO.C,D22_6*%
X112587005Y-33698700D03*
X113987005Y-33698700D03*
X113987005Y-34498700D03*
X112587005Y-34498700D03*
%TD*%
D19*
%TO.C,R9*%
X48760000Y-47750000D03*
X47740000Y-47750000D03*
%TD*%
D10*
%TO.C,D27_7*%
X127586122Y-36698440D03*
X128986122Y-36698440D03*
X128986122Y-37498440D03*
X127586122Y-37498440D03*
%TD*%
D15*
%TO.C,R4*%
X115350000Y-46340000D03*
X115350000Y-47360000D03*
%TD*%
D10*
%TO.C,D21_8*%
X109589206Y-39698180D03*
X110989206Y-39698180D03*
X110989206Y-40498180D03*
X109589206Y-40498180D03*
%TD*%
%TO.C,D4_4*%
X58597944Y-27699220D03*
X59997944Y-27699220D03*
X59997944Y-28499220D03*
X58597944Y-28499220D03*
%TD*%
%TO.C,D7_3*%
X67596402Y-24699480D03*
X68996402Y-24699480D03*
X68996402Y-25499480D03*
X67596402Y-25499480D03*
%TD*%
%TO.C,D4_5*%
X58597944Y-30698960D03*
X59997944Y-30698960D03*
X59997944Y-31498960D03*
X58597944Y-31498960D03*
%TD*%
%TO.C,D11_6*%
X79594346Y-33698700D03*
X80994346Y-33698700D03*
X80994346Y-34498700D03*
X79594346Y-34498700D03*
%TD*%
%TO.C,D18_8*%
X100590748Y-39698180D03*
X101990748Y-39698180D03*
X101990748Y-40498180D03*
X100590748Y-40498180D03*
%TD*%
%TO.C,D15_7*%
X91592290Y-36698440D03*
X92992290Y-36698440D03*
X92992290Y-37498440D03*
X91592290Y-37498440D03*
%TD*%
%TO.C,D2_7*%
X52598972Y-36698440D03*
X53998972Y-36698440D03*
X53998972Y-37498440D03*
X52598972Y-37498440D03*
%TD*%
%TO.C,D28_6*%
X130585608Y-33698700D03*
X131985608Y-33698700D03*
X131985608Y-34498700D03*
X130585608Y-34498700D03*
%TD*%
%TO.C,D0_2*%
X46600000Y-21699740D03*
X48000000Y-21699740D03*
X48000000Y-22499740D03*
X46600000Y-22499740D03*
%TD*%
%TO.C,D26_5*%
X124584949Y-30698960D03*
X125984949Y-30698960D03*
X125984949Y-31498960D03*
X124584949Y-31498960D03*
%TD*%
%TO.C,D27_2*%
X127586122Y-21699740D03*
X128986122Y-21699740D03*
X128986122Y-22499740D03*
X127586122Y-22499740D03*
%TD*%
%TO.C,D12_8*%
X82593832Y-39698180D03*
X83993832Y-39698180D03*
X83993832Y-40498180D03*
X82593832Y-40498180D03*
%TD*%
D25*
%TO.C,C8*%
X87800000Y-49380000D03*
X87800000Y-48420000D03*
%TD*%
D10*
%TO.C,D24_4*%
X118587664Y-27699220D03*
X119987664Y-27699220D03*
X119987664Y-28499220D03*
X118587664Y-28499220D03*
%TD*%
%TO.C,D6_2*%
X64596916Y-21699740D03*
X65996916Y-21699740D03*
X65996916Y-22499740D03*
X64596916Y-22499740D03*
%TD*%
%TO.C,D17_4*%
X97591262Y-27699220D03*
X98991262Y-27699220D03*
X98991262Y-28499220D03*
X97591262Y-28499220D03*
%TD*%
%TO.C,D0_6*%
X46600000Y-33698700D03*
X48000000Y-33698700D03*
X48000000Y-34498700D03*
X46600000Y-34498700D03*
%TD*%
%TO.C,D10_3*%
X76594860Y-24699480D03*
X77994860Y-24699480D03*
X77994860Y-25499480D03*
X76594860Y-25499480D03*
%TD*%
D11*
%TO.C,RU4*%
X117007500Y-48037500D03*
X117642500Y-48037500D03*
X118277500Y-48037500D03*
X118912500Y-48037500D03*
X119547500Y-48037500D03*
X120182500Y-48037500D03*
X120817500Y-48037500D03*
X121452500Y-48037500D03*
X122087500Y-48037500D03*
X122722500Y-48037500D03*
X123357500Y-48037500D03*
X123992500Y-48037500D03*
X123992500Y-42837500D03*
X123357500Y-42837500D03*
X122722500Y-42837500D03*
X122087500Y-42837500D03*
X121452500Y-42837500D03*
X120817500Y-42837500D03*
X120182500Y-42837500D03*
X119547500Y-42837500D03*
X118912500Y-42837500D03*
X118277500Y-42837500D03*
X117642500Y-42837500D03*
X117007500Y-42837500D03*
%TD*%
D10*
%TO.C,D25_3*%
X121587150Y-24699480D03*
X122987150Y-24699480D03*
X122987150Y-25499480D03*
X121587150Y-25499480D03*
%TD*%
%TO.C,D29_2*%
X133585094Y-21699740D03*
X134985094Y-21699740D03*
X134985094Y-22499740D03*
X133585094Y-22499740D03*
%TD*%
%TO.C,D24_1*%
X118587664Y-18700000D03*
X119987664Y-18700000D03*
X119987664Y-19500000D03*
X118587664Y-19500000D03*
%TD*%
%TO.C,D13_7*%
X85593318Y-36698440D03*
X86993318Y-36698440D03*
X86993318Y-37498440D03*
X85593318Y-37498440D03*
%TD*%
%TO.C,D30_8*%
X136584580Y-39698180D03*
X137984580Y-39698180D03*
X137984580Y-40498180D03*
X136584580Y-40498180D03*
%TD*%
D18*
%TO.C,C5*%
X73270000Y-48350000D03*
X74230000Y-48350000D03*
%TD*%
D10*
%TO.C,D31_7*%
X139584066Y-36698440D03*
X140984066Y-36698440D03*
X140984066Y-37498440D03*
X139584066Y-37498440D03*
%TD*%
%TO.C,D12_2*%
X82593832Y-21699740D03*
X83993832Y-21699740D03*
X83993832Y-22499740D03*
X82593832Y-22499740D03*
%TD*%
D26*
%TO.C,R1*%
X47740000Y-46500000D03*
X48760000Y-46500000D03*
%TD*%
D10*
%TO.C,D23_8*%
X115588178Y-39698180D03*
X116988178Y-39698180D03*
X116988178Y-40498180D03*
X115588178Y-40498180D03*
%TD*%
%TO.C,D30_5*%
X136584580Y-30698960D03*
X137984580Y-30698960D03*
X137984580Y-31498960D03*
X136584580Y-31498960D03*
%TD*%
%TO.C,D2_8*%
X52598972Y-39698180D03*
X53998972Y-39698180D03*
X53998972Y-40498180D03*
X52598972Y-40498180D03*
%TD*%
%TO.C,D7_4*%
X67596402Y-27699220D03*
X68996402Y-27699220D03*
X68996402Y-28499220D03*
X67596402Y-28499220D03*
%TD*%
D27*
%TO.C,D1*%
X100500000Y-47900000D03*
X100500000Y-46500000D03*
X101300000Y-46500000D03*
X101300000Y-47900000D03*
%TD*%
D26*
%TO.C,R15*%
X100430000Y-48900000D03*
X101450000Y-48900000D03*
%TD*%
D10*
%TO.C,D6_7*%
X64596916Y-36698440D03*
X65996916Y-36698440D03*
X65996916Y-37498440D03*
X64596916Y-37498440D03*
%TD*%
%TO.C,D3_6*%
X55598458Y-33698700D03*
X56998458Y-33698700D03*
X56998458Y-34498700D03*
X55598458Y-34498700D03*
%TD*%
%TO.C,D17_3*%
X97591262Y-24699480D03*
X98991262Y-24699480D03*
X98991262Y-25499480D03*
X97591262Y-25499480D03*
%TD*%
%TO.C,D27_3*%
X127586122Y-24699480D03*
X128986122Y-24699480D03*
X128986122Y-25499480D03*
X127586122Y-25499480D03*
%TD*%
%TO.C,D27_4*%
X127586122Y-27699220D03*
X128986122Y-27699220D03*
X128986122Y-28499220D03*
X127586122Y-28499220D03*
%TD*%
D21*
%TO.C,C4*%
X86430000Y-46000000D03*
X85470000Y-46000000D03*
%TD*%
D16*
%TO.C,TP30*%
X64300000Y-50750000D03*
%TD*%
D10*
%TO.C,D2_1*%
X52598972Y-18700000D03*
X53998972Y-18700000D03*
X53998972Y-19500000D03*
X52598972Y-19500000D03*
%TD*%
%TO.C,D7_5*%
X67596402Y-30698960D03*
X68996402Y-30698960D03*
X68996402Y-31498960D03*
X67596402Y-31498960D03*
%TD*%
%TO.C,D21_4*%
X109589206Y-27699220D03*
X110989206Y-27699220D03*
X110989206Y-28499220D03*
X109589206Y-28499220D03*
%TD*%
%TO.C,D29_4*%
X133585094Y-27699220D03*
X134985094Y-27699220D03*
X134985094Y-28499220D03*
X133585094Y-28499220D03*
%TD*%
M02*
