M48
; DRILL file {KiCad 7.0.6} date wto, 18 lip 2023, 02:13:15
; FORMAT={-:-/ absolute / inch / decimal}
; #@! TF.CreationDate,2023-07-18T02:13:15+02:00
; #@! TF.GenerationSoftware,Kicad,Pcbnew,7.0.6
; #@! TF.FileFunction,Plated,1,2,PTH
FMAT,2
INCH
; #@! TA.AperFunction,Plated,PTH,ViaDrill
T1C0.0118
; #@! TA.AperFunction,Plated,PTH,ViaDrill
T2C0.0157
%
G90
G05
T1
X1.8209Y-1.6339
X1.8406Y-1.8248
X1.8925Y-0.8061
X1.8925Y-0.9242
X1.8925Y-1.0443
X1.8925Y-1.1624
X1.8925Y-1.2805
X1.8925Y-1.3967
X1.8925Y-1.5168
X1.8996Y-1.6476
X1.9219Y-0.7362
X1.9478Y-1.8151
X1.9508Y-1.624
X1.9646Y-0.8063
X1.9646Y-0.9244
X1.9646Y-1.0445
X1.9646Y-1.1626
X1.9646Y-1.2807
X1.9646Y-1.3968
X1.9646Y-1.5169
X1.9892Y-1.9409
X2.0106Y-0.8061
X2.0106Y-0.9242
X2.0106Y-1.0443
X2.0106Y-1.1624
X2.0106Y-1.2805
X2.0106Y-1.3967
X2.0106Y-1.5167
X2.0335Y-1.7431
X2.04Y-0.7362
X2.0443Y-1.6437
X2.064Y-1.8494
X2.0689Y-1.623
X2.0748Y-1.9616
X2.0827Y-0.8064
X2.0827Y-0.9245
X2.0827Y-1.0446
X2.0827Y-1.1627
X2.0827Y-1.2808
X2.0827Y-1.397
X2.0827Y-1.517
X2.0984Y-1.6437
X2.1051Y-1.8555
X2.1288Y-0.8062
X2.1288Y-0.9243
X2.1288Y-1.0444
X2.1288Y-1.1625
X2.1288Y-1.2806
X2.1288Y-1.3968
X2.1288Y-1.5169
X2.1535Y-1.6321
X2.1581Y-0.7362
X2.164Y-1.7396
X2.1848Y-1.8467
X2.2008Y-0.8064
X2.2008Y-0.9245
X2.2008Y-1.0446
X2.2008Y-1.1627
X2.2008Y-1.2808
X2.2008Y-1.3969
X2.2008Y-1.517
X2.2058Y-1.7514
X2.2226Y-1.7307
X2.2402Y-1.8307
X2.2419Y-1.642
X2.2469Y-0.8062
X2.2469Y-0.9243
X2.2469Y-1.0444
X2.2469Y-1.1625
X2.2469Y-1.2806
X2.2469Y-1.3968
X2.2469Y-1.5168
X2.25Y-1.7299
X2.2638Y-1.8504
X2.2762Y-0.7362
X2.2795Y-2.0177
X2.3053Y-2.0018
X2.3189Y-0.8063
X2.3189Y-0.9244
X2.3189Y-1.0445
X2.3189Y-1.1626
X2.3189Y-1.2807
X2.3189Y-1.3969
X2.3189Y-1.5169
X2.3425Y-1.7598
X2.365Y-0.8061
X2.365Y-0.9242
X2.365Y-1.0443
X2.365Y-1.1624
X2.365Y-1.2805
X2.365Y-1.3967
X2.365Y-1.5168
X2.378Y-1.6673
X2.3943Y-0.7362
X2.4042Y-1.6196
X2.4213Y-1.7402
X2.4358Y-1.6441
X2.437Y-0.8063
X2.437Y-0.9244
X2.437Y-1.0445
X2.437Y-1.1626
X2.437Y-1.2807
X2.437Y-1.3968
X2.437Y-1.5169
X2.4423Y-1.786
X2.4665Y-1.872
X2.4745Y-1.9804
X2.4831Y-0.8061
X2.4831Y-0.9242
X2.4831Y-1.0443
X2.4831Y-1.1624
X2.4831Y-1.2805
X2.4831Y-1.3967
X2.4831Y-1.5167
X2.5098Y-1.7362
X2.5124Y-0.7362
X2.5236Y-1.9882
X2.5332Y-1.6268
X2.5394Y-1.7618
X2.5551Y-0.8064
X2.5551Y-0.9245
X2.5551Y-1.0446
X2.5551Y-1.1627
X2.5551Y-1.2808
X2.5551Y-1.397
X2.5551Y-1.517
X2.5701Y-1.858
X2.5753Y-1.7293
X2.5931Y-1.6277
X2.6012Y-0.8062
X2.6012Y-0.9243
X2.6012Y-1.0444
X2.6012Y-1.1625
X2.6012Y-1.2806
X2.6012Y-1.3968
X2.6012Y-1.5169
X2.6178Y-1.6173
X2.6305Y-0.7362
X2.6358Y-1.8425
X2.6452Y-1.6407
X2.6632Y-1.621
X2.6732Y-0.8064
X2.6732Y-0.9245
X2.6732Y-1.0446
X2.6732Y-1.1627
X2.6732Y-1.2808
X2.6732Y-1.3969
X2.6732Y-1.517
X2.6849Y-1.6443
X2.7067Y-1.7795
X2.7193Y-0.8062
X2.7193Y-0.9243
X2.7193Y-1.0444
X2.7193Y-1.1625
X2.7193Y-1.2806
X2.7193Y-1.3968
X2.7193Y-1.5168
X2.7253Y-1.6496
X2.7402Y-1.7776
X2.7421Y-1.961
X2.7441Y-1.625
X2.7486Y-0.7362
X2.7736Y-1.7776
X2.7913Y-0.8066
X2.7913Y-0.9248
X2.7913Y-1.0448
X2.7913Y-1.1629
X2.7913Y-1.2811
X2.7913Y-1.3972
X2.7913Y-1.5173
X2.8071Y-1.8602
X2.8118Y-1.6403
X2.8374Y-0.8065
X2.8374Y-0.9246
X2.8374Y-1.0447
X2.8374Y-1.1628
X2.8374Y-1.2809
X2.8374Y-1.397
X2.8374Y-1.5171
X2.8386Y-1.9606
X2.8396Y-1.6274
X2.8543Y-1.7874
X2.8667Y-0.7362
X2.8917Y-1.872
X2.8942Y-1.6473
X2.9094Y-0.8066
X2.9094Y-0.9247
X2.9094Y-1.0448
X2.9094Y-1.1629
X2.9094Y-1.281
X2.9094Y-1.3972
X2.9094Y-1.5172
X2.9402Y-1.6506
X2.9402Y-1.6811
X2.9402Y-1.7772
X2.9555Y-0.8064
X2.9555Y-0.9245
X2.9555Y-1.0446
X2.9555Y-1.1627
X2.9555Y-1.2808
X2.9555Y-1.397
X2.9555Y-1.5171
X2.9646Y-1.9016
X2.9849Y-0.7362
X2.9872Y-1.5924
X3.014Y-1.7833
X3.0276Y-0.8067
X3.0276Y-0.9249
X3.0276Y-1.0449
X3.0276Y-1.163
X3.0276Y-1.2812
X3.0276Y-1.3973
X3.0276Y-1.5174
X3.0433Y-1.7323
X3.059Y-1.8529
X3.072Y-1.7323
X3.0736Y-0.8066
X3.0736Y-0.9247
X3.0736Y-1.0448
X3.0736Y-1.1629
X3.0736Y-1.281
X3.0736Y-1.3971
X3.0736Y-1.5172
X3.103Y-0.7362
X3.1061Y-1.6476
X3.1328Y-1.6465
X3.1364Y-1.7739
X3.1457Y-0.8067
X3.1457Y-0.9248
X3.1457Y-1.0449
X3.1457Y-1.163
X3.1457Y-1.2811
X3.1457Y-1.3973
X3.1457Y-1.5173
X3.1596Y-1.6467
X3.1606Y-1.5441
X3.1796Y-1.7425
X3.1863Y-1.6467
X3.1904Y-1.7723
X3.1918Y-0.8065
X3.1918Y-0.9246
X3.1918Y-1.0447
X3.1918Y-1.1628
X3.1918Y-1.2809
X3.1918Y-1.3971
X3.1918Y-1.5172
X3.2131Y-1.6464
X3.2211Y-0.7362
X3.2283Y-1.7539
X3.2398Y-1.6476
X3.2527Y-1.7867
X3.2597Y-1.6279
X3.2638Y-0.8066
X3.2638Y-0.9248
X3.2638Y-1.0448
X3.2638Y-1.1629
X3.2638Y-1.2811
X3.2638Y-1.3972
X3.2638Y-1.5173
X3.2795Y-1.6476
X3.2807Y-2.0203
X3.2914Y-1.7692
X3.3099Y-0.8065
X3.3099Y-0.9246
X3.3099Y-1.0447
X3.3099Y-1.1628
X3.3099Y-1.2809
X3.3099Y-1.397
X3.3099Y-1.5171
X3.3202Y-1.6336
X3.3228Y-1.9646
X3.3349Y-1.7581
X3.3392Y-0.7362
X3.3583Y-1.6496
X3.3819Y-0.8066
X3.3819Y-0.9247
X3.3819Y-1.0448
X3.3819Y-1.1629
X3.3819Y-1.281
X3.3819Y-1.3972
X3.3819Y-1.5172
X3.3976Y-2.0453
X3.4055Y-1.7776
X3.4207Y-1.7622
X3.4272Y-1.7362
X3.428Y-0.8064
X3.428Y-0.9245
X3.428Y-1.0446
X3.428Y-1.1627
X3.428Y-1.2808
X3.428Y-1.397
X3.428Y-1.5171
X3.4345Y-1.8258
X3.4429Y-1.6754
X3.4449Y-1.888
X3.4498Y-1.613
X3.4567Y-1.9722
X3.4573Y-0.7362
X3.4646Y-1.5906
X3.4705Y-1.6341
X3.4724Y-1.6754
X3.5Y-0.8067
X3.5Y-0.9249
X3.5Y-1.0449
X3.5Y-1.163
X3.5Y-1.2812
X3.5Y-1.3973
X3.5Y-1.5174
X3.512Y-1.9685
X3.5197Y-1.6996
X3.5248Y-1.6195
X3.5433Y-1.9705
X3.5461Y-0.8066
X3.5461Y-0.9247
X3.5461Y-1.0448
X3.5461Y-1.1629
X3.5461Y-1.281
X3.5461Y-1.3971
X3.5461Y-1.5172
X3.5724Y-1.8286
X3.573Y-1.8562
X3.5754Y-0.7362
X3.5781Y-1.5929
X3.5786Y-1.9281
X3.5807Y-1.8031
X3.5885Y-1.7285
X3.6094Y-1.6192
X3.6181Y-0.8067
X3.6181Y-0.9248
X3.6181Y-1.0449
X3.6181Y-1.163
X3.6181Y-1.2811
X3.6181Y-1.3973
X3.6181Y-1.5173
X3.622Y-2.0374
X3.6356Y-1.6138
X3.6398Y-1.9482
X3.6642Y-0.8065
X3.6642Y-0.9246
X3.6642Y-1.0447
X3.6642Y-1.1628
X3.6642Y-1.2809
X3.6642Y-1.3971
X3.6642Y-1.5172
X3.6732Y-1.6192
X3.6811Y-1.8504
X3.6859Y-1.5907
X3.6913Y-1.9221
X3.6935Y-0.7362
X3.7126Y-1.8583
X3.7133Y-1.6195
X3.724Y-1.9419
X3.7362Y-0.8063
X3.7362Y-0.9244
X3.7362Y-1.0445
X3.7362Y-1.1626
X3.7362Y-1.2807
X3.7362Y-1.3969
X3.7362Y-1.5169
X3.7404Y-2.0374
X3.7496Y-1.9497
X3.75Y-1.5463
X3.7767Y-1.7396
X3.7785Y-1.9209
X3.7823Y-0.8061
X3.7823Y-0.9242
X3.7823Y-1.0443
X3.7823Y-1.1624
X3.7823Y-1.2805
X3.7823Y-1.3967
X3.7823Y-1.5168
X3.7945Y-1.7791
X3.7953Y-1.811
X3.8012Y-1.7264
X3.8071Y-1.9272
X3.8116Y-0.7362
X3.8199Y-1.9968
X3.8543Y-0.8063
X3.8543Y-0.9244
X3.8543Y-1.0445
X3.8543Y-1.1626
X3.8543Y-1.2807
X3.8543Y-1.3968
X3.8543Y-1.5169
X3.8563Y-2.0238
X3.8586Y-1.9627
X3.8888Y-1.9974
X3.896Y-1.6192
X3.9004Y-0.8061
X3.9004Y-0.9242
X3.9004Y-1.0443
X3.9004Y-1.1624
X3.9004Y-1.2805
X3.9004Y-1.3967
X3.9004Y-1.5167
X3.9233Y-1.599
X3.9297Y-0.7362
X3.9497Y-1.9821
X3.9513Y-1.6518
X3.9724Y-0.8064
X3.9724Y-0.9245
X3.9724Y-1.0446
X3.9724Y-1.1627
X3.9724Y-1.2808
X3.9724Y-1.397
X3.9724Y-1.517
X3.9814Y-1.6742
X4.0185Y-0.8062
X4.0185Y-0.9243
X4.0185Y-1.0444
X4.0185Y-1.1625
X4.0185Y-1.2806
X4.0185Y-1.3968
X4.0185Y-1.5169
X4.0295Y-1.9053
X4.0334Y-1.7956
X4.04Y-1.7557
X4.0413Y-1.998
X4.0479Y-0.7362
X4.063Y-1.8661
X4.0709Y-1.9154
X4.0744Y-1.6226
X4.0748Y-2.01
X4.0906Y-0.8064
X4.0906Y-0.9245
X4.0906Y-1.0446
X4.0906Y-1.1627
X4.0906Y-1.2808
X4.0906Y-1.3969
X4.0906Y-1.517
X4.1043Y-1.7254
X4.1112Y-1.6417
X4.126Y-1.9448
X4.1288Y-1.6215
X4.1366Y-0.8062
X4.1366Y-0.9243
X4.1366Y-1.0444
X4.1366Y-1.1625
X4.1366Y-1.2806
X4.1366Y-1.3968
X4.1366Y-1.5168
X4.1545Y-1.6419
X4.1597Y-1.8453
X4.166Y-0.7362
X4.168Y-1.6053
X4.1693Y-1.9183
X4.187Y-1.8352
X4.1939Y-1.6299
X4.2087Y-0.8063
X4.2087Y-0.9244
X4.2087Y-1.0445
X4.2087Y-1.1626
X4.2087Y-1.2807
X4.2087Y-1.3969
X4.2087Y-1.5169
X4.214Y-1.6117
X4.2205Y-1.5443
X4.2441Y-1.6377
X4.2547Y-0.8061
X4.2547Y-0.9242
X4.2547Y-1.0443
X4.2547Y-1.1624
X4.2547Y-1.2805
X4.2547Y-1.3967
X4.2547Y-1.5168
X4.2677Y-1.624
X4.2841Y-0.7362
X4.3091Y-1.645
X4.3169Y-1.8228
X4.3186Y-1.7291
X4.3268Y-0.8063
X4.3268Y-0.9244
X4.3268Y-1.0445
X4.3268Y-1.1626
X4.3268Y-1.2807
X4.3268Y-1.3968
X4.3268Y-1.5169
X4.3396Y-1.5482
X4.3445Y-1.7357
X4.3563Y-1.815
X4.3602Y-1.6319
X4.3703Y-1.7288
X4.3729Y-0.8061
X4.3729Y-0.9242
X4.3729Y-1.0443
X4.3729Y-1.1624
X4.3729Y-1.2805
X4.3729Y-1.3967
X4.3729Y-1.5167
X4.3839Y-1.7815
X4.3927Y-1.6319
X4.3996Y-1.8839
X4.4022Y-0.7362
X4.4331Y-1.6319
X4.4449Y-0.8064
X4.4449Y-0.9245
X4.4449Y-1.0446
X4.4449Y-1.1627
X4.4449Y-1.2808
X4.4449Y-1.397
X4.4449Y-1.517
X4.4469Y-1.9665
X4.491Y-0.8062
X4.491Y-0.9243
X4.491Y-1.0444
X4.491Y-1.1625
X4.491Y-1.2806
X4.491Y-1.3968
X4.491Y-1.5169
X4.4929Y-1.8789
X4.5203Y-0.7362
X4.5315Y-1.9325
X4.5354Y-1.7933
X4.5528Y-1.6243
X4.563Y-0.8064
X4.563Y-0.9245
X4.563Y-1.0446
X4.563Y-1.1627
X4.563Y-1.2808
X4.563Y-1.3969
X4.563Y-1.517
X4.5768Y-1.9016
X4.5906Y-1.8379
X4.6085Y-1.6417
X4.6091Y-0.8062
X4.6091Y-0.9243
X4.6091Y-1.0444
X4.6091Y-1.1625
X4.6091Y-1.2806
X4.6091Y-1.3968
X4.6091Y-1.5168
X4.6114Y-1.7427
X4.6384Y-0.7362
X4.6496Y-1.6398
X4.6731Y-1.6181
X4.6794Y-1.8462
X4.6811Y-0.8066
X4.6811Y-0.9248
X4.6811Y-1.0448
X4.6811Y-1.1629
X4.6811Y-1.2811
X4.6811Y-1.3972
X4.6811Y-1.5173
X4.7018Y-1.6329
X4.7059Y-1.8494
X4.7272Y-0.8065
X4.7272Y-0.9246
X4.7272Y-1.0447
X4.7272Y-1.1628
X4.7272Y-1.2809
X4.7272Y-1.397
X4.7272Y-1.5171
X4.7315Y-1.6357
X4.7333Y-1.8445
X4.7565Y-0.7362
X4.7573Y-1.6428
X4.7795Y-1.8425
X4.7992Y-0.8066
X4.7992Y-0.9247
X4.7992Y-1.0448
X4.7992Y-1.1629
X4.7992Y-1.281
X4.7992Y-1.3972
X4.7992Y-1.5172
X4.8376Y-1.6201
X4.8451Y-1.6458
X4.8453Y-0.8064
X4.8453Y-0.9245
X4.8453Y-1.0446
X4.8453Y-1.1627
X4.8453Y-1.2808
X4.8453Y-1.397
X4.8453Y-1.5171
X4.8524Y-1.7531
X4.8746Y-0.7362
X4.878Y-1.6378
X4.8996Y-1.7736
X4.9085Y-1.686
X4.9134Y-1.6555
X4.9173Y-0.8067
X4.9173Y-0.9249
X4.9173Y-1.0449
X4.9173Y-1.163
X4.9173Y-1.2812
X4.9173Y-1.3973
X4.9173Y-1.5174
X4.9238Y-1.7269
X4.9499Y-1.8915
X4.9606Y-1.7736
X4.9634Y-0.8066
X4.9634Y-0.9247
X4.9634Y-1.0448
X4.9634Y-1.1629
X4.9634Y-1.281
X4.9634Y-1.3971
X4.9634Y-1.5172
X4.9927Y-0.7362
X5.0177Y-1.9378
X5.0315Y-1.7736
X5.0354Y-0.8067
X5.0354Y-0.9248
X5.0354Y-1.0449
X5.0354Y-1.163
X5.0354Y-1.2811
X5.0354Y-1.3973
X5.0354Y-1.5173
X5.0354Y-1.7402
X5.0492Y-1.6344
X5.0815Y-0.8065
X5.0815Y-0.9246
X5.0815Y-1.0447
X5.0815Y-1.1628
X5.0815Y-1.2809
X5.0815Y-1.3971
X5.0815Y-1.5172
X5.0984Y-1.8181
X5.1066Y-1.6184
X5.1108Y-0.7362
X5.1304Y-1.7319
X5.1437Y-1.6398
X5.1535Y-0.8066
X5.1535Y-0.9248
X5.1535Y-1.0448
X5.1535Y-1.1629
X5.1535Y-1.2811
X5.1535Y-1.3972
X5.1535Y-1.5173
X5.1553Y-1.8001
X5.1575Y-1.7323
X5.1654Y-1.9311
X5.1752Y-1.6339
X5.1996Y-0.8065
X5.1996Y-0.9246
X5.1996Y-1.0447
X5.1996Y-1.1628
X5.1996Y-1.2809
X5.1996Y-1.397
X5.1996Y-1.5171
X5.2067Y-1.935
X5.2106Y-1.6319
X5.229Y-0.7362
X5.2382Y-1.6398
X5.2642Y-1.6267
X5.2717Y-0.8066
X5.2717Y-0.9247
X5.2717Y-1.0448
X5.2717Y-1.1629
X5.2717Y-1.281
X5.2717Y-1.3972
X5.2717Y-1.5172
X5.2913Y-1.628
X5.3177Y-0.8064
X5.3177Y-0.9245
X5.3177Y-1.0446
X5.3177Y-1.1627
X5.3177Y-1.2808
X5.3177Y-1.397
X5.3177Y-1.5171
X5.3228Y-1.624
X5.3307Y-1.7283
X5.3372Y-1.8186
X5.3471Y-0.7362
X5.3602Y-1.8396
X5.3681Y-1.7239
X5.3895Y-1.6437
X5.3898Y-0.8067
X5.3898Y-0.9249
X5.3898Y-1.0449
X5.3898Y-1.163
X5.3898Y-1.2812
X5.3898Y-1.3973
X5.3898Y-1.5174
X5.3976Y-2.0098
X5.4114Y-1.624
X5.4358Y-0.8066
X5.4358Y-0.9247
X5.4358Y-1.0448
X5.4358Y-1.1629
X5.4358Y-1.281
X5.4358Y-1.3971
X5.4358Y-1.5172
X5.4488Y-1.8839
X5.4594Y-1.6358
X5.4646Y-0.7362
X5.4656Y-1.5945
X5.4858Y-1.9369
X5.5079Y-0.8067
X5.5079Y-0.9248
X5.5079Y-1.0449
X5.5079Y-1.163
X5.5079Y-1.2811
X5.5079Y-1.3973
X5.5079Y-1.5173
X5.5433Y-1.876
X5.554Y-0.8065
X5.554Y-0.9246
X5.554Y-1.0447
X5.554Y-1.1628
X5.554Y-1.2809
X5.554Y-1.3971
X5.554Y-1.5172
X5.565Y-0.7362
T2
X1.8307Y-1.7598
X1.8661Y-1.6437
X1.9941Y-1.7362
X3.013Y-1.7444
X3.6772Y-1.7441
X3.8461Y-1.6929
X4.4488Y-1.7756
X4.4857Y-1.6442
X4.9803Y-1.6378
X5.0841Y-1.9112
X5.0862Y-1.8819
X5.5039Y-1.8346
X5.5453Y-1.6654
T0
M30
