%TF.GenerationSoftware,KiCad,Pcbnew,7.0.6*%
%TF.CreationDate,2023-07-18T02:13:15+02:00*%
%TF.ProjectId,ledboad,6c656462-6f61-4642-9e6b-696361645f70,rev?*%
%TF.SameCoordinates,Original*%
%TF.FileFunction,Legend,Top*%
%TF.FilePolarity,Positive*%
%FSLAX46Y46*%
G04 Gerber Fmt 4.6, Leading zero omitted, Abs format (unit mm)*
G04 Created by KiCad (PCBNEW 7.0.6) date 2023-07-18 02:13:15*
%MOMM*%
%LPD*%
G01*
G04 APERTURE LIST*
G04 Aperture macros list*
%AMRoundRect*
0 Rectangle with rounded corners*
0 $1 Rounding radius*
0 $2 $3 $4 $5 $6 $7 $8 $9 X,Y pos of 4 corners*
0 Add a 4 corners polygon primitive as box body*
4,1,4,$2,$3,$4,$5,$6,$7,$8,$9,$2,$3,0*
0 Add four circle primitives for the rounded corners*
1,1,$1+$1,$2,$3*
1,1,$1+$1,$4,$5*
1,1,$1+$1,$6,$7*
1,1,$1+$1,$8,$9*
0 Add four rect primitives between the rounded corners*
20,1,$1+$1,$2,$3,$4,$5,0*
20,1,$1+$1,$4,$5,$6,$7,0*
20,1,$1+$1,$6,$7,$8,$9,0*
20,1,$1+$1,$8,$9,$2,$3,0*%
G04 Aperture macros list end*
%ADD10C,0.150000*%
%ADD11C,0.152000*%
%ADD12C,0.120000*%
%ADD13R,0.600000X0.400000*%
%ADD14R,0.400000X1.200000*%
%ADD15RoundRect,0.075000X-0.662500X-0.075000X0.662500X-0.075000X0.662500X0.075000X-0.662500X0.075000X0*%
%ADD16RoundRect,0.075000X-0.075000X-0.662500X0.075000X-0.662500X0.075000X0.662500X-0.075000X0.662500X0*%
%ADD17RoundRect,0.150000X-0.150000X0.587500X-0.150000X-0.587500X0.150000X-0.587500X0.150000X0.587500X0*%
%ADD18RoundRect,0.135000X-0.185000X0.135000X-0.185000X-0.135000X0.185000X-0.135000X0.185000X0.135000X0*%
%ADD19C,1.000000*%
%ADD20RoundRect,0.135000X0.185000X-0.135000X0.185000X0.135000X-0.185000X0.135000X-0.185000X-0.135000X0*%
%ADD21RoundRect,0.140000X-0.140000X-0.170000X0.140000X-0.170000X0.140000X0.170000X-0.140000X0.170000X0*%
%ADD22RoundRect,0.135000X0.135000X0.185000X-0.135000X0.185000X-0.135000X-0.185000X0.135000X-0.185000X0*%
%ADD23R,0.800000X0.900000*%
%ADD24RoundRect,0.140000X0.140000X0.170000X-0.140000X0.170000X-0.140000X-0.170000X0.140000X-0.170000X0*%
%ADD25RoundRect,0.150000X0.150000X-0.587500X0.150000X0.587500X-0.150000X0.587500X-0.150000X-0.587500X0*%
%ADD26RoundRect,0.150000X0.150000X-0.512500X0.150000X0.512500X-0.150000X0.512500X-0.150000X-0.512500X0*%
%ADD27RoundRect,0.140000X-0.170000X0.140000X-0.170000X-0.140000X0.170000X-0.140000X0.170000X0.140000X0*%
%ADD28RoundRect,0.140000X0.170000X-0.140000X0.170000X0.140000X-0.170000X0.140000X-0.170000X-0.140000X0*%
%ADD29RoundRect,0.135000X-0.135000X-0.185000X0.135000X-0.185000X0.135000X0.185000X-0.135000X0.185000X0*%
%ADD30R,0.400000X0.600000*%
G04 APERTURE END LIST*
D10*
X52241541Y-52168771D02*
X52241541Y-51568771D01*
X52241541Y-51568771D02*
X52384398Y-51568771D01*
X52384398Y-51568771D02*
X52470112Y-51597342D01*
X52470112Y-51597342D02*
X52527255Y-51654485D01*
X52527255Y-51654485D02*
X52555826Y-51711628D01*
X52555826Y-51711628D02*
X52584398Y-51825914D01*
X52584398Y-51825914D02*
X52584398Y-51911628D01*
X52584398Y-51911628D02*
X52555826Y-52025914D01*
X52555826Y-52025914D02*
X52527255Y-52083057D01*
X52527255Y-52083057D02*
X52470112Y-52140200D01*
X52470112Y-52140200D02*
X52384398Y-52168771D01*
X52384398Y-52168771D02*
X52241541Y-52168771D01*
X52955826Y-51568771D02*
X53012969Y-51568771D01*
X53012969Y-51568771D02*
X53070112Y-51597342D01*
X53070112Y-51597342D02*
X53098684Y-51625914D01*
X53098684Y-51625914D02*
X53127255Y-51683057D01*
X53127255Y-51683057D02*
X53155826Y-51797342D01*
X53155826Y-51797342D02*
X53155826Y-51940200D01*
X53155826Y-51940200D02*
X53127255Y-52054485D01*
X53127255Y-52054485D02*
X53098684Y-52111628D01*
X53098684Y-52111628D02*
X53070112Y-52140200D01*
X53070112Y-52140200D02*
X53012969Y-52168771D01*
X53012969Y-52168771D02*
X52955826Y-52168771D01*
X52955826Y-52168771D02*
X52898684Y-52140200D01*
X52898684Y-52140200D02*
X52870112Y-52111628D01*
X52870112Y-52111628D02*
X52841541Y-52054485D01*
X52841541Y-52054485D02*
X52812969Y-51940200D01*
X52812969Y-51940200D02*
X52812969Y-51797342D01*
X52812969Y-51797342D02*
X52841541Y-51683057D01*
X52841541Y-51683057D02*
X52870112Y-51625914D01*
X52870112Y-51625914D02*
X52898684Y-51597342D01*
X52898684Y-51597342D02*
X52955826Y-51568771D01*
X54012970Y-52368771D02*
X54012970Y-51511628D01*
X55184399Y-52168771D02*
X54898685Y-52168771D01*
X54898685Y-52168771D02*
X54898685Y-51568771D01*
X55355827Y-51997342D02*
X55641542Y-51997342D01*
X55298684Y-52168771D02*
X55498684Y-51568771D01*
X55498684Y-51568771D02*
X55698684Y-52168771D01*
X55812970Y-51568771D02*
X56155828Y-51568771D01*
X55984399Y-52168771D02*
X55984399Y-51568771D01*
X56955828Y-52368771D02*
X56955828Y-51511628D01*
X58098686Y-51768771D02*
X58098686Y-52168771D01*
X57955828Y-51540200D02*
X57812971Y-51968771D01*
X57812971Y-51968771D02*
X58184400Y-51968771D01*
X58355829Y-52168771D02*
X58670115Y-51768771D01*
X58355829Y-51768771D02*
X58670115Y-52168771D01*
X59584400Y-52140200D02*
X59527257Y-52168771D01*
X59527257Y-52168771D02*
X59412972Y-52168771D01*
X59412972Y-52168771D02*
X59355829Y-52140200D01*
X59355829Y-52140200D02*
X59327257Y-52083057D01*
X59327257Y-52083057D02*
X59327257Y-51854485D01*
X59327257Y-51854485D02*
X59355829Y-51797342D01*
X59355829Y-51797342D02*
X59412972Y-51768771D01*
X59412972Y-51768771D02*
X59527257Y-51768771D01*
X59527257Y-51768771D02*
X59584400Y-51797342D01*
X59584400Y-51797342D02*
X59612972Y-51854485D01*
X59612972Y-51854485D02*
X59612972Y-51911628D01*
X59612972Y-51911628D02*
X59327257Y-51968771D01*
X59812972Y-52168771D02*
X60127258Y-51768771D01*
X59812972Y-51768771D02*
X60127258Y-52168771D01*
X60270114Y-51768771D02*
X60498686Y-51768771D01*
X60355829Y-51568771D02*
X60355829Y-52083057D01*
X60355829Y-52083057D02*
X60384400Y-52140200D01*
X60384400Y-52140200D02*
X60441543Y-52168771D01*
X60441543Y-52168771D02*
X60498686Y-52168771D01*
X50805826Y-49097342D02*
X50748684Y-49068771D01*
X50748684Y-49068771D02*
X50662969Y-49068771D01*
X50662969Y-49068771D02*
X50577255Y-49097342D01*
X50577255Y-49097342D02*
X50520112Y-49154485D01*
X50520112Y-49154485D02*
X50491541Y-49211628D01*
X50491541Y-49211628D02*
X50462969Y-49325914D01*
X50462969Y-49325914D02*
X50462969Y-49411628D01*
X50462969Y-49411628D02*
X50491541Y-49525914D01*
X50491541Y-49525914D02*
X50520112Y-49583057D01*
X50520112Y-49583057D02*
X50577255Y-49640200D01*
X50577255Y-49640200D02*
X50662969Y-49668771D01*
X50662969Y-49668771D02*
X50720112Y-49668771D01*
X50720112Y-49668771D02*
X50805826Y-49640200D01*
X50805826Y-49640200D02*
X50834398Y-49611628D01*
X50834398Y-49611628D02*
X50834398Y-49411628D01*
X50834398Y-49411628D02*
X50720112Y-49411628D01*
X51091541Y-49668771D02*
X51091541Y-49068771D01*
X51091541Y-49068771D02*
X51434398Y-49668771D01*
X51434398Y-49668771D02*
X51434398Y-49068771D01*
X51720112Y-49668771D02*
X51720112Y-49068771D01*
X51720112Y-49068771D02*
X51862969Y-49068771D01*
X51862969Y-49068771D02*
X51948683Y-49097342D01*
X51948683Y-49097342D02*
X52005826Y-49154485D01*
X52005826Y-49154485D02*
X52034397Y-49211628D01*
X52034397Y-49211628D02*
X52062969Y-49325914D01*
X52062969Y-49325914D02*
X52062969Y-49411628D01*
X52062969Y-49411628D02*
X52034397Y-49525914D01*
X52034397Y-49525914D02*
X52005826Y-49583057D01*
X52005826Y-49583057D02*
X51948683Y-49640200D01*
X51948683Y-49640200D02*
X51862969Y-49668771D01*
X51862969Y-49668771D02*
X51720112Y-49668771D01*
X65908207Y-50274580D02*
X65860588Y-50322200D01*
X65860588Y-50322200D02*
X65717731Y-50369819D01*
X65717731Y-50369819D02*
X65622493Y-50369819D01*
X65622493Y-50369819D02*
X65479636Y-50322200D01*
X65479636Y-50322200D02*
X65384398Y-50226961D01*
X65384398Y-50226961D02*
X65336779Y-50131723D01*
X65336779Y-50131723D02*
X65289160Y-49941247D01*
X65289160Y-49941247D02*
X65289160Y-49798390D01*
X65289160Y-49798390D02*
X65336779Y-49607914D01*
X65336779Y-49607914D02*
X65384398Y-49512676D01*
X65384398Y-49512676D02*
X65479636Y-49417438D01*
X65479636Y-49417438D02*
X65622493Y-49369819D01*
X65622493Y-49369819D02*
X65717731Y-49369819D01*
X65717731Y-49369819D02*
X65860588Y-49417438D01*
X65860588Y-49417438D02*
X65908207Y-49465057D01*
X66241541Y-49703152D02*
X66479636Y-50369819D01*
X66717731Y-49703152D02*
X66479636Y-50369819D01*
X66479636Y-50369819D02*
X66384398Y-50607914D01*
X66384398Y-50607914D02*
X66336779Y-50655533D01*
X66336779Y-50655533D02*
X66241541Y-50703152D01*
X67098684Y-50369819D02*
X67098684Y-49369819D01*
X67098684Y-49750771D02*
X67193922Y-49703152D01*
X67193922Y-49703152D02*
X67384398Y-49703152D01*
X67384398Y-49703152D02*
X67479636Y-49750771D01*
X67479636Y-49750771D02*
X67527255Y-49798390D01*
X67527255Y-49798390D02*
X67574874Y-49893628D01*
X67574874Y-49893628D02*
X67574874Y-50179342D01*
X67574874Y-50179342D02*
X67527255Y-50274580D01*
X67527255Y-50274580D02*
X67479636Y-50322200D01*
X67479636Y-50322200D02*
X67384398Y-50369819D01*
X67384398Y-50369819D02*
X67193922Y-50369819D01*
X67193922Y-50369819D02*
X67098684Y-50322200D01*
X68384398Y-50322200D02*
X68289160Y-50369819D01*
X68289160Y-50369819D02*
X68098684Y-50369819D01*
X68098684Y-50369819D02*
X68003446Y-50322200D01*
X68003446Y-50322200D02*
X67955827Y-50226961D01*
X67955827Y-50226961D02*
X67955827Y-49846009D01*
X67955827Y-49846009D02*
X68003446Y-49750771D01*
X68003446Y-49750771D02*
X68098684Y-49703152D01*
X68098684Y-49703152D02*
X68289160Y-49703152D01*
X68289160Y-49703152D02*
X68384398Y-49750771D01*
X68384398Y-49750771D02*
X68432017Y-49846009D01*
X68432017Y-49846009D02*
X68432017Y-49941247D01*
X68432017Y-49941247D02*
X67955827Y-50036485D01*
X68860589Y-50369819D02*
X68860589Y-49703152D01*
X68860589Y-49893628D02*
X68908208Y-49798390D01*
X68908208Y-49798390D02*
X68955827Y-49750771D01*
X68955827Y-49750771D02*
X69051065Y-49703152D01*
X69051065Y-49703152D02*
X69146303Y-49703152D01*
X69479637Y-50369819D02*
X69479637Y-49369819D01*
X69479637Y-49750771D02*
X69574875Y-49703152D01*
X69574875Y-49703152D02*
X69765351Y-49703152D01*
X69765351Y-49703152D02*
X69860589Y-49750771D01*
X69860589Y-49750771D02*
X69908208Y-49798390D01*
X69908208Y-49798390D02*
X69955827Y-49893628D01*
X69955827Y-49893628D02*
X69955827Y-50179342D01*
X69955827Y-50179342D02*
X69908208Y-50274580D01*
X69908208Y-50274580D02*
X69860589Y-50322200D01*
X69860589Y-50322200D02*
X69765351Y-50369819D01*
X69765351Y-50369819D02*
X69574875Y-50369819D01*
X69574875Y-50369819D02*
X69479637Y-50322200D01*
X70812970Y-50369819D02*
X70812970Y-49846009D01*
X70812970Y-49846009D02*
X70765351Y-49750771D01*
X70765351Y-49750771D02*
X70670113Y-49703152D01*
X70670113Y-49703152D02*
X70479637Y-49703152D01*
X70479637Y-49703152D02*
X70384399Y-49750771D01*
X70812970Y-50322200D02*
X70717732Y-50369819D01*
X70717732Y-50369819D02*
X70479637Y-50369819D01*
X70479637Y-50369819D02*
X70384399Y-50322200D01*
X70384399Y-50322200D02*
X70336780Y-50226961D01*
X70336780Y-50226961D02*
X70336780Y-50131723D01*
X70336780Y-50131723D02*
X70384399Y-50036485D01*
X70384399Y-50036485D02*
X70479637Y-49988866D01*
X70479637Y-49988866D02*
X70717732Y-49988866D01*
X70717732Y-49988866D02*
X70812970Y-49941247D01*
X71717732Y-50369819D02*
X71717732Y-49369819D01*
X71717732Y-50322200D02*
X71622494Y-50369819D01*
X71622494Y-50369819D02*
X71432018Y-50369819D01*
X71432018Y-50369819D02*
X71336780Y-50322200D01*
X71336780Y-50322200D02*
X71289161Y-50274580D01*
X71289161Y-50274580D02*
X71241542Y-50179342D01*
X71241542Y-50179342D02*
X71241542Y-49893628D01*
X71241542Y-49893628D02*
X71289161Y-49798390D01*
X71289161Y-49798390D02*
X71336780Y-49750771D01*
X71336780Y-49750771D02*
X71432018Y-49703152D01*
X71432018Y-49703152D02*
X71622494Y-49703152D01*
X71622494Y-49703152D02*
X71717732Y-49750771D01*
X72622494Y-49703152D02*
X72622494Y-50512676D01*
X72622494Y-50512676D02*
X72574875Y-50607914D01*
X72574875Y-50607914D02*
X72527256Y-50655533D01*
X72527256Y-50655533D02*
X72432018Y-50703152D01*
X72432018Y-50703152D02*
X72289161Y-50703152D01*
X72289161Y-50703152D02*
X72193923Y-50655533D01*
X72622494Y-50322200D02*
X72527256Y-50369819D01*
X72527256Y-50369819D02*
X72336780Y-50369819D01*
X72336780Y-50369819D02*
X72241542Y-50322200D01*
X72241542Y-50322200D02*
X72193923Y-50274580D01*
X72193923Y-50274580D02*
X72146304Y-50179342D01*
X72146304Y-50179342D02*
X72146304Y-49893628D01*
X72146304Y-49893628D02*
X72193923Y-49798390D01*
X72193923Y-49798390D02*
X72241542Y-49750771D01*
X72241542Y-49750771D02*
X72336780Y-49703152D01*
X72336780Y-49703152D02*
X72527256Y-49703152D01*
X72527256Y-49703152D02*
X72622494Y-49750771D01*
X73479637Y-50322200D02*
X73384399Y-50369819D01*
X73384399Y-50369819D02*
X73193923Y-50369819D01*
X73193923Y-50369819D02*
X73098685Y-50322200D01*
X73098685Y-50322200D02*
X73051066Y-50226961D01*
X73051066Y-50226961D02*
X73051066Y-49846009D01*
X73051066Y-49846009D02*
X73098685Y-49750771D01*
X73098685Y-49750771D02*
X73193923Y-49703152D01*
X73193923Y-49703152D02*
X73384399Y-49703152D01*
X73384399Y-49703152D02*
X73479637Y-49750771D01*
X73479637Y-49750771D02*
X73527256Y-49846009D01*
X73527256Y-49846009D02*
X73527256Y-49941247D01*
X73527256Y-49941247D02*
X73051066Y-50036485D01*
X74670114Y-49465057D02*
X74717733Y-49417438D01*
X74717733Y-49417438D02*
X74812971Y-49369819D01*
X74812971Y-49369819D02*
X75051066Y-49369819D01*
X75051066Y-49369819D02*
X75146304Y-49417438D01*
X75146304Y-49417438D02*
X75193923Y-49465057D01*
X75193923Y-49465057D02*
X75241542Y-49560295D01*
X75241542Y-49560295D02*
X75241542Y-49655533D01*
X75241542Y-49655533D02*
X75193923Y-49798390D01*
X75193923Y-49798390D02*
X74622495Y-50369819D01*
X74622495Y-50369819D02*
X75241542Y-50369819D01*
X75670114Y-50274580D02*
X75717733Y-50322200D01*
X75717733Y-50322200D02*
X75670114Y-50369819D01*
X75670114Y-50369819D02*
X75622495Y-50322200D01*
X75622495Y-50322200D02*
X75670114Y-50274580D01*
X75670114Y-50274580D02*
X75670114Y-50369819D01*
X76336780Y-49369819D02*
X76432018Y-49369819D01*
X76432018Y-49369819D02*
X76527256Y-49417438D01*
X76527256Y-49417438D02*
X76574875Y-49465057D01*
X76574875Y-49465057D02*
X76622494Y-49560295D01*
X76622494Y-49560295D02*
X76670113Y-49750771D01*
X76670113Y-49750771D02*
X76670113Y-49988866D01*
X76670113Y-49988866D02*
X76622494Y-50179342D01*
X76622494Y-50179342D02*
X76574875Y-50274580D01*
X76574875Y-50274580D02*
X76527256Y-50322200D01*
X76527256Y-50322200D02*
X76432018Y-50369819D01*
X76432018Y-50369819D02*
X76336780Y-50369819D01*
X76336780Y-50369819D02*
X76241542Y-50322200D01*
X76241542Y-50322200D02*
X76193923Y-50274580D01*
X76193923Y-50274580D02*
X76146304Y-50179342D01*
X76146304Y-50179342D02*
X76098685Y-49988866D01*
X76098685Y-49988866D02*
X76098685Y-49750771D01*
X76098685Y-49750771D02*
X76146304Y-49560295D01*
X76146304Y-49560295D02*
X76193923Y-49465057D01*
X76193923Y-49465057D02*
X76241542Y-49417438D01*
X76241542Y-49417438D02*
X76336780Y-49369819D01*
X77860590Y-49703152D02*
X77860590Y-50703152D01*
X77860590Y-49750771D02*
X77955828Y-49703152D01*
X77955828Y-49703152D02*
X78146304Y-49703152D01*
X78146304Y-49703152D02*
X78241542Y-49750771D01*
X78241542Y-49750771D02*
X78289161Y-49798390D01*
X78289161Y-49798390D02*
X78336780Y-49893628D01*
X78336780Y-49893628D02*
X78336780Y-50179342D01*
X78336780Y-50179342D02*
X78289161Y-50274580D01*
X78289161Y-50274580D02*
X78241542Y-50322200D01*
X78241542Y-50322200D02*
X78146304Y-50369819D01*
X78146304Y-50369819D02*
X77955828Y-50369819D01*
X77955828Y-50369819D02*
X77860590Y-50322200D01*
X78765352Y-50369819D02*
X78765352Y-49703152D01*
X78765352Y-49893628D02*
X78812971Y-49798390D01*
X78812971Y-49798390D02*
X78860590Y-49750771D01*
X78860590Y-49750771D02*
X78955828Y-49703152D01*
X78955828Y-49703152D02*
X79051066Y-49703152D01*
X79527257Y-50369819D02*
X79432019Y-50322200D01*
X79432019Y-50322200D02*
X79384400Y-50274580D01*
X79384400Y-50274580D02*
X79336781Y-50179342D01*
X79336781Y-50179342D02*
X79336781Y-49893628D01*
X79336781Y-49893628D02*
X79384400Y-49798390D01*
X79384400Y-49798390D02*
X79432019Y-49750771D01*
X79432019Y-49750771D02*
X79527257Y-49703152D01*
X79527257Y-49703152D02*
X79670114Y-49703152D01*
X79670114Y-49703152D02*
X79765352Y-49750771D01*
X79765352Y-49750771D02*
X79812971Y-49798390D01*
X79812971Y-49798390D02*
X79860590Y-49893628D01*
X79860590Y-49893628D02*
X79860590Y-50179342D01*
X79860590Y-50179342D02*
X79812971Y-50274580D01*
X79812971Y-50274580D02*
X79765352Y-50322200D01*
X79765352Y-50322200D02*
X79670114Y-50369819D01*
X79670114Y-50369819D02*
X79527257Y-50369819D01*
X80146305Y-49703152D02*
X80527257Y-49703152D01*
X80289162Y-49369819D02*
X80289162Y-50226961D01*
X80289162Y-50226961D02*
X80336781Y-50322200D01*
X80336781Y-50322200D02*
X80432019Y-50369819D01*
X80432019Y-50369819D02*
X80527257Y-50369819D01*
X81003448Y-50369819D02*
X80908210Y-50322200D01*
X80908210Y-50322200D02*
X80860591Y-50274580D01*
X80860591Y-50274580D02*
X80812972Y-50179342D01*
X80812972Y-50179342D02*
X80812972Y-49893628D01*
X80812972Y-49893628D02*
X80860591Y-49798390D01*
X80860591Y-49798390D02*
X80908210Y-49750771D01*
X80908210Y-49750771D02*
X81003448Y-49703152D01*
X81003448Y-49703152D02*
X81146305Y-49703152D01*
X81146305Y-49703152D02*
X81241543Y-49750771D01*
X81241543Y-49750771D02*
X81289162Y-49798390D01*
X81289162Y-49798390D02*
X81336781Y-49893628D01*
X81336781Y-49893628D02*
X81336781Y-50179342D01*
X81336781Y-50179342D02*
X81289162Y-50274580D01*
X81289162Y-50274580D02*
X81241543Y-50322200D01*
X81241543Y-50322200D02*
X81146305Y-50369819D01*
X81146305Y-50369819D02*
X81003448Y-50369819D01*
X81622496Y-49703152D02*
X82003448Y-49703152D01*
X81765353Y-49369819D02*
X81765353Y-50226961D01*
X81765353Y-50226961D02*
X81812972Y-50322200D01*
X81812972Y-50322200D02*
X81908210Y-50369819D01*
X81908210Y-50369819D02*
X82003448Y-50369819D01*
X82241544Y-49703152D02*
X82479639Y-50369819D01*
X82717734Y-49703152D02*
X82479639Y-50369819D01*
X82479639Y-50369819D02*
X82384401Y-50607914D01*
X82384401Y-50607914D02*
X82336782Y-50655533D01*
X82336782Y-50655533D02*
X82241544Y-50703152D01*
X83098687Y-49703152D02*
X83098687Y-50703152D01*
X83098687Y-49750771D02*
X83193925Y-49703152D01*
X83193925Y-49703152D02*
X83384401Y-49703152D01*
X83384401Y-49703152D02*
X83479639Y-49750771D01*
X83479639Y-49750771D02*
X83527258Y-49798390D01*
X83527258Y-49798390D02*
X83574877Y-49893628D01*
X83574877Y-49893628D02*
X83574877Y-50179342D01*
X83574877Y-50179342D02*
X83527258Y-50274580D01*
X83527258Y-50274580D02*
X83479639Y-50322200D01*
X83479639Y-50322200D02*
X83384401Y-50369819D01*
X83384401Y-50369819D02*
X83193925Y-50369819D01*
X83193925Y-50369819D02*
X83098687Y-50322200D01*
X84384401Y-50322200D02*
X84289163Y-50369819D01*
X84289163Y-50369819D02*
X84098687Y-50369819D01*
X84098687Y-50369819D02*
X84003449Y-50322200D01*
X84003449Y-50322200D02*
X83955830Y-50226961D01*
X83955830Y-50226961D02*
X83955830Y-49846009D01*
X83955830Y-49846009D02*
X84003449Y-49750771D01*
X84003449Y-49750771D02*
X84098687Y-49703152D01*
X84098687Y-49703152D02*
X84289163Y-49703152D01*
X84289163Y-49703152D02*
X84384401Y-49750771D01*
X84384401Y-49750771D02*
X84432020Y-49846009D01*
X84432020Y-49846009D02*
X84432020Y-49941247D01*
X84432020Y-49941247D02*
X83955830Y-50036485D01*
X60241541Y-47168771D02*
X60241541Y-46568771D01*
X60241541Y-46568771D02*
X60384398Y-46568771D01*
X60384398Y-46568771D02*
X60470112Y-46597342D01*
X60470112Y-46597342D02*
X60527255Y-46654485D01*
X60527255Y-46654485D02*
X60555826Y-46711628D01*
X60555826Y-46711628D02*
X60584398Y-46825914D01*
X60584398Y-46825914D02*
X60584398Y-46911628D01*
X60584398Y-46911628D02*
X60555826Y-47025914D01*
X60555826Y-47025914D02*
X60527255Y-47083057D01*
X60527255Y-47083057D02*
X60470112Y-47140200D01*
X60470112Y-47140200D02*
X60384398Y-47168771D01*
X60384398Y-47168771D02*
X60241541Y-47168771D01*
X61155826Y-47168771D02*
X60812969Y-47168771D01*
X60984398Y-47168771D02*
X60984398Y-46568771D01*
X60984398Y-46568771D02*
X60927255Y-46654485D01*
X60927255Y-46654485D02*
X60870112Y-46711628D01*
X60870112Y-46711628D02*
X60812969Y-46740200D01*
X112491541Y-48668771D02*
X112491541Y-48068771D01*
X112491541Y-48068771D02*
X112634398Y-48068771D01*
X112634398Y-48068771D02*
X112720112Y-48097342D01*
X112720112Y-48097342D02*
X112777255Y-48154485D01*
X112777255Y-48154485D02*
X112805826Y-48211628D01*
X112805826Y-48211628D02*
X112834398Y-48325914D01*
X112834398Y-48325914D02*
X112834398Y-48411628D01*
X112834398Y-48411628D02*
X112805826Y-48525914D01*
X112805826Y-48525914D02*
X112777255Y-48583057D01*
X112777255Y-48583057D02*
X112720112Y-48640200D01*
X112720112Y-48640200D02*
X112634398Y-48668771D01*
X112634398Y-48668771D02*
X112491541Y-48668771D01*
X113348684Y-48268771D02*
X113348684Y-48668771D01*
X113205826Y-48040200D02*
X113062969Y-48468771D01*
X113062969Y-48468771D02*
X113434398Y-48468771D01*
X66527255Y-51119819D02*
X66622493Y-51119819D01*
X66622493Y-51119819D02*
X66717731Y-51167438D01*
X66717731Y-51167438D02*
X66765350Y-51215057D01*
X66765350Y-51215057D02*
X66812969Y-51310295D01*
X66812969Y-51310295D02*
X66860588Y-51500771D01*
X66860588Y-51500771D02*
X66860588Y-51738866D01*
X66860588Y-51738866D02*
X66812969Y-51929342D01*
X66812969Y-51929342D02*
X66765350Y-52024580D01*
X66765350Y-52024580D02*
X66717731Y-52072200D01*
X66717731Y-52072200D02*
X66622493Y-52119819D01*
X66622493Y-52119819D02*
X66527255Y-52119819D01*
X66527255Y-52119819D02*
X66432017Y-52072200D01*
X66432017Y-52072200D02*
X66384398Y-52024580D01*
X66384398Y-52024580D02*
X66336779Y-51929342D01*
X66336779Y-51929342D02*
X66289160Y-51738866D01*
X66289160Y-51738866D02*
X66289160Y-51500771D01*
X66289160Y-51500771D02*
X66336779Y-51310295D01*
X66336779Y-51310295D02*
X66384398Y-51215057D01*
X66384398Y-51215057D02*
X66432017Y-51167438D01*
X66432017Y-51167438D02*
X66527255Y-51119819D01*
X67193922Y-51119819D02*
X67860588Y-51119819D01*
X67860588Y-51119819D02*
X67432017Y-52119819D01*
X68241541Y-52024580D02*
X68289160Y-52072200D01*
X68289160Y-52072200D02*
X68241541Y-52119819D01*
X68241541Y-52119819D02*
X68193922Y-52072200D01*
X68193922Y-52072200D02*
X68241541Y-52024580D01*
X68241541Y-52024580D02*
X68241541Y-52119819D01*
X68670112Y-51215057D02*
X68717731Y-51167438D01*
X68717731Y-51167438D02*
X68812969Y-51119819D01*
X68812969Y-51119819D02*
X69051064Y-51119819D01*
X69051064Y-51119819D02*
X69146302Y-51167438D01*
X69146302Y-51167438D02*
X69193921Y-51215057D01*
X69193921Y-51215057D02*
X69241540Y-51310295D01*
X69241540Y-51310295D02*
X69241540Y-51405533D01*
X69241540Y-51405533D02*
X69193921Y-51548390D01*
X69193921Y-51548390D02*
X68622493Y-52119819D01*
X68622493Y-52119819D02*
X69241540Y-52119819D01*
X69860588Y-51119819D02*
X69955826Y-51119819D01*
X69955826Y-51119819D02*
X70051064Y-51167438D01*
X70051064Y-51167438D02*
X70098683Y-51215057D01*
X70098683Y-51215057D02*
X70146302Y-51310295D01*
X70146302Y-51310295D02*
X70193921Y-51500771D01*
X70193921Y-51500771D02*
X70193921Y-51738866D01*
X70193921Y-51738866D02*
X70146302Y-51929342D01*
X70146302Y-51929342D02*
X70098683Y-52024580D01*
X70098683Y-52024580D02*
X70051064Y-52072200D01*
X70051064Y-52072200D02*
X69955826Y-52119819D01*
X69955826Y-52119819D02*
X69860588Y-52119819D01*
X69860588Y-52119819D02*
X69765350Y-52072200D01*
X69765350Y-52072200D02*
X69717731Y-52024580D01*
X69717731Y-52024580D02*
X69670112Y-51929342D01*
X69670112Y-51929342D02*
X69622493Y-51738866D01*
X69622493Y-51738866D02*
X69622493Y-51500771D01*
X69622493Y-51500771D02*
X69670112Y-51310295D01*
X69670112Y-51310295D02*
X69717731Y-51215057D01*
X69717731Y-51215057D02*
X69765350Y-51167438D01*
X69765350Y-51167438D02*
X69860588Y-51119819D01*
X70574874Y-51215057D02*
X70622493Y-51167438D01*
X70622493Y-51167438D02*
X70717731Y-51119819D01*
X70717731Y-51119819D02*
X70955826Y-51119819D01*
X70955826Y-51119819D02*
X71051064Y-51167438D01*
X71051064Y-51167438D02*
X71098683Y-51215057D01*
X71098683Y-51215057D02*
X71146302Y-51310295D01*
X71146302Y-51310295D02*
X71146302Y-51405533D01*
X71146302Y-51405533D02*
X71098683Y-51548390D01*
X71098683Y-51548390D02*
X70527255Y-52119819D01*
X70527255Y-52119819D02*
X71146302Y-52119819D01*
X71479636Y-51119819D02*
X72098683Y-51119819D01*
X72098683Y-51119819D02*
X71765350Y-51500771D01*
X71765350Y-51500771D02*
X71908207Y-51500771D01*
X71908207Y-51500771D02*
X72003445Y-51548390D01*
X72003445Y-51548390D02*
X72051064Y-51596009D01*
X72051064Y-51596009D02*
X72098683Y-51691247D01*
X72098683Y-51691247D02*
X72098683Y-51929342D01*
X72098683Y-51929342D02*
X72051064Y-52024580D01*
X72051064Y-52024580D02*
X72003445Y-52072200D01*
X72003445Y-52072200D02*
X71908207Y-52119819D01*
X71908207Y-52119819D02*
X71622493Y-52119819D01*
X71622493Y-52119819D02*
X71527255Y-52072200D01*
X71527255Y-52072200D02*
X71479636Y-52024580D01*
D11*
%TO.C,D5_6*%
X61497430Y-33348700D02*
X63097430Y-33348700D01*
X61497430Y-34848700D02*
X63097430Y-34848700D01*
D10*
X61102430Y-33717700D02*
G75*
G03*
X61102430Y-33717700I-75000J0D01*
G01*
G36*
X61997430Y-33698700D02*
G01*
X61997430Y-33498700D01*
X62197430Y-33498700D01*
X61997430Y-33698700D01*
G37*
D11*
%TO.C,D8_4*%
X70495888Y-27349220D02*
X72095888Y-27349220D01*
X70495888Y-28849220D02*
X72095888Y-28849220D01*
D10*
X70100888Y-27718220D02*
G75*
G03*
X70100888Y-27718220I-75000J0D01*
G01*
G36*
X70995888Y-27699220D02*
G01*
X70995888Y-27499220D01*
X71195888Y-27499220D01*
X70995888Y-27699220D01*
G37*
D11*
%TO.C,D11_3*%
X79494346Y-24349480D02*
X81094346Y-24349480D01*
X79494346Y-25849480D02*
X81094346Y-25849480D01*
D10*
X79099346Y-24718480D02*
G75*
G03*
X79099346Y-24718480I-75000J0D01*
G01*
G36*
X79994346Y-24699480D02*
G01*
X79994346Y-24499480D01*
X80194346Y-24499480D01*
X79994346Y-24699480D01*
G37*
D11*
%TO.C,D3_7*%
X55498458Y-36348440D02*
X57098458Y-36348440D01*
X55498458Y-37848440D02*
X57098458Y-37848440D01*
D10*
X55103458Y-36717440D02*
G75*
G03*
X55103458Y-36717440I-75000J0D01*
G01*
G36*
X55998458Y-36698440D02*
G01*
X55998458Y-36498440D01*
X56198458Y-36498440D01*
X55998458Y-36698440D01*
G37*
D11*
%TO.C,D0_3*%
X46500000Y-24349480D02*
X48100000Y-24349480D01*
X46500000Y-25849480D02*
X48100000Y-25849480D01*
D10*
X46105000Y-24718480D02*
G75*
G03*
X46105000Y-24718480I-75000J0D01*
G01*
G36*
X47000000Y-24699480D02*
G01*
X47000000Y-24499480D01*
X47200000Y-24499480D01*
X47000000Y-24699480D01*
G37*
D11*
%TO.C,D3_5*%
X55498458Y-30348960D02*
X57098458Y-30348960D01*
X55498458Y-31848960D02*
X57098458Y-31848960D01*
D10*
X55103458Y-30717960D02*
G75*
G03*
X55103458Y-30717960I-75000J0D01*
G01*
G36*
X55998458Y-30698960D02*
G01*
X55998458Y-30498960D01*
X56198458Y-30498960D01*
X55998458Y-30698960D01*
G37*
D11*
%TO.C,D4_3*%
X58497944Y-24349480D02*
X60097944Y-24349480D01*
X58497944Y-25849480D02*
X60097944Y-25849480D01*
D10*
X58102944Y-24718480D02*
G75*
G03*
X58102944Y-24718480I-75000J0D01*
G01*
G36*
X58997944Y-24699480D02*
G01*
X58997944Y-24499480D01*
X59197944Y-24499480D01*
X58997944Y-24699480D01*
G37*
D11*
%TO.C,D17_6*%
X97491262Y-33348700D02*
X99091262Y-33348700D01*
X97491262Y-34848700D02*
X99091262Y-34848700D01*
D10*
X97096262Y-33717700D02*
G75*
G03*
X97096262Y-33717700I-75000J0D01*
G01*
G36*
X97991262Y-33698700D02*
G01*
X97991262Y-33498700D01*
X98191262Y-33498700D01*
X97991262Y-33698700D01*
G37*
D11*
%TO.C,D22_2*%
X112487005Y-21349740D02*
X114087005Y-21349740D01*
X112487005Y-22849740D02*
X114087005Y-22849740D01*
D10*
X112092005Y-21718740D02*
G75*
G03*
X112092005Y-21718740I-75000J0D01*
G01*
G36*
X112987005Y-21699740D02*
G01*
X112987005Y-21499740D01*
X113187005Y-21499740D01*
X112987005Y-21699740D01*
G37*
D11*
%TO.C,D25_2*%
X121487150Y-21349740D02*
X123087150Y-21349740D01*
X121487150Y-22849740D02*
X123087150Y-22849740D01*
D10*
X121092150Y-21718740D02*
G75*
G03*
X121092150Y-21718740I-75000J0D01*
G01*
G36*
X121987150Y-21699740D02*
G01*
X121987150Y-21499740D01*
X122187150Y-21499740D01*
X121987150Y-21699740D01*
G37*
D11*
%TO.C,D13_5*%
X85493318Y-30348960D02*
X87093318Y-30348960D01*
X85493318Y-31848960D02*
X87093318Y-31848960D01*
D10*
X85098318Y-30717960D02*
G75*
G03*
X85098318Y-30717960I-75000J0D01*
G01*
G36*
X85993318Y-30698960D02*
G01*
X85993318Y-30498960D01*
X86193318Y-30498960D01*
X85993318Y-30698960D01*
G37*
D11*
%TO.C,D25_6*%
X121487150Y-33348700D02*
X123087150Y-33348700D01*
X121487150Y-34848700D02*
X123087150Y-34848700D01*
D10*
X121092150Y-33717700D02*
G75*
G03*
X121092150Y-33717700I-75000J0D01*
G01*
G36*
X121987150Y-33698700D02*
G01*
X121987150Y-33498700D01*
X122187150Y-33498700D01*
X121987150Y-33698700D01*
G37*
D11*
%TO.C,D13_6*%
X85493318Y-33348700D02*
X87093318Y-33348700D01*
X85493318Y-34848700D02*
X87093318Y-34848700D01*
D10*
X85098318Y-33717700D02*
G75*
G03*
X85098318Y-33717700I-75000J0D01*
G01*
G36*
X85993318Y-33698700D02*
G01*
X85993318Y-33498700D01*
X86193318Y-33498700D01*
X85993318Y-33698700D01*
G37*
D11*
%TO.C,D17_2*%
X97491262Y-21349740D02*
X99091262Y-21349740D01*
X97491262Y-22849740D02*
X99091262Y-22849740D01*
D10*
X97096262Y-21718740D02*
G75*
G03*
X97096262Y-21718740I-75000J0D01*
G01*
G36*
X97991262Y-21699740D02*
G01*
X97991262Y-21499740D01*
X98191262Y-21499740D01*
X97991262Y-21699740D01*
G37*
%TO.C,RU2*%
X103025000Y-47512500D02*
X103500000Y-47512500D01*
X103025000Y-47512500D02*
X103025000Y-43362500D01*
X103500000Y-47512500D02*
X103500000Y-48637500D01*
X111975000Y-47512500D02*
X111417500Y-47512500D01*
X111975000Y-47512500D02*
X111975000Y-43362500D01*
X103025000Y-43362500D02*
X103582500Y-43362500D01*
X111975000Y-43362500D02*
X111417500Y-43362500D01*
D11*
%TO.C,D8_2*%
X70495888Y-21349740D02*
X72095888Y-21349740D01*
X70495888Y-22849740D02*
X72095888Y-22849740D01*
D10*
X70100888Y-21718740D02*
G75*
G03*
X70100888Y-21718740I-75000J0D01*
G01*
G36*
X70995888Y-21699740D02*
G01*
X70995888Y-21499740D01*
X71195888Y-21499740D01*
X70995888Y-21699740D01*
G37*
%TO.C,RU1*%
X49525000Y-47575000D02*
X50000000Y-47575000D01*
X49525000Y-47575000D02*
X49525000Y-43425000D01*
X50000000Y-47575000D02*
X50000000Y-48700000D01*
X58475000Y-47575000D02*
X57917500Y-47575000D01*
X58475000Y-47575000D02*
X58475000Y-43425000D01*
X49525000Y-43425000D02*
X50082500Y-43425000D01*
X58475000Y-43425000D02*
X57917500Y-43425000D01*
D11*
%TO.C,D2_4*%
X52498972Y-27349220D02*
X54098972Y-27349220D01*
X52498972Y-28849220D02*
X54098972Y-28849220D01*
D10*
X52103972Y-27718220D02*
G75*
G03*
X52103972Y-27718220I-75000J0D01*
G01*
G36*
X52998972Y-27699220D02*
G01*
X52998972Y-27499220D01*
X53198972Y-27499220D01*
X52998972Y-27699220D01*
G37*
D11*
%TO.C,D23_7*%
X115488178Y-36348440D02*
X117088178Y-36348440D01*
X115488178Y-37848440D02*
X117088178Y-37848440D01*
D10*
X115093178Y-36717440D02*
G75*
G03*
X115093178Y-36717440I-75000J0D01*
G01*
G36*
X115988178Y-36698440D02*
G01*
X115988178Y-36498440D01*
X116188178Y-36498440D01*
X115988178Y-36698440D01*
G37*
D11*
%TO.C,D20_4*%
X106489720Y-27349220D02*
X108089720Y-27349220D01*
X106489720Y-28849220D02*
X108089720Y-28849220D01*
D10*
X106094720Y-27718220D02*
G75*
G03*
X106094720Y-27718220I-75000J0D01*
G01*
G36*
X106989720Y-27699220D02*
G01*
X106989720Y-27499220D01*
X107189720Y-27499220D01*
X106989720Y-27699220D01*
G37*
D11*
%TO.C,D30_4*%
X136484580Y-27349220D02*
X138084580Y-27349220D01*
X136484580Y-28849220D02*
X138084580Y-28849220D01*
D10*
X136089580Y-27718220D02*
G75*
G03*
X136089580Y-27718220I-75000J0D01*
G01*
G36*
X136984580Y-27699220D02*
G01*
X136984580Y-27499220D01*
X137184580Y-27499220D01*
X136984580Y-27699220D01*
G37*
D11*
%TO.C,D9_7*%
X73495374Y-36348440D02*
X75095374Y-36348440D01*
X73495374Y-37848440D02*
X75095374Y-37848440D01*
D10*
X73100374Y-36717440D02*
G75*
G03*
X73100374Y-36717440I-75000J0D01*
G01*
G36*
X73995374Y-36698440D02*
G01*
X73995374Y-36498440D01*
X74195374Y-36498440D01*
X73995374Y-36698440D01*
G37*
D11*
%TO.C,D30_7*%
X136484580Y-36348440D02*
X138084580Y-36348440D01*
X136484580Y-37848440D02*
X138084580Y-37848440D01*
D10*
X136089580Y-36717440D02*
G75*
G03*
X136089580Y-36717440I-75000J0D01*
G01*
G36*
X136984580Y-36698440D02*
G01*
X136984580Y-36498440D01*
X137184580Y-36498440D01*
X136984580Y-36698440D01*
G37*
D11*
%TO.C,D22_7*%
X112487005Y-36348440D02*
X114087005Y-36348440D01*
X112487005Y-37848440D02*
X114087005Y-37848440D01*
D10*
X112092005Y-36717440D02*
G75*
G03*
X112092005Y-36717440I-75000J0D01*
G01*
G36*
X112987005Y-36698440D02*
G01*
X112987005Y-36498440D01*
X113187005Y-36498440D01*
X112987005Y-36698440D01*
G37*
D12*
%TO.C,U1*%
X90140000Y-42890000D02*
X90140000Y-43340000D01*
X90140000Y-43340000D02*
X88850000Y-43340000D01*
X90140000Y-50110000D02*
X90140000Y-49660000D01*
X90590000Y-42890000D02*
X90140000Y-42890000D01*
X90590000Y-50110000D02*
X90140000Y-50110000D01*
X96910000Y-42890000D02*
X97360000Y-42890000D01*
X96910000Y-50110000D02*
X97360000Y-50110000D01*
X97360000Y-42890000D02*
X97360000Y-43340000D01*
X97360000Y-50110000D02*
X97360000Y-49660000D01*
D11*
%TO.C,D13_2*%
X85493318Y-21349740D02*
X87093318Y-21349740D01*
X85493318Y-22849740D02*
X87093318Y-22849740D01*
D10*
X85098318Y-21718740D02*
G75*
G03*
X85098318Y-21718740I-75000J0D01*
G01*
G36*
X85993318Y-21699740D02*
G01*
X85993318Y-21499740D01*
X86193318Y-21499740D01*
X85993318Y-21699740D01*
G37*
D12*
%TO.C,Q2*%
X102460000Y-44137500D02*
X102460000Y-42462500D01*
X102460000Y-44137500D02*
X102460000Y-44787500D01*
X99340000Y-44137500D02*
X99340000Y-43487500D01*
X99340000Y-44137500D02*
X99340000Y-44787500D01*
D11*
%TO.C,D14_7*%
X88492804Y-36348440D02*
X90092804Y-36348440D01*
X88492804Y-37848440D02*
X90092804Y-37848440D01*
D10*
X88097804Y-36717440D02*
G75*
G03*
X88097804Y-36717440I-75000J0D01*
G01*
G36*
X88992804Y-36698440D02*
G01*
X88992804Y-36498440D01*
X89192804Y-36498440D01*
X88992804Y-36698440D01*
G37*
D12*
%TO.C,R13*%
X75105000Y-46796359D02*
X75105000Y-47103641D01*
X74345000Y-46796359D02*
X74345000Y-47103641D01*
D11*
%TO.C,D18_7*%
X100490748Y-36348440D02*
X102090748Y-36348440D01*
X100490748Y-37848440D02*
X102090748Y-37848440D01*
D10*
X100095748Y-36717440D02*
G75*
G03*
X100095748Y-36717440I-75000J0D01*
G01*
G36*
X100990748Y-36698440D02*
G01*
X100990748Y-36498440D01*
X101190748Y-36498440D01*
X100990748Y-36698440D01*
G37*
D12*
%TO.C,TP5*%
X52250000Y-50600000D02*
G75*
G03*
X52250000Y-50600000I-700000J0D01*
G01*
D11*
%TO.C,D1_1*%
X49499486Y-18350000D02*
X51099486Y-18350000D01*
X49499486Y-19850000D02*
X51099486Y-19850000D01*
D10*
X49104486Y-18719000D02*
G75*
G03*
X49104486Y-18719000I-75000J0D01*
G01*
G36*
X49999486Y-18700000D02*
G01*
X49999486Y-18500000D01*
X50199486Y-18500000D01*
X49999486Y-18700000D01*
G37*
%TO.C,RU6*%
X128975000Y-47500000D02*
X129450000Y-47500000D01*
X128975000Y-47500000D02*
X128975000Y-43350000D01*
X129450000Y-47500000D02*
X129450000Y-48625000D01*
X137925000Y-47500000D02*
X137367500Y-47500000D01*
X137925000Y-47500000D02*
X137925000Y-43350000D01*
X128975000Y-43350000D02*
X129532500Y-43350000D01*
X137925000Y-43350000D02*
X137367500Y-43350000D01*
D11*
%TO.C,D31_4*%
X139484066Y-27349220D02*
X141084066Y-27349220D01*
X139484066Y-28849220D02*
X141084066Y-28849220D01*
D10*
X139089066Y-27718220D02*
G75*
G03*
X139089066Y-27718220I-75000J0D01*
G01*
G36*
X139984066Y-27699220D02*
G01*
X139984066Y-27499220D01*
X140184066Y-27499220D01*
X139984066Y-27699220D01*
G37*
D11*
%TO.C,D4_8*%
X58497944Y-39348180D02*
X60097944Y-39348180D01*
X58497944Y-40848180D02*
X60097944Y-40848180D01*
D10*
X58102944Y-39717180D02*
G75*
G03*
X58102944Y-39717180I-75000J0D01*
G01*
G36*
X58997944Y-39698180D02*
G01*
X58997944Y-39498180D01*
X59197944Y-39498180D01*
X58997944Y-39698180D01*
G37*
D11*
%TO.C,D18_3*%
X100490748Y-24349480D02*
X102090748Y-24349480D01*
X100490748Y-25849480D02*
X102090748Y-25849480D01*
D10*
X100095748Y-24718480D02*
G75*
G03*
X100095748Y-24718480I-75000J0D01*
G01*
G36*
X100990748Y-24699480D02*
G01*
X100990748Y-24499480D01*
X101190748Y-24499480D01*
X100990748Y-24699480D01*
G37*
D11*
%TO.C,D23_5*%
X115488178Y-30348960D02*
X117088178Y-30348960D01*
X115488178Y-31848960D02*
X117088178Y-31848960D01*
D10*
X115093178Y-30717960D02*
G75*
G03*
X115093178Y-30717960I-75000J0D01*
G01*
G36*
X115988178Y-30698960D02*
G01*
X115988178Y-30498960D01*
X116188178Y-30498960D01*
X115988178Y-30698960D01*
G37*
D11*
%TO.C,D21_3*%
X109489206Y-24349480D02*
X111089206Y-24349480D01*
X109489206Y-25849480D02*
X111089206Y-25849480D01*
D10*
X109094206Y-24718480D02*
G75*
G03*
X109094206Y-24718480I-75000J0D01*
G01*
G36*
X109989206Y-24699480D02*
G01*
X109989206Y-24499480D01*
X110189206Y-24499480D01*
X109989206Y-24699480D01*
G37*
D11*
%TO.C,D13_4*%
X85493318Y-27349220D02*
X87093318Y-27349220D01*
X85493318Y-28849220D02*
X87093318Y-28849220D01*
D10*
X85098318Y-27718220D02*
G75*
G03*
X85098318Y-27718220I-75000J0D01*
G01*
G36*
X85993318Y-27699220D02*
G01*
X85993318Y-27499220D01*
X86193318Y-27499220D01*
X85993318Y-27699220D01*
G37*
D11*
%TO.C,D24_7*%
X118487664Y-36348440D02*
X120087664Y-36348440D01*
X118487664Y-37848440D02*
X120087664Y-37848440D01*
D10*
X118092664Y-36717440D02*
G75*
G03*
X118092664Y-36717440I-75000J0D01*
G01*
G36*
X118987664Y-36698440D02*
G01*
X118987664Y-36498440D01*
X119187664Y-36498440D01*
X118987664Y-36698440D01*
G37*
D11*
%TO.C,D18_2*%
X100490748Y-21349740D02*
X102090748Y-21349740D01*
X100490748Y-22849740D02*
X102090748Y-22849740D01*
D10*
X100095748Y-21718740D02*
G75*
G03*
X100095748Y-21718740I-75000J0D01*
G01*
G36*
X100990748Y-21699740D02*
G01*
X100990748Y-21499740D01*
X101190748Y-21499740D01*
X100990748Y-21699740D01*
G37*
D12*
%TO.C,R2*%
X99070000Y-46578641D02*
X99070000Y-46271359D01*
X99830000Y-46578641D02*
X99830000Y-46271359D01*
D11*
%TO.C,D24_3*%
X118487664Y-24349480D02*
X120087664Y-24349480D01*
X118487664Y-25849480D02*
X120087664Y-25849480D01*
D10*
X118092664Y-24718480D02*
G75*
G03*
X118092664Y-24718480I-75000J0D01*
G01*
G36*
X118987664Y-24699480D02*
G01*
X118987664Y-24499480D01*
X119187664Y-24499480D01*
X118987664Y-24699480D01*
G37*
D12*
%TO.C,Q5*%
X75060000Y-44137500D02*
X75060000Y-42462500D01*
X75060000Y-44137500D02*
X75060000Y-44787500D01*
X71940000Y-44137500D02*
X71940000Y-43487500D01*
X71940000Y-44137500D02*
X71940000Y-44787500D01*
%TO.C,Q3*%
X62060000Y-44062500D02*
X62060000Y-42387500D01*
X62060000Y-44062500D02*
X62060000Y-44712500D01*
X58940000Y-44062500D02*
X58940000Y-43412500D01*
X58940000Y-44062500D02*
X58940000Y-44712500D01*
D11*
%TO.C,D2_5*%
X52498972Y-30348960D02*
X54098972Y-30348960D01*
X52498972Y-31848960D02*
X54098972Y-31848960D01*
D10*
X52103972Y-30717960D02*
G75*
G03*
X52103972Y-30717960I-75000J0D01*
G01*
G36*
X52998972Y-30698960D02*
G01*
X52998972Y-30498960D01*
X53198972Y-30498960D01*
X52998972Y-30698960D01*
G37*
D12*
%TO.C,R11*%
X62130000Y-46796359D02*
X62130000Y-47103641D01*
X61370000Y-46796359D02*
X61370000Y-47103641D01*
D11*
%TO.C,D17_5*%
X97491262Y-30348960D02*
X99091262Y-30348960D01*
X97491262Y-31848960D02*
X99091262Y-31848960D01*
D10*
X97096262Y-30717960D02*
G75*
G03*
X97096262Y-30717960I-75000J0D01*
G01*
G36*
X97991262Y-30698960D02*
G01*
X97991262Y-30498960D01*
X98191262Y-30498960D01*
X97991262Y-30698960D01*
G37*
D11*
%TO.C,D5_8*%
X61497430Y-39348180D02*
X63097430Y-39348180D01*
X61497430Y-40848180D02*
X63097430Y-40848180D01*
D10*
X61102430Y-39717180D02*
G75*
G03*
X61102430Y-39717180I-75000J0D01*
G01*
G36*
X61997430Y-39698180D02*
G01*
X61997430Y-39498180D01*
X62197430Y-39498180D01*
X61997430Y-39698180D01*
G37*
D11*
%TO.C,D2_6*%
X52498972Y-33348700D02*
X54098972Y-33348700D01*
X52498972Y-34848700D02*
X54098972Y-34848700D01*
D10*
X52103972Y-33717700D02*
G75*
G03*
X52103972Y-33717700I-75000J0D01*
G01*
G36*
X52998972Y-33698700D02*
G01*
X52998972Y-33498700D01*
X53198972Y-33498700D01*
X52998972Y-33698700D01*
G37*
D11*
%TO.C,D20_7*%
X106489720Y-36348440D02*
X108089720Y-36348440D01*
X106489720Y-37848440D02*
X108089720Y-37848440D01*
D10*
X106094720Y-36717440D02*
G75*
G03*
X106094720Y-36717440I-75000J0D01*
G01*
G36*
X106989720Y-36698440D02*
G01*
X106989720Y-36498440D01*
X107189720Y-36498440D01*
X106989720Y-36698440D01*
G37*
D11*
%TO.C,D0_1*%
X46500000Y-18350000D02*
X48100000Y-18350000D01*
X46500000Y-19850000D02*
X48100000Y-19850000D01*
D10*
X46105000Y-18719000D02*
G75*
G03*
X46105000Y-18719000I-75000J0D01*
G01*
G36*
X47000000Y-18700000D02*
G01*
X47000000Y-18500000D01*
X47200000Y-18500000D01*
X47000000Y-18700000D01*
G37*
D11*
%TO.C,D23_6*%
X115488178Y-33348700D02*
X117088178Y-33348700D01*
X115488178Y-34848700D02*
X117088178Y-34848700D01*
D10*
X115093178Y-33717700D02*
G75*
G03*
X115093178Y-33717700I-75000J0D01*
G01*
G36*
X115988178Y-33698700D02*
G01*
X115988178Y-33498700D01*
X116188178Y-33498700D01*
X115988178Y-33698700D01*
G37*
D11*
%TO.C,D10_5*%
X76494860Y-30348960D02*
X78094860Y-30348960D01*
X76494860Y-31848960D02*
X78094860Y-31848960D01*
D10*
X76099860Y-30717960D02*
G75*
G03*
X76099860Y-30717960I-75000J0D01*
G01*
G36*
X76994860Y-30698960D02*
G01*
X76994860Y-30498960D01*
X77194860Y-30498960D01*
X76994860Y-30698960D01*
G37*
D11*
%TO.C,D31_3*%
X139484066Y-24349480D02*
X141084066Y-24349480D01*
X139484066Y-25849480D02*
X141084066Y-25849480D01*
D10*
X139089066Y-24718480D02*
G75*
G03*
X139089066Y-24718480I-75000J0D01*
G01*
G36*
X139984066Y-24699480D02*
G01*
X139984066Y-24499480D01*
X140184066Y-24499480D01*
X139984066Y-24699480D01*
G37*
D12*
%TO.C,C2*%
X89342164Y-41840000D02*
X89557836Y-41840000D01*
X89342164Y-42560000D02*
X89557836Y-42560000D01*
%TO.C,R8*%
X137303641Y-49780000D02*
X136996359Y-49780000D01*
X137303641Y-49020000D02*
X136996359Y-49020000D01*
D11*
%TO.C,D7_8*%
X67496402Y-39348180D02*
X69096402Y-39348180D01*
X67496402Y-40848180D02*
X69096402Y-40848180D01*
D10*
X67101402Y-39717180D02*
G75*
G03*
X67101402Y-39717180I-75000J0D01*
G01*
G36*
X67996402Y-39698180D02*
G01*
X67996402Y-39498180D01*
X68196402Y-39498180D01*
X67996402Y-39698180D01*
G37*
D11*
%TO.C,D5_5*%
X61497430Y-30348960D02*
X63097430Y-30348960D01*
X61497430Y-31848960D02*
X63097430Y-31848960D01*
D10*
X61102430Y-30717960D02*
G75*
G03*
X61102430Y-30717960I-75000J0D01*
G01*
G36*
X61997430Y-30698960D02*
G01*
X61997430Y-30498960D01*
X62197430Y-30498960D01*
X61997430Y-30698960D01*
G37*
D11*
%TO.C,D20_2*%
X106489720Y-21349740D02*
X108089720Y-21349740D01*
X106489720Y-22849740D02*
X108089720Y-22849740D01*
D10*
X106094720Y-21718740D02*
G75*
G03*
X106094720Y-21718740I-75000J0D01*
G01*
G36*
X106989720Y-21699740D02*
G01*
X106989720Y-21499740D01*
X107189720Y-21499740D01*
X106989720Y-21699740D01*
G37*
D11*
%TO.C,D22_5*%
X112487005Y-30348960D02*
X114087005Y-30348960D01*
X112487005Y-31848960D02*
X114087005Y-31848960D01*
D10*
X112092005Y-30717960D02*
G75*
G03*
X112092005Y-30717960I-75000J0D01*
G01*
G36*
X112987005Y-30698960D02*
G01*
X112987005Y-30498960D01*
X113187005Y-30498960D01*
X112987005Y-30698960D01*
G37*
D11*
%TO.C,D17_7*%
X97491262Y-36348440D02*
X99091262Y-36348440D01*
X97491262Y-37848440D02*
X99091262Y-37848440D01*
D10*
X97096262Y-36717440D02*
G75*
G03*
X97096262Y-36717440I-75000J0D01*
G01*
G36*
X97991262Y-36698440D02*
G01*
X97991262Y-36498440D01*
X98191262Y-36498440D01*
X97991262Y-36698440D01*
G37*
D11*
%TO.C,D25_7*%
X121487150Y-36348440D02*
X123087150Y-36348440D01*
X121487150Y-37848440D02*
X123087150Y-37848440D01*
D10*
X121092150Y-36717440D02*
G75*
G03*
X121092150Y-36717440I-75000J0D01*
G01*
G36*
X121987150Y-36698440D02*
G01*
X121987150Y-36498440D01*
X122187150Y-36498440D01*
X121987150Y-36698440D01*
G37*
D11*
%TO.C,D20_8*%
X106489720Y-39348180D02*
X108089720Y-39348180D01*
X106489720Y-40848180D02*
X108089720Y-40848180D01*
D10*
X106094720Y-39717180D02*
G75*
G03*
X106094720Y-39717180I-75000J0D01*
G01*
G36*
X106989720Y-39698180D02*
G01*
X106989720Y-39498180D01*
X107189720Y-39498180D01*
X106989720Y-39698180D01*
G37*
D11*
%TO.C,D28_5*%
X130485608Y-30348960D02*
X132085608Y-30348960D01*
X130485608Y-31848960D02*
X132085608Y-31848960D01*
D10*
X130090608Y-30717960D02*
G75*
G03*
X130090608Y-30717960I-75000J0D01*
G01*
G36*
X130985608Y-30698960D02*
G01*
X130985608Y-30498960D01*
X131185608Y-30498960D01*
X130985608Y-30698960D01*
G37*
D11*
%TO.C,D0_7*%
X46500000Y-36348440D02*
X48100000Y-36348440D01*
X46500000Y-37848440D02*
X48100000Y-37848440D01*
D10*
X46105000Y-36717440D02*
G75*
G03*
X46105000Y-36717440I-75000J0D01*
G01*
G36*
X47000000Y-36698440D02*
G01*
X47000000Y-36498440D01*
X47200000Y-36498440D01*
X47000000Y-36698440D01*
G37*
D11*
%TO.C,D12_3*%
X82493832Y-24349480D02*
X84093832Y-24349480D01*
X82493832Y-25849480D02*
X84093832Y-25849480D01*
D10*
X82098832Y-24718480D02*
G75*
G03*
X82098832Y-24718480I-75000J0D01*
G01*
G36*
X82993832Y-24699480D02*
G01*
X82993832Y-24499480D01*
X83193832Y-24499480D01*
X82993832Y-24699480D01*
G37*
D12*
%TO.C,Y1*%
X87150000Y-47675000D02*
X84850000Y-47675000D01*
X84850000Y-47675000D02*
X84850000Y-50375000D01*
D11*
%TO.C,D14_6*%
X88492804Y-33348700D02*
X90092804Y-33348700D01*
X88492804Y-34848700D02*
X90092804Y-34848700D01*
D10*
X88097804Y-33717700D02*
G75*
G03*
X88097804Y-33717700I-75000J0D01*
G01*
G36*
X88992804Y-33698700D02*
G01*
X88992804Y-33498700D01*
X89192804Y-33498700D01*
X88992804Y-33698700D01*
G37*
D12*
%TO.C,C3*%
X89632836Y-51235000D02*
X89417164Y-51235000D01*
X89632836Y-50515000D02*
X89417164Y-50515000D01*
D11*
%TO.C,D14_5*%
X88492804Y-30348960D02*
X90092804Y-30348960D01*
X88492804Y-31848960D02*
X90092804Y-31848960D01*
D10*
X88097804Y-30717960D02*
G75*
G03*
X88097804Y-30717960I-75000J0D01*
G01*
G36*
X88992804Y-30698960D02*
G01*
X88992804Y-30498960D01*
X89192804Y-30498960D01*
X88992804Y-30698960D01*
G37*
D11*
%TO.C,D16_7*%
X94491776Y-36348440D02*
X96091776Y-36348440D01*
X94491776Y-37848440D02*
X96091776Y-37848440D01*
D10*
X94096776Y-36717440D02*
G75*
G03*
X94096776Y-36717440I-75000J0D01*
G01*
G36*
X94991776Y-36698440D02*
G01*
X94991776Y-36498440D01*
X95191776Y-36498440D01*
X94991776Y-36698440D01*
G37*
D11*
%TO.C,D23_4*%
X115488178Y-27349220D02*
X117088178Y-27349220D01*
X115488178Y-28849220D02*
X117088178Y-28849220D01*
D10*
X115093178Y-27718220D02*
G75*
G03*
X115093178Y-27718220I-75000J0D01*
G01*
G36*
X115988178Y-27699220D02*
G01*
X115988178Y-27499220D01*
X116188178Y-27499220D01*
X115988178Y-27699220D01*
G37*
D11*
%TO.C,D21_5*%
X109489206Y-30348960D02*
X111089206Y-30348960D01*
X109489206Y-31848960D02*
X111089206Y-31848960D01*
D10*
X109094206Y-30717960D02*
G75*
G03*
X109094206Y-30717960I-75000J0D01*
G01*
G36*
X109989206Y-30698960D02*
G01*
X109989206Y-30498960D01*
X110189206Y-30498960D01*
X109989206Y-30698960D01*
G37*
D11*
%TO.C,D7_7*%
X67496402Y-36348440D02*
X69096402Y-36348440D01*
X67496402Y-37848440D02*
X69096402Y-37848440D01*
D10*
X67101402Y-36717440D02*
G75*
G03*
X67101402Y-36717440I-75000J0D01*
G01*
G36*
X67996402Y-36698440D02*
G01*
X67996402Y-36498440D01*
X68196402Y-36498440D01*
X67996402Y-36698440D01*
G37*
D11*
%TO.C,D5_4*%
X61497430Y-27349220D02*
X63097430Y-27349220D01*
X61497430Y-28849220D02*
X63097430Y-28849220D01*
D10*
X61102430Y-27718220D02*
G75*
G03*
X61102430Y-27718220I-75000J0D01*
G01*
G36*
X61997430Y-27699220D02*
G01*
X61997430Y-27499220D01*
X62197430Y-27499220D01*
X61997430Y-27699220D01*
G37*
D11*
%TO.C,D16_3*%
X94491776Y-24349480D02*
X96091776Y-24349480D01*
X94491776Y-25849480D02*
X96091776Y-25849480D01*
D10*
X94096776Y-24718480D02*
G75*
G03*
X94096776Y-24718480I-75000J0D01*
G01*
G36*
X94991776Y-24699480D02*
G01*
X94991776Y-24499480D01*
X95191776Y-24499480D01*
X94991776Y-24699480D01*
G37*
D11*
%TO.C,D28_8*%
X130485608Y-39348180D02*
X132085608Y-39348180D01*
X130485608Y-40848180D02*
X132085608Y-40848180D01*
D10*
X130090608Y-39717180D02*
G75*
G03*
X130090608Y-39717180I-75000J0D01*
G01*
G36*
X130985608Y-39698180D02*
G01*
X130985608Y-39498180D01*
X131185608Y-39498180D01*
X130985608Y-39698180D01*
G37*
D11*
%TO.C,D2_2*%
X52498972Y-21349740D02*
X54098972Y-21349740D01*
X52498972Y-22849740D02*
X54098972Y-22849740D01*
D10*
X52103972Y-21718740D02*
G75*
G03*
X52103972Y-21718740I-75000J0D01*
G01*
G36*
X52998972Y-21699740D02*
G01*
X52998972Y-21499740D01*
X53198972Y-21499740D01*
X52998972Y-21699740D01*
G37*
D11*
%TO.C,D19_7*%
X103490234Y-36348440D02*
X105090234Y-36348440D01*
X103490234Y-37848440D02*
X105090234Y-37848440D01*
D10*
X103095234Y-36717440D02*
G75*
G03*
X103095234Y-36717440I-75000J0D01*
G01*
G36*
X103990234Y-36698440D02*
G01*
X103990234Y-36498440D01*
X104190234Y-36498440D01*
X103990234Y-36698440D01*
G37*
D11*
%TO.C,D17_8*%
X97491262Y-39348180D02*
X99091262Y-39348180D01*
X97491262Y-40848180D02*
X99091262Y-40848180D01*
D10*
X97096262Y-39717180D02*
G75*
G03*
X97096262Y-39717180I-75000J0D01*
G01*
G36*
X97991262Y-39698180D02*
G01*
X97991262Y-39498180D01*
X98191262Y-39498180D01*
X97991262Y-39698180D01*
G37*
%TO.C,RU5*%
X75525000Y-47575000D02*
X76000000Y-47575000D01*
X75525000Y-47575000D02*
X75525000Y-43425000D01*
X76000000Y-47575000D02*
X76000000Y-48700000D01*
X84475000Y-47575000D02*
X83917500Y-47575000D01*
X84475000Y-47575000D02*
X84475000Y-43425000D01*
X75525000Y-43425000D02*
X76082500Y-43425000D01*
X84475000Y-43425000D02*
X83917500Y-43425000D01*
D11*
%TO.C,D5_7*%
X61497430Y-36348440D02*
X63097430Y-36348440D01*
X61497430Y-37848440D02*
X63097430Y-37848440D01*
D10*
X61102430Y-36717440D02*
G75*
G03*
X61102430Y-36717440I-75000J0D01*
G01*
G36*
X61997430Y-36698440D02*
G01*
X61997430Y-36498440D01*
X62197430Y-36498440D01*
X61997430Y-36698440D01*
G37*
D11*
%TO.C,D23_2*%
X115488178Y-21349740D02*
X117088178Y-21349740D01*
X115488178Y-22849740D02*
X117088178Y-22849740D01*
D10*
X115093178Y-21718740D02*
G75*
G03*
X115093178Y-21718740I-75000J0D01*
G01*
G36*
X115988178Y-21699740D02*
G01*
X115988178Y-21499740D01*
X116188178Y-21499740D01*
X115988178Y-21699740D01*
G37*
D11*
%TO.C,D0_4*%
X46500000Y-27349220D02*
X48100000Y-27349220D01*
X46500000Y-28849220D02*
X48100000Y-28849220D01*
D10*
X46105000Y-27718220D02*
G75*
G03*
X46105000Y-27718220I-75000J0D01*
G01*
G36*
X47000000Y-27699220D02*
G01*
X47000000Y-27499220D01*
X47200000Y-27499220D01*
X47000000Y-27699220D01*
G37*
D11*
%TO.C,D15_3*%
X91492290Y-24349480D02*
X93092290Y-24349480D01*
X91492290Y-25849480D02*
X93092290Y-25849480D01*
D10*
X91097290Y-24718480D02*
G75*
G03*
X91097290Y-24718480I-75000J0D01*
G01*
G36*
X91992290Y-24699480D02*
G01*
X91992290Y-24499480D01*
X92192290Y-24499480D01*
X91992290Y-24699480D01*
G37*
D12*
%TO.C,R10*%
X113030000Y-46696359D02*
X113030000Y-47003641D01*
X112270000Y-46696359D02*
X112270000Y-47003641D01*
D11*
%TO.C,D10_4*%
X76494860Y-27349220D02*
X78094860Y-27349220D01*
X76494860Y-28849220D02*
X78094860Y-28849220D01*
D10*
X76099860Y-27718220D02*
G75*
G03*
X76099860Y-27718220I-75000J0D01*
G01*
G36*
X76994860Y-27699220D02*
G01*
X76994860Y-27499220D01*
X77194860Y-27499220D01*
X76994860Y-27699220D01*
G37*
D11*
%TO.C,D14_8*%
X88492804Y-39348180D02*
X90092804Y-39348180D01*
X88492804Y-40848180D02*
X90092804Y-40848180D01*
D10*
X88097804Y-39717180D02*
G75*
G03*
X88097804Y-39717180I-75000J0D01*
G01*
G36*
X88992804Y-39698180D02*
G01*
X88992804Y-39498180D01*
X89192804Y-39498180D01*
X88992804Y-39698180D01*
G37*
D11*
%TO.C,D24_5*%
X118487664Y-30348960D02*
X120087664Y-30348960D01*
X118487664Y-31848960D02*
X120087664Y-31848960D01*
D10*
X118092664Y-30717960D02*
G75*
G03*
X118092664Y-30717960I-75000J0D01*
G01*
G36*
X118987664Y-30698960D02*
G01*
X118987664Y-30498960D01*
X119187664Y-30498960D01*
X118987664Y-30698960D01*
G37*
D11*
%TO.C,D26_1*%
X124484949Y-18350000D02*
X126084949Y-18350000D01*
X124484949Y-19850000D02*
X126084949Y-19850000D01*
D10*
X124089949Y-18719000D02*
G75*
G03*
X124089949Y-18719000I-75000J0D01*
G01*
G36*
X124984949Y-18700000D02*
G01*
X124984949Y-18500000D01*
X125184949Y-18500000D01*
X124984949Y-18700000D01*
G37*
D11*
%TO.C,D2_3*%
X52498972Y-24349480D02*
X54098972Y-24349480D01*
X52498972Y-25849480D02*
X54098972Y-25849480D01*
D10*
X52103972Y-24718480D02*
G75*
G03*
X52103972Y-24718480I-75000J0D01*
G01*
G36*
X52998972Y-24699480D02*
G01*
X52998972Y-24499480D01*
X53198972Y-24499480D01*
X52998972Y-24699480D01*
G37*
D12*
%TO.C,R3*%
X59630000Y-46796359D02*
X59630000Y-47103641D01*
X58870000Y-46796359D02*
X58870000Y-47103641D01*
D11*
%TO.C,D31_2*%
X139484066Y-21349740D02*
X141084066Y-21349740D01*
X139484066Y-22849740D02*
X141084066Y-22849740D01*
D10*
X139089066Y-21718740D02*
G75*
G03*
X139089066Y-21718740I-75000J0D01*
G01*
G36*
X139984066Y-21699740D02*
G01*
X139984066Y-21499740D01*
X140184066Y-21499740D01*
X139984066Y-21699740D01*
G37*
D11*
%TO.C,D11_7*%
X79494346Y-36348440D02*
X81094346Y-36348440D01*
X79494346Y-37848440D02*
X81094346Y-37848440D01*
D10*
X79099346Y-36717440D02*
G75*
G03*
X79099346Y-36717440I-75000J0D01*
G01*
G36*
X79994346Y-36698440D02*
G01*
X79994346Y-36498440D01*
X80194346Y-36498440D01*
X79994346Y-36698440D01*
G37*
D11*
%TO.C,D29_7*%
X133485094Y-36348440D02*
X135085094Y-36348440D01*
X133485094Y-37848440D02*
X135085094Y-37848440D01*
D10*
X133090094Y-36717440D02*
G75*
G03*
X133090094Y-36717440I-75000J0D01*
G01*
G36*
X133985094Y-36698440D02*
G01*
X133985094Y-36498440D01*
X134185094Y-36498440D01*
X133985094Y-36698440D01*
G37*
D11*
%TO.C,D18_5*%
X100490748Y-30348960D02*
X102090748Y-30348960D01*
X100490748Y-31848960D02*
X102090748Y-31848960D01*
D10*
X100095748Y-30717960D02*
G75*
G03*
X100095748Y-30717960I-75000J0D01*
G01*
G36*
X100990748Y-30698960D02*
G01*
X100990748Y-30498960D01*
X101190748Y-30498960D01*
X100990748Y-30698960D01*
G37*
D11*
%TO.C,D27_8*%
X127486122Y-39348180D02*
X129086122Y-39348180D01*
X127486122Y-40848180D02*
X129086122Y-40848180D01*
D10*
X127091122Y-39717180D02*
G75*
G03*
X127091122Y-39717180I-75000J0D01*
G01*
G36*
X127986122Y-39698180D02*
G01*
X127986122Y-39498180D01*
X128186122Y-39498180D01*
X127986122Y-39698180D01*
G37*
D11*
%TO.C,D0_5*%
X46500000Y-30348960D02*
X48100000Y-30348960D01*
X46500000Y-31848960D02*
X48100000Y-31848960D01*
D10*
X46105000Y-30717960D02*
G75*
G03*
X46105000Y-30717960I-75000J0D01*
G01*
G36*
X47000000Y-30698960D02*
G01*
X47000000Y-30498960D01*
X47200000Y-30498960D01*
X47000000Y-30698960D01*
G37*
D11*
%TO.C,D19_6*%
X103490234Y-33348700D02*
X105090234Y-33348700D01*
X103490234Y-34848700D02*
X105090234Y-34848700D01*
D10*
X103095234Y-33717700D02*
G75*
G03*
X103095234Y-33717700I-75000J0D01*
G01*
G36*
X103990234Y-33698700D02*
G01*
X103990234Y-33498700D01*
X104190234Y-33498700D01*
X103990234Y-33698700D01*
G37*
D12*
%TO.C,TP9*%
X114700000Y-46800000D02*
G75*
G03*
X114700000Y-46800000I-700000J0D01*
G01*
D11*
%TO.C,D13_8*%
X85493318Y-39348180D02*
X87093318Y-39348180D01*
X85493318Y-40848180D02*
X87093318Y-40848180D01*
D10*
X85098318Y-39717180D02*
G75*
G03*
X85098318Y-39717180I-75000J0D01*
G01*
G36*
X85993318Y-39698180D02*
G01*
X85993318Y-39498180D01*
X86193318Y-39498180D01*
X85993318Y-39698180D01*
G37*
D11*
%TO.C,D5_3*%
X61497430Y-24349480D02*
X63097430Y-24349480D01*
X61497430Y-25849480D02*
X63097430Y-25849480D01*
D10*
X61102430Y-24718480D02*
G75*
G03*
X61102430Y-24718480I-75000J0D01*
G01*
G36*
X61997430Y-24699480D02*
G01*
X61997430Y-24499480D01*
X62197430Y-24499480D01*
X61997430Y-24699480D01*
G37*
D11*
%TO.C,D22_1*%
X112487005Y-18350000D02*
X114087005Y-18350000D01*
X112487005Y-19850000D02*
X114087005Y-19850000D01*
D10*
X112092005Y-18719000D02*
G75*
G03*
X112092005Y-18719000I-75000J0D01*
G01*
G36*
X112987005Y-18700000D02*
G01*
X112987005Y-18500000D01*
X113187005Y-18500000D01*
X112987005Y-18700000D01*
G37*
D11*
%TO.C,D14_2*%
X88492804Y-21349740D02*
X90092804Y-21349740D01*
X88492804Y-22849740D02*
X90092804Y-22849740D01*
D10*
X88097804Y-21718740D02*
G75*
G03*
X88097804Y-21718740I-75000J0D01*
G01*
G36*
X88992804Y-21699740D02*
G01*
X88992804Y-21499740D01*
X89192804Y-21499740D01*
X88992804Y-21699740D01*
G37*
D11*
%TO.C,D1_2*%
X49499486Y-21349740D02*
X51099486Y-21349740D01*
X49499486Y-22849740D02*
X51099486Y-22849740D01*
D10*
X49104486Y-21718740D02*
G75*
G03*
X49104486Y-21718740I-75000J0D01*
G01*
G36*
X49999486Y-21699740D02*
G01*
X49999486Y-21499740D01*
X50199486Y-21499740D01*
X49999486Y-21699740D01*
G37*
D12*
%TO.C,R7*%
X137303641Y-50730000D02*
X136996359Y-50730000D01*
X137303641Y-49970000D02*
X136996359Y-49970000D01*
D11*
%TO.C,D22_4*%
X112487005Y-27349220D02*
X114087005Y-27349220D01*
X112487005Y-28849220D02*
X114087005Y-28849220D01*
D10*
X112092005Y-27718220D02*
G75*
G03*
X112092005Y-27718220I-75000J0D01*
G01*
G36*
X112987005Y-27699220D02*
G01*
X112987005Y-27499220D01*
X113187005Y-27499220D01*
X112987005Y-27699220D01*
G37*
D11*
%TO.C,D24_2*%
X118487664Y-21349740D02*
X120087664Y-21349740D01*
X118487664Y-22849740D02*
X120087664Y-22849740D01*
D10*
X118092664Y-21718740D02*
G75*
G03*
X118092664Y-21718740I-75000J0D01*
G01*
G36*
X118987664Y-21699740D02*
G01*
X118987664Y-21499740D01*
X119187664Y-21499740D01*
X118987664Y-21699740D01*
G37*
D11*
%TO.C,D20_6*%
X106489720Y-33348700D02*
X108089720Y-33348700D01*
X106489720Y-34848700D02*
X108089720Y-34848700D01*
D10*
X106094720Y-33717700D02*
G75*
G03*
X106094720Y-33717700I-75000J0D01*
G01*
G36*
X106989720Y-33698700D02*
G01*
X106989720Y-33498700D01*
X107189720Y-33498700D01*
X106989720Y-33698700D01*
G37*
D11*
%TO.C,D19_1*%
X103490234Y-18350000D02*
X105090234Y-18350000D01*
X103490234Y-19850000D02*
X105090234Y-19850000D01*
D10*
X103095234Y-18719000D02*
G75*
G03*
X103095234Y-18719000I-75000J0D01*
G01*
G36*
X103990234Y-18700000D02*
G01*
X103990234Y-18500000D01*
X104190234Y-18500000D01*
X103990234Y-18700000D01*
G37*
D11*
%TO.C,D25_8*%
X121487150Y-39348180D02*
X123087150Y-39348180D01*
X121487150Y-40848180D02*
X123087150Y-40848180D01*
D10*
X121092150Y-39717180D02*
G75*
G03*
X121092150Y-39717180I-75000J0D01*
G01*
G36*
X121987150Y-39698180D02*
G01*
X121987150Y-39498180D01*
X122187150Y-39498180D01*
X121987150Y-39698180D01*
G37*
D11*
%TO.C,D15_1*%
X91492290Y-18350000D02*
X93092290Y-18350000D01*
X91492290Y-19850000D02*
X93092290Y-19850000D01*
D10*
X91097290Y-18719000D02*
G75*
G03*
X91097290Y-18719000I-75000J0D01*
G01*
G36*
X91992290Y-18700000D02*
G01*
X91992290Y-18500000D01*
X92192290Y-18500000D01*
X91992290Y-18700000D01*
G37*
D11*
%TO.C,D26_6*%
X124484949Y-33348700D02*
X126084949Y-33348700D01*
X124484949Y-34848700D02*
X126084949Y-34848700D01*
D10*
X124089949Y-33717700D02*
G75*
G03*
X124089949Y-33717700I-75000J0D01*
G01*
G36*
X124984949Y-33698700D02*
G01*
X124984949Y-33498700D01*
X125184949Y-33498700D01*
X124984949Y-33698700D01*
G37*
D11*
%TO.C,D21_2*%
X109489206Y-21349740D02*
X111089206Y-21349740D01*
X109489206Y-22849740D02*
X111089206Y-22849740D01*
D10*
X109094206Y-21718740D02*
G75*
G03*
X109094206Y-21718740I-75000J0D01*
G01*
G36*
X109989206Y-21699740D02*
G01*
X109989206Y-21499740D01*
X110189206Y-21499740D01*
X109989206Y-21699740D01*
G37*
D11*
%TO.C,D23_3*%
X115488178Y-24349480D02*
X117088178Y-24349480D01*
X115488178Y-25849480D02*
X117088178Y-25849480D01*
D10*
X115093178Y-24718480D02*
G75*
G03*
X115093178Y-24718480I-75000J0D01*
G01*
G36*
X115988178Y-24699480D02*
G01*
X115988178Y-24499480D01*
X116188178Y-24499480D01*
X115988178Y-24699480D01*
G37*
D11*
%TO.C,D22_3*%
X112487005Y-24349480D02*
X114087005Y-24349480D01*
X112487005Y-25849480D02*
X114087005Y-25849480D01*
D10*
X112092005Y-24718480D02*
G75*
G03*
X112092005Y-24718480I-75000J0D01*
G01*
G36*
X112987005Y-24699480D02*
G01*
X112987005Y-24499480D01*
X113187005Y-24499480D01*
X112987005Y-24699480D01*
G37*
D11*
%TO.C,D1_3*%
X49499486Y-24349480D02*
X51099486Y-24349480D01*
X49499486Y-25849480D02*
X51099486Y-25849480D01*
D10*
X49104486Y-24718480D02*
G75*
G03*
X49104486Y-24718480I-75000J0D01*
G01*
G36*
X49999486Y-24699480D02*
G01*
X49999486Y-24499480D01*
X50199486Y-24499480D01*
X49999486Y-24699480D01*
G37*
D11*
%TO.C,D28_1*%
X130485608Y-18350000D02*
X132085608Y-18350000D01*
X130485608Y-19850000D02*
X132085608Y-19850000D01*
D10*
X130090608Y-18719000D02*
G75*
G03*
X130090608Y-18719000I-75000J0D01*
G01*
G36*
X130985608Y-18700000D02*
G01*
X130985608Y-18500000D01*
X131185608Y-18500000D01*
X130985608Y-18700000D01*
G37*
D11*
%TO.C,D14_4*%
X88492804Y-27349220D02*
X90092804Y-27349220D01*
X88492804Y-28849220D02*
X90092804Y-28849220D01*
D10*
X88097804Y-27718220D02*
G75*
G03*
X88097804Y-27718220I-75000J0D01*
G01*
G36*
X88992804Y-27699220D02*
G01*
X88992804Y-27499220D01*
X89192804Y-27499220D01*
X88992804Y-27699220D01*
G37*
D11*
%TO.C,D12_7*%
X82493832Y-36348440D02*
X84093832Y-36348440D01*
X82493832Y-37848440D02*
X84093832Y-37848440D01*
D10*
X82098832Y-36717440D02*
G75*
G03*
X82098832Y-36717440I-75000J0D01*
G01*
G36*
X82993832Y-36698440D02*
G01*
X82993832Y-36498440D01*
X83193832Y-36498440D01*
X82993832Y-36698440D01*
G37*
D11*
%TO.C,D20_1*%
X106489720Y-18350000D02*
X108089720Y-18350000D01*
X106489720Y-19850000D02*
X108089720Y-19850000D01*
D10*
X106094720Y-18719000D02*
G75*
G03*
X106094720Y-18719000I-75000J0D01*
G01*
G36*
X106989720Y-18700000D02*
G01*
X106989720Y-18500000D01*
X107189720Y-18500000D01*
X106989720Y-18700000D01*
G37*
D11*
%TO.C,D27_5*%
X127486122Y-30348960D02*
X129086122Y-30348960D01*
X127486122Y-31848960D02*
X129086122Y-31848960D01*
D10*
X127091122Y-30717960D02*
G75*
G03*
X127091122Y-30717960I-75000J0D01*
G01*
G36*
X127986122Y-30698960D02*
G01*
X127986122Y-30498960D01*
X128186122Y-30498960D01*
X127986122Y-30698960D01*
G37*
D12*
%TO.C,Q1*%
X49060000Y-44000000D02*
X49060000Y-42325000D01*
X49060000Y-44000000D02*
X49060000Y-44650000D01*
X45940000Y-44000000D02*
X45940000Y-43350000D01*
X45940000Y-44000000D02*
X45940000Y-44650000D01*
D11*
%TO.C,D14_3*%
X88492804Y-24349480D02*
X90092804Y-24349480D01*
X88492804Y-25849480D02*
X90092804Y-25849480D01*
D10*
X88097804Y-24718480D02*
G75*
G03*
X88097804Y-24718480I-75000J0D01*
G01*
G36*
X88992804Y-24699480D02*
G01*
X88992804Y-24499480D01*
X89192804Y-24499480D01*
X88992804Y-24699480D01*
G37*
D12*
%TO.C,Q4*%
X115560000Y-44037500D02*
X115560000Y-42362500D01*
X115560000Y-44037500D02*
X115560000Y-44687500D01*
X112440000Y-44037500D02*
X112440000Y-43387500D01*
X112440000Y-44037500D02*
X112440000Y-44687500D01*
D11*
%TO.C,D6_8*%
X64496916Y-39348180D02*
X66096916Y-39348180D01*
X64496916Y-40848180D02*
X66096916Y-40848180D01*
D10*
X64101916Y-39717180D02*
G75*
G03*
X64101916Y-39717180I-75000J0D01*
G01*
G36*
X64996916Y-39698180D02*
G01*
X64996916Y-39498180D01*
X65196916Y-39498180D01*
X64996916Y-39698180D01*
G37*
D11*
%TO.C,D23_1*%
X115488178Y-18350000D02*
X117088178Y-18350000D01*
X115488178Y-19850000D02*
X117088178Y-19850000D01*
D10*
X115093178Y-18719000D02*
G75*
G03*
X115093178Y-18719000I-75000J0D01*
G01*
G36*
X115988178Y-18700000D02*
G01*
X115988178Y-18500000D01*
X116188178Y-18500000D01*
X115988178Y-18700000D01*
G37*
D11*
%TO.C,D10_1*%
X76494860Y-18350000D02*
X78094860Y-18350000D01*
X76494860Y-19850000D02*
X78094860Y-19850000D01*
D10*
X76099860Y-18719000D02*
G75*
G03*
X76099860Y-18719000I-75000J0D01*
G01*
G36*
X76994860Y-18700000D02*
G01*
X76994860Y-18500000D01*
X77194860Y-18500000D01*
X76994860Y-18700000D01*
G37*
D11*
%TO.C,D19_4*%
X103490234Y-27349220D02*
X105090234Y-27349220D01*
X103490234Y-28849220D02*
X105090234Y-28849220D01*
D10*
X103095234Y-27718220D02*
G75*
G03*
X103095234Y-27718220I-75000J0D01*
G01*
G36*
X103990234Y-27699220D02*
G01*
X103990234Y-27499220D01*
X104190234Y-27499220D01*
X103990234Y-27699220D01*
G37*
D11*
%TO.C,D1_6*%
X49499486Y-33348700D02*
X51099486Y-33348700D01*
X49499486Y-34848700D02*
X51099486Y-34848700D01*
D10*
X49104486Y-33717700D02*
G75*
G03*
X49104486Y-33717700I-75000J0D01*
G01*
G36*
X49999486Y-33698700D02*
G01*
X49999486Y-33498700D01*
X50199486Y-33498700D01*
X49999486Y-33698700D01*
G37*
D11*
%TO.C,D3_3*%
X55498458Y-24349480D02*
X57098458Y-24349480D01*
X55498458Y-25849480D02*
X57098458Y-25849480D01*
D10*
X55103458Y-24718480D02*
G75*
G03*
X55103458Y-24718480I-75000J0D01*
G01*
G36*
X55998458Y-24699480D02*
G01*
X55998458Y-24499480D01*
X56198458Y-24499480D01*
X55998458Y-24699480D01*
G37*
D11*
%TO.C,D5_2*%
X61497430Y-21349740D02*
X63097430Y-21349740D01*
X61497430Y-22849740D02*
X63097430Y-22849740D01*
D10*
X61102430Y-21718740D02*
G75*
G03*
X61102430Y-21718740I-75000J0D01*
G01*
G36*
X61997430Y-21699740D02*
G01*
X61997430Y-21499740D01*
X62197430Y-21499740D01*
X61997430Y-21699740D01*
G37*
D11*
%TO.C,D30_6*%
X136484580Y-33348700D02*
X138084580Y-33348700D01*
X136484580Y-34848700D02*
X138084580Y-34848700D01*
D10*
X136089580Y-33717700D02*
G75*
G03*
X136089580Y-33717700I-75000J0D01*
G01*
G36*
X136984580Y-33698700D02*
G01*
X136984580Y-33498700D01*
X137184580Y-33498700D01*
X136984580Y-33698700D01*
G37*
D11*
%TO.C,D15_5*%
X91492290Y-30348960D02*
X93092290Y-30348960D01*
X91492290Y-31848960D02*
X93092290Y-31848960D01*
D10*
X91097290Y-30717960D02*
G75*
G03*
X91097290Y-30717960I-75000J0D01*
G01*
G36*
X91992290Y-30698960D02*
G01*
X91992290Y-30498960D01*
X92192290Y-30498960D01*
X91992290Y-30698960D01*
G37*
D11*
%TO.C,D28_3*%
X130485608Y-24349480D02*
X132085608Y-24349480D01*
X130485608Y-25849480D02*
X132085608Y-25849480D01*
D10*
X130090608Y-24718480D02*
G75*
G03*
X130090608Y-24718480I-75000J0D01*
G01*
G36*
X130985608Y-24699480D02*
G01*
X130985608Y-24499480D01*
X131185608Y-24499480D01*
X130985608Y-24699480D01*
G37*
D11*
%TO.C,D7_2*%
X67496402Y-21349740D02*
X69096402Y-21349740D01*
X67496402Y-22849740D02*
X69096402Y-22849740D01*
D10*
X67101402Y-21718740D02*
G75*
G03*
X67101402Y-21718740I-75000J0D01*
G01*
G36*
X67996402Y-21699740D02*
G01*
X67996402Y-21499740D01*
X68196402Y-21499740D01*
X67996402Y-21699740D01*
G37*
D11*
%TO.C,D10_6*%
X76494860Y-33348700D02*
X78094860Y-33348700D01*
X76494860Y-34848700D02*
X78094860Y-34848700D01*
D10*
X76099860Y-33717700D02*
G75*
G03*
X76099860Y-33717700I-75000J0D01*
G01*
G36*
X76994860Y-33698700D02*
G01*
X76994860Y-33498700D01*
X77194860Y-33498700D01*
X76994860Y-33698700D01*
G37*
D12*
%TO.C,R5*%
X72680000Y-46796359D02*
X72680000Y-47103641D01*
X71920000Y-46796359D02*
X71920000Y-47103641D01*
D11*
%TO.C,D18_6*%
X100490748Y-33348700D02*
X102090748Y-33348700D01*
X100490748Y-34848700D02*
X102090748Y-34848700D01*
D10*
X100095748Y-33717700D02*
G75*
G03*
X100095748Y-33717700I-75000J0D01*
G01*
G36*
X100990748Y-33698700D02*
G01*
X100990748Y-33498700D01*
X101190748Y-33498700D01*
X100990748Y-33698700D01*
G37*
D11*
%TO.C,D11_1*%
X79494346Y-18350000D02*
X81094346Y-18350000D01*
X79494346Y-19850000D02*
X81094346Y-19850000D01*
D10*
X79099346Y-18719000D02*
G75*
G03*
X79099346Y-18719000I-75000J0D01*
G01*
G36*
X79994346Y-18700000D02*
G01*
X79994346Y-18500000D01*
X80194346Y-18500000D01*
X79994346Y-18700000D01*
G37*
D11*
%TO.C,D21_1*%
X109489206Y-18350000D02*
X111089206Y-18350000D01*
X109489206Y-19850000D02*
X111089206Y-19850000D01*
D10*
X109094206Y-18719000D02*
G75*
G03*
X109094206Y-18719000I-75000J0D01*
G01*
G36*
X109989206Y-18700000D02*
G01*
X109989206Y-18500000D01*
X110189206Y-18500000D01*
X109989206Y-18700000D01*
G37*
D11*
%TO.C,D1_7*%
X49499486Y-36348440D02*
X51099486Y-36348440D01*
X49499486Y-37848440D02*
X51099486Y-37848440D01*
D10*
X49104486Y-36717440D02*
G75*
G03*
X49104486Y-36717440I-75000J0D01*
G01*
G36*
X49999486Y-36698440D02*
G01*
X49999486Y-36498440D01*
X50199486Y-36498440D01*
X49999486Y-36698440D01*
G37*
D11*
%TO.C,D27_1*%
X127486122Y-18350000D02*
X129086122Y-18350000D01*
X127486122Y-19850000D02*
X129086122Y-19850000D01*
D10*
X127091122Y-18719000D02*
G75*
G03*
X127091122Y-18719000I-75000J0D01*
G01*
G36*
X127986122Y-18700000D02*
G01*
X127986122Y-18500000D01*
X128186122Y-18500000D01*
X127986122Y-18700000D01*
G37*
D11*
%TO.C,D24_6*%
X118487664Y-33348700D02*
X120087664Y-33348700D01*
X118487664Y-34848700D02*
X120087664Y-34848700D01*
D10*
X118092664Y-33717700D02*
G75*
G03*
X118092664Y-33717700I-75000J0D01*
G01*
G36*
X118987664Y-33698700D02*
G01*
X118987664Y-33498700D01*
X119187664Y-33498700D01*
X118987664Y-33698700D01*
G37*
D11*
%TO.C,D9_8*%
X73495374Y-39348180D02*
X75095374Y-39348180D01*
X73495374Y-40848180D02*
X75095374Y-40848180D01*
D10*
X73100374Y-39717180D02*
G75*
G03*
X73100374Y-39717180I-75000J0D01*
G01*
G36*
X73995374Y-39698180D02*
G01*
X73995374Y-39498180D01*
X74195374Y-39498180D01*
X73995374Y-39698180D01*
G37*
D11*
%TO.C,D8_1*%
X70495888Y-18350000D02*
X72095888Y-18350000D01*
X70495888Y-19850000D02*
X72095888Y-19850000D01*
D10*
X70100888Y-18719000D02*
G75*
G03*
X70100888Y-18719000I-75000J0D01*
G01*
G36*
X70995888Y-18700000D02*
G01*
X70995888Y-18500000D01*
X71195888Y-18500000D01*
X70995888Y-18700000D01*
G37*
D11*
%TO.C,D25_5*%
X121487150Y-30348960D02*
X123087150Y-30348960D01*
X121487150Y-31848960D02*
X123087150Y-31848960D01*
D10*
X121092150Y-30717960D02*
G75*
G03*
X121092150Y-30717960I-75000J0D01*
G01*
G36*
X121987150Y-30698960D02*
G01*
X121987150Y-30498960D01*
X122187150Y-30498960D01*
X121987150Y-30698960D01*
G37*
D11*
%TO.C,D12_6*%
X82493832Y-33348700D02*
X84093832Y-33348700D01*
X82493832Y-34848700D02*
X84093832Y-34848700D01*
D10*
X82098832Y-33717700D02*
G75*
G03*
X82098832Y-33717700I-75000J0D01*
G01*
G36*
X82993832Y-33698700D02*
G01*
X82993832Y-33498700D01*
X83193832Y-33498700D01*
X82993832Y-33698700D01*
G37*
D11*
%TO.C,D0_8*%
X46500000Y-39348180D02*
X48100000Y-39348180D01*
X46500000Y-40848180D02*
X48100000Y-40848180D01*
D10*
X46105000Y-39717180D02*
G75*
G03*
X46105000Y-39717180I-75000J0D01*
G01*
G36*
X47000000Y-39698180D02*
G01*
X47000000Y-39498180D01*
X47200000Y-39498180D01*
X47000000Y-39698180D01*
G37*
D11*
%TO.C,D16_4*%
X94491776Y-27349220D02*
X96091776Y-27349220D01*
X94491776Y-28849220D02*
X96091776Y-28849220D01*
D10*
X94096776Y-27718220D02*
G75*
G03*
X94096776Y-27718220I-75000J0D01*
G01*
G36*
X94991776Y-27699220D02*
G01*
X94991776Y-27499220D01*
X95191776Y-27499220D01*
X94991776Y-27699220D01*
G37*
D11*
%TO.C,D19_5*%
X103490234Y-30348960D02*
X105090234Y-30348960D01*
X103490234Y-31848960D02*
X105090234Y-31848960D01*
D10*
X103095234Y-30717960D02*
G75*
G03*
X103095234Y-30717960I-75000J0D01*
G01*
G36*
X103990234Y-30698960D02*
G01*
X103990234Y-30498960D01*
X104190234Y-30498960D01*
X103990234Y-30698960D01*
G37*
D11*
%TO.C,D11_4*%
X79494346Y-27349220D02*
X81094346Y-27349220D01*
X79494346Y-28849220D02*
X81094346Y-28849220D01*
D10*
X79099346Y-27718220D02*
G75*
G03*
X79099346Y-27718220I-75000J0D01*
G01*
G36*
X79994346Y-27699220D02*
G01*
X79994346Y-27499220D01*
X80194346Y-27499220D01*
X79994346Y-27699220D01*
G37*
D11*
%TO.C,D9_6*%
X73495374Y-33348700D02*
X75095374Y-33348700D01*
X73495374Y-34848700D02*
X75095374Y-34848700D01*
D10*
X73100374Y-33717700D02*
G75*
G03*
X73100374Y-33717700I-75000J0D01*
G01*
G36*
X73995374Y-33698700D02*
G01*
X73995374Y-33498700D01*
X74195374Y-33498700D01*
X73995374Y-33698700D01*
G37*
D11*
%TO.C,D29_6*%
X133485094Y-33348700D02*
X135085094Y-33348700D01*
X133485094Y-34848700D02*
X135085094Y-34848700D01*
D10*
X133090094Y-33717700D02*
G75*
G03*
X133090094Y-33717700I-75000J0D01*
G01*
G36*
X133985094Y-33698700D02*
G01*
X133985094Y-33498700D01*
X134185094Y-33498700D01*
X133985094Y-33698700D01*
G37*
%TO.C,RU3*%
X62525000Y-47575000D02*
X63000000Y-47575000D01*
X62525000Y-47575000D02*
X62525000Y-43425000D01*
X63000000Y-47575000D02*
X63000000Y-48700000D01*
X71475000Y-47575000D02*
X70917500Y-47575000D01*
X71475000Y-47575000D02*
X71475000Y-43425000D01*
X62525000Y-43425000D02*
X63082500Y-43425000D01*
X71475000Y-43425000D02*
X70917500Y-43425000D01*
D11*
%TO.C,D31_8*%
X139484066Y-39348180D02*
X141084066Y-39348180D01*
X139484066Y-40848180D02*
X141084066Y-40848180D01*
D10*
X139089066Y-39717180D02*
G75*
G03*
X139089066Y-39717180I-75000J0D01*
G01*
G36*
X139984066Y-39698180D02*
G01*
X139984066Y-39498180D01*
X140184066Y-39498180D01*
X139984066Y-39698180D01*
G37*
D11*
%TO.C,D3_4*%
X55498458Y-27349220D02*
X57098458Y-27349220D01*
X55498458Y-28849220D02*
X57098458Y-28849220D01*
D10*
X55103458Y-27718220D02*
G75*
G03*
X55103458Y-27718220I-75000J0D01*
G01*
G36*
X55998458Y-27699220D02*
G01*
X55998458Y-27499220D01*
X56198458Y-27499220D01*
X55998458Y-27699220D01*
G37*
D11*
%TO.C,D30_1*%
X136484580Y-18350000D02*
X138084580Y-18350000D01*
X136484580Y-19850000D02*
X138084580Y-19850000D01*
D10*
X136089580Y-18719000D02*
G75*
G03*
X136089580Y-18719000I-75000J0D01*
G01*
G36*
X136984580Y-18700000D02*
G01*
X136984580Y-18500000D01*
X137184580Y-18500000D01*
X136984580Y-18700000D01*
G37*
D11*
%TO.C,D31_5*%
X139484066Y-30348960D02*
X141084066Y-30348960D01*
X139484066Y-31848960D02*
X141084066Y-31848960D01*
D10*
X139089066Y-30717960D02*
G75*
G03*
X139089066Y-30717960I-75000J0D01*
G01*
G36*
X139984066Y-30698960D02*
G01*
X139984066Y-30498960D01*
X140184066Y-30498960D01*
X139984066Y-30698960D01*
G37*
D12*
%TO.C,TP28*%
X60450000Y-50650000D02*
G75*
G03*
X60450000Y-50650000I-700000J0D01*
G01*
D11*
%TO.C,D25_4*%
X121487150Y-27349220D02*
X123087150Y-27349220D01*
X121487150Y-28849220D02*
X123087150Y-28849220D01*
D10*
X121092150Y-27718220D02*
G75*
G03*
X121092150Y-27718220I-75000J0D01*
G01*
G36*
X121987150Y-27699220D02*
G01*
X121987150Y-27499220D01*
X122187150Y-27499220D01*
X121987150Y-27699220D01*
G37*
D11*
%TO.C,D11_8*%
X79494346Y-39348180D02*
X81094346Y-39348180D01*
X79494346Y-40848180D02*
X81094346Y-40848180D01*
D10*
X79099346Y-39717180D02*
G75*
G03*
X79099346Y-39717180I-75000J0D01*
G01*
G36*
X79994346Y-39698180D02*
G01*
X79994346Y-39498180D01*
X80194346Y-39498180D01*
X79994346Y-39698180D01*
G37*
D11*
%TO.C,D26_2*%
X124484949Y-21349740D02*
X126084949Y-21349740D01*
X124484949Y-22849740D02*
X126084949Y-22849740D01*
D10*
X124089949Y-21718740D02*
G75*
G03*
X124089949Y-21718740I-75000J0D01*
G01*
G36*
X124984949Y-21699740D02*
G01*
X124984949Y-21499740D01*
X125184949Y-21499740D01*
X124984949Y-21699740D01*
G37*
D11*
%TO.C,D27_6*%
X127486122Y-33348700D02*
X129086122Y-33348700D01*
X127486122Y-34848700D02*
X129086122Y-34848700D01*
D10*
X127091122Y-33717700D02*
G75*
G03*
X127091122Y-33717700I-75000J0D01*
G01*
G36*
X127986122Y-33698700D02*
G01*
X127986122Y-33498700D01*
X128186122Y-33498700D01*
X127986122Y-33698700D01*
G37*
D11*
%TO.C,D31_6*%
X139484066Y-33348700D02*
X141084066Y-33348700D01*
X139484066Y-34848700D02*
X141084066Y-34848700D01*
D10*
X139089066Y-33717700D02*
G75*
G03*
X139089066Y-33717700I-75000J0D01*
G01*
G36*
X139984066Y-33698700D02*
G01*
X139984066Y-33498700D01*
X140184066Y-33498700D01*
X139984066Y-33698700D01*
G37*
D11*
%TO.C,D6_3*%
X64496916Y-24349480D02*
X66096916Y-24349480D01*
X64496916Y-25849480D02*
X66096916Y-25849480D01*
D10*
X64101916Y-24718480D02*
G75*
G03*
X64101916Y-24718480I-75000J0D01*
G01*
G36*
X64996916Y-24699480D02*
G01*
X64996916Y-24499480D01*
X65196916Y-24499480D01*
X64996916Y-24699480D01*
G37*
D11*
%TO.C,D8_3*%
X70495888Y-24349480D02*
X72095888Y-24349480D01*
X70495888Y-25849480D02*
X72095888Y-25849480D01*
D10*
X70100888Y-24718480D02*
G75*
G03*
X70100888Y-24718480I-75000J0D01*
G01*
G36*
X70995888Y-24699480D02*
G01*
X70995888Y-24499480D01*
X71195888Y-24499480D01*
X70995888Y-24699480D01*
G37*
D12*
%TO.C,Q8*%
X138240000Y-43300000D02*
X138240000Y-44975000D01*
X138240000Y-43300000D02*
X138240000Y-42650000D01*
X141360000Y-43300000D02*
X141360000Y-43950000D01*
X141360000Y-43300000D02*
X141360000Y-42650000D01*
D11*
%TO.C,D29_1*%
X133485094Y-18350000D02*
X135085094Y-18350000D01*
X133485094Y-19850000D02*
X135085094Y-19850000D01*
D10*
X133090094Y-18719000D02*
G75*
G03*
X133090094Y-18719000I-75000J0D01*
G01*
G36*
X133985094Y-18700000D02*
G01*
X133985094Y-18500000D01*
X134185094Y-18500000D01*
X133985094Y-18700000D01*
G37*
D11*
%TO.C,D4_2*%
X58497944Y-21349740D02*
X60097944Y-21349740D01*
X58497944Y-22849740D02*
X60097944Y-22849740D01*
D10*
X58102944Y-21718740D02*
G75*
G03*
X58102944Y-21718740I-75000J0D01*
G01*
G36*
X58997944Y-21699740D02*
G01*
X58997944Y-21499740D01*
X59197944Y-21499740D01*
X58997944Y-21699740D01*
G37*
D11*
%TO.C,D28_2*%
X130485608Y-21349740D02*
X132085608Y-21349740D01*
X130485608Y-22849740D02*
X132085608Y-22849740D01*
D10*
X130090608Y-21718740D02*
G75*
G03*
X130090608Y-21718740I-75000J0D01*
G01*
G36*
X130985608Y-21699740D02*
G01*
X130985608Y-21499740D01*
X131185608Y-21499740D01*
X130985608Y-21699740D01*
G37*
D11*
%TO.C,D1_4*%
X49499486Y-27349220D02*
X51099486Y-27349220D01*
X49499486Y-28849220D02*
X51099486Y-28849220D01*
D10*
X49104486Y-27718220D02*
G75*
G03*
X49104486Y-27718220I-75000J0D01*
G01*
G36*
X49999486Y-27699220D02*
G01*
X49999486Y-27499220D01*
X50199486Y-27499220D01*
X49999486Y-27699220D01*
G37*
D11*
%TO.C,D19_8*%
X103490234Y-39348180D02*
X105090234Y-39348180D01*
X103490234Y-40848180D02*
X105090234Y-40848180D01*
D10*
X103095234Y-39717180D02*
G75*
G03*
X103095234Y-39717180I-75000J0D01*
G01*
G36*
X103990234Y-39698180D02*
G01*
X103990234Y-39498180D01*
X104190234Y-39498180D01*
X103990234Y-39698180D01*
G37*
D11*
%TO.C,D12_5*%
X82493832Y-30348960D02*
X84093832Y-30348960D01*
X82493832Y-31848960D02*
X84093832Y-31848960D01*
D10*
X82098832Y-30717960D02*
G75*
G03*
X82098832Y-30717960I-75000J0D01*
G01*
G36*
X82993832Y-30698960D02*
G01*
X82993832Y-30498960D01*
X83193832Y-30498960D01*
X82993832Y-30698960D01*
G37*
D11*
%TO.C,D13_1*%
X85493318Y-18350000D02*
X87093318Y-18350000D01*
X85493318Y-19850000D02*
X87093318Y-19850000D01*
D10*
X85098318Y-18719000D02*
G75*
G03*
X85098318Y-18719000I-75000J0D01*
G01*
G36*
X85993318Y-18700000D02*
G01*
X85993318Y-18500000D01*
X86193318Y-18500000D01*
X85993318Y-18700000D01*
G37*
D11*
%TO.C,D17_1*%
X97491262Y-18350000D02*
X99091262Y-18350000D01*
X97491262Y-19850000D02*
X99091262Y-19850000D01*
D10*
X97096262Y-18719000D02*
G75*
G03*
X97096262Y-18719000I-75000J0D01*
G01*
G36*
X97991262Y-18700000D02*
G01*
X97991262Y-18500000D01*
X98191262Y-18500000D01*
X97991262Y-18700000D01*
G37*
D12*
%TO.C,R14*%
X128580000Y-46796359D02*
X128580000Y-47103641D01*
X127820000Y-46796359D02*
X127820000Y-47103641D01*
D11*
%TO.C,D26_3*%
X124484949Y-24349480D02*
X126084949Y-24349480D01*
X124484949Y-25849480D02*
X126084949Y-25849480D01*
D10*
X124089949Y-24718480D02*
G75*
G03*
X124089949Y-24718480I-75000J0D01*
G01*
G36*
X124984949Y-24699480D02*
G01*
X124984949Y-24499480D01*
X125184949Y-24499480D01*
X124984949Y-24699480D01*
G37*
D11*
%TO.C,D8_5*%
X70495888Y-30348960D02*
X72095888Y-30348960D01*
X70495888Y-31848960D02*
X72095888Y-31848960D01*
D10*
X70100888Y-30717960D02*
G75*
G03*
X70100888Y-30717960I-75000J0D01*
G01*
G36*
X70995888Y-30698960D02*
G01*
X70995888Y-30498960D01*
X71195888Y-30498960D01*
X70995888Y-30698960D01*
G37*
D11*
%TO.C,D30_2*%
X136484580Y-21349740D02*
X138084580Y-21349740D01*
X136484580Y-22849740D02*
X138084580Y-22849740D01*
D10*
X136089580Y-21718740D02*
G75*
G03*
X136089580Y-21718740I-75000J0D01*
G01*
G36*
X136984580Y-21699740D02*
G01*
X136984580Y-21499740D01*
X137184580Y-21499740D01*
X136984580Y-21699740D01*
G37*
D11*
%TO.C,D30_3*%
X136484580Y-24349480D02*
X138084580Y-24349480D01*
X136484580Y-25849480D02*
X138084580Y-25849480D01*
D10*
X136089580Y-24718480D02*
G75*
G03*
X136089580Y-24718480I-75000J0D01*
G01*
G36*
X136984580Y-24699480D02*
G01*
X136984580Y-24499480D01*
X137184580Y-24499480D01*
X136984580Y-24699480D01*
G37*
D12*
%TO.C,R12*%
X126620000Y-47303641D02*
X126620000Y-46996359D01*
X127380000Y-47303641D02*
X127380000Y-46996359D01*
D11*
%TO.C,D9_3*%
X73495374Y-24349480D02*
X75095374Y-24349480D01*
X73495374Y-25849480D02*
X75095374Y-25849480D01*
D10*
X73100374Y-24718480D02*
G75*
G03*
X73100374Y-24718480I-75000J0D01*
G01*
G36*
X73995374Y-24699480D02*
G01*
X73995374Y-24499480D01*
X74195374Y-24499480D01*
X73995374Y-24699480D01*
G37*
D11*
%TO.C,D19_3*%
X103490234Y-24349480D02*
X105090234Y-24349480D01*
X103490234Y-25849480D02*
X105090234Y-25849480D01*
D10*
X103095234Y-24718480D02*
G75*
G03*
X103095234Y-24718480I-75000J0D01*
G01*
G36*
X103990234Y-24699480D02*
G01*
X103990234Y-24499480D01*
X104190234Y-24499480D01*
X103990234Y-24699480D01*
G37*
D11*
%TO.C,D8_7*%
X70495888Y-36348440D02*
X72095888Y-36348440D01*
X70495888Y-37848440D02*
X72095888Y-37848440D01*
D10*
X70100888Y-36717440D02*
G75*
G03*
X70100888Y-36717440I-75000J0D01*
G01*
G36*
X70995888Y-36698440D02*
G01*
X70995888Y-36498440D01*
X71195888Y-36498440D01*
X70995888Y-36698440D01*
G37*
D11*
%TO.C,D12_1*%
X82493832Y-18350000D02*
X84093832Y-18350000D01*
X82493832Y-19850000D02*
X84093832Y-19850000D01*
D10*
X82098832Y-18719000D02*
G75*
G03*
X82098832Y-18719000I-75000J0D01*
G01*
G36*
X82993832Y-18700000D02*
G01*
X82993832Y-18500000D01*
X83193832Y-18500000D01*
X82993832Y-18700000D01*
G37*
D11*
%TO.C,D26_7*%
X124484949Y-36348440D02*
X126084949Y-36348440D01*
X124484949Y-37848440D02*
X126084949Y-37848440D01*
D10*
X124089949Y-36717440D02*
G75*
G03*
X124089949Y-36717440I-75000J0D01*
G01*
G36*
X124984949Y-36698440D02*
G01*
X124984949Y-36498440D01*
X125184949Y-36498440D01*
X124984949Y-36698440D01*
G37*
D11*
%TO.C,D9_4*%
X73495374Y-27349220D02*
X75095374Y-27349220D01*
X73495374Y-28849220D02*
X75095374Y-28849220D01*
D10*
X73100374Y-27718220D02*
G75*
G03*
X73100374Y-27718220I-75000J0D01*
G01*
G36*
X73995374Y-27699220D02*
G01*
X73995374Y-27499220D01*
X74195374Y-27499220D01*
X73995374Y-27699220D01*
G37*
D11*
%TO.C,D6_4*%
X64496916Y-27349220D02*
X66096916Y-27349220D01*
X64496916Y-28849220D02*
X66096916Y-28849220D01*
D10*
X64101916Y-27718220D02*
G75*
G03*
X64101916Y-27718220I-75000J0D01*
G01*
G36*
X64996916Y-27699220D02*
G01*
X64996916Y-27499220D01*
X65196916Y-27499220D01*
X64996916Y-27699220D01*
G37*
D11*
%TO.C,D4_7*%
X58497944Y-36348440D02*
X60097944Y-36348440D01*
X58497944Y-37848440D02*
X60097944Y-37848440D01*
D10*
X58102944Y-36717440D02*
G75*
G03*
X58102944Y-36717440I-75000J0D01*
G01*
G36*
X58997944Y-36698440D02*
G01*
X58997944Y-36498440D01*
X59197944Y-36498440D01*
X58997944Y-36698440D01*
G37*
D11*
%TO.C,D16_8*%
X94491776Y-39348180D02*
X96091776Y-39348180D01*
X94491776Y-40848180D02*
X96091776Y-40848180D01*
D10*
X94096776Y-39717180D02*
G75*
G03*
X94096776Y-39717180I-75000J0D01*
G01*
G36*
X94991776Y-39698180D02*
G01*
X94991776Y-39498180D01*
X95191776Y-39498180D01*
X94991776Y-39698180D01*
G37*
D11*
%TO.C,D11_2*%
X79494346Y-21349740D02*
X81094346Y-21349740D01*
X79494346Y-22849740D02*
X81094346Y-22849740D01*
D10*
X79099346Y-21718740D02*
G75*
G03*
X79099346Y-21718740I-75000J0D01*
G01*
G36*
X79994346Y-21699740D02*
G01*
X79994346Y-21499740D01*
X80194346Y-21499740D01*
X79994346Y-21699740D01*
G37*
D11*
%TO.C,D6_5*%
X64496916Y-30348960D02*
X66096916Y-30348960D01*
X64496916Y-31848960D02*
X66096916Y-31848960D01*
D10*
X64101916Y-30717960D02*
G75*
G03*
X64101916Y-30717960I-75000J0D01*
G01*
G36*
X64996916Y-30698960D02*
G01*
X64996916Y-30498960D01*
X65196916Y-30498960D01*
X64996916Y-30698960D01*
G37*
D11*
%TO.C,D16_5*%
X94491776Y-30348960D02*
X96091776Y-30348960D01*
X94491776Y-31848960D02*
X96091776Y-31848960D01*
D10*
X94096776Y-30717960D02*
G75*
G03*
X94096776Y-30717960I-75000J0D01*
G01*
G36*
X94991776Y-30698960D02*
G01*
X94991776Y-30498960D01*
X95191776Y-30498960D01*
X94991776Y-30698960D01*
G37*
D11*
%TO.C,D26_4*%
X124484949Y-27349220D02*
X126084949Y-27349220D01*
X124484949Y-28849220D02*
X126084949Y-28849220D01*
D10*
X124089949Y-27718220D02*
G75*
G03*
X124089949Y-27718220I-75000J0D01*
G01*
G36*
X124984949Y-27699220D02*
G01*
X124984949Y-27499220D01*
X125184949Y-27499220D01*
X124984949Y-27699220D01*
G37*
D11*
%TO.C,D8_6*%
X70495888Y-33348700D02*
X72095888Y-33348700D01*
X70495888Y-34848700D02*
X72095888Y-34848700D01*
D10*
X70100888Y-33717700D02*
G75*
G03*
X70100888Y-33717700I-75000J0D01*
G01*
G36*
X70995888Y-33698700D02*
G01*
X70995888Y-33498700D01*
X71195888Y-33498700D01*
X70995888Y-33698700D01*
G37*
D12*
%TO.C,U2*%
X85140000Y-43412500D02*
X85140000Y-45212500D01*
X85140000Y-43412500D02*
X85140000Y-42612500D01*
X88260000Y-43412500D02*
X88260000Y-44212500D01*
X88260000Y-43412500D02*
X88260000Y-42612500D01*
D11*
%TO.C,D7_1*%
X67496402Y-18350000D02*
X69096402Y-18350000D01*
X67496402Y-19850000D02*
X69096402Y-19850000D01*
D10*
X67101402Y-18719000D02*
G75*
G03*
X67101402Y-18719000I-75000J0D01*
G01*
G36*
X67996402Y-18700000D02*
G01*
X67996402Y-18500000D01*
X68196402Y-18500000D01*
X67996402Y-18700000D01*
G37*
D11*
%TO.C,D22_8*%
X112487005Y-39348180D02*
X114087005Y-39348180D01*
X112487005Y-40848180D02*
X114087005Y-40848180D01*
D10*
X112092005Y-39717180D02*
G75*
G03*
X112092005Y-39717180I-75000J0D01*
G01*
G36*
X112987005Y-39698180D02*
G01*
X112987005Y-39498180D01*
X113187005Y-39498180D01*
X112987005Y-39698180D01*
G37*
D11*
%TO.C,D6_6*%
X64496916Y-33348700D02*
X66096916Y-33348700D01*
X64496916Y-34848700D02*
X66096916Y-34848700D01*
D10*
X64101916Y-33717700D02*
G75*
G03*
X64101916Y-33717700I-75000J0D01*
G01*
G36*
X64996916Y-33698700D02*
G01*
X64996916Y-33498700D01*
X65196916Y-33498700D01*
X64996916Y-33698700D01*
G37*
D11*
%TO.C,D28_7*%
X130485608Y-36348440D02*
X132085608Y-36348440D01*
X130485608Y-37848440D02*
X132085608Y-37848440D01*
D10*
X130090608Y-36717440D02*
G75*
G03*
X130090608Y-36717440I-75000J0D01*
G01*
G36*
X130985608Y-36698440D02*
G01*
X130985608Y-36498440D01*
X131185608Y-36498440D01*
X130985608Y-36698440D01*
G37*
D11*
%TO.C,D15_8*%
X91492290Y-39348180D02*
X93092290Y-39348180D01*
X91492290Y-40848180D02*
X93092290Y-40848180D01*
D10*
X91097290Y-39717180D02*
G75*
G03*
X91097290Y-39717180I-75000J0D01*
G01*
G36*
X91992290Y-39698180D02*
G01*
X91992290Y-39498180D01*
X92192290Y-39498180D01*
X91992290Y-39698180D01*
G37*
D11*
%TO.C,D3_2*%
X55498458Y-21349740D02*
X57098458Y-21349740D01*
X55498458Y-22849740D02*
X57098458Y-22849740D01*
D10*
X55103458Y-21718740D02*
G75*
G03*
X55103458Y-21718740I-75000J0D01*
G01*
G36*
X55998458Y-21699740D02*
G01*
X55998458Y-21499740D01*
X56198458Y-21499740D01*
X55998458Y-21699740D01*
G37*
D11*
%TO.C,D6_1*%
X64496916Y-18350000D02*
X66096916Y-18350000D01*
X64496916Y-19850000D02*
X66096916Y-19850000D01*
D10*
X64101916Y-18719000D02*
G75*
G03*
X64101916Y-18719000I-75000J0D01*
G01*
G36*
X64996916Y-18700000D02*
G01*
X64996916Y-18500000D01*
X65196916Y-18500000D01*
X64996916Y-18700000D01*
G37*
D11*
%TO.C,D16_1*%
X94491776Y-18350000D02*
X96091776Y-18350000D01*
X94491776Y-19850000D02*
X96091776Y-19850000D01*
D10*
X94096776Y-18719000D02*
G75*
G03*
X94096776Y-18719000I-75000J0D01*
G01*
G36*
X94991776Y-18700000D02*
G01*
X94991776Y-18500000D01*
X95191776Y-18500000D01*
X94991776Y-18700000D01*
G37*
D11*
%TO.C,D4_6*%
X58497944Y-33348700D02*
X60097944Y-33348700D01*
X58497944Y-34848700D02*
X60097944Y-34848700D01*
D10*
X58102944Y-33717700D02*
G75*
G03*
X58102944Y-33717700I-75000J0D01*
G01*
G36*
X58997944Y-33698700D02*
G01*
X58997944Y-33498700D01*
X59197944Y-33498700D01*
X58997944Y-33698700D01*
G37*
D11*
%TO.C,D15_6*%
X91492290Y-33348700D02*
X93092290Y-33348700D01*
X91492290Y-34848700D02*
X93092290Y-34848700D01*
D10*
X91097290Y-33717700D02*
G75*
G03*
X91097290Y-33717700I-75000J0D01*
G01*
G36*
X91992290Y-33698700D02*
G01*
X91992290Y-33498700D01*
X92192290Y-33498700D01*
X91992290Y-33698700D01*
G37*
D12*
%TO.C,TP31*%
X62800000Y-50700000D02*
G75*
G03*
X62800000Y-50700000I-700000J0D01*
G01*
%TO.C,R16*%
X99830000Y-48246359D02*
X99830000Y-48553641D01*
X99070000Y-48246359D02*
X99070000Y-48553641D01*
D11*
%TO.C,D29_8*%
X133485094Y-39348180D02*
X135085094Y-39348180D01*
X133485094Y-40848180D02*
X135085094Y-40848180D01*
D10*
X133090094Y-39717180D02*
G75*
G03*
X133090094Y-39717180I-75000J0D01*
G01*
G36*
X133985094Y-39698180D02*
G01*
X133985094Y-39498180D01*
X134185094Y-39498180D01*
X133985094Y-39698180D01*
G37*
D11*
%TO.C,D12_4*%
X82493832Y-27349220D02*
X84093832Y-27349220D01*
X82493832Y-28849220D02*
X84093832Y-28849220D01*
D10*
X82098832Y-27718220D02*
G75*
G03*
X82098832Y-27718220I-75000J0D01*
G01*
G36*
X82993832Y-27699220D02*
G01*
X82993832Y-27499220D01*
X83193832Y-27499220D01*
X82993832Y-27699220D01*
G37*
D12*
%TO.C,Q7*%
X141360000Y-47150000D02*
X141360000Y-45475000D01*
X141360000Y-47150000D02*
X141360000Y-47800000D01*
X138240000Y-47150000D02*
X138240000Y-46500000D01*
X138240000Y-47150000D02*
X138240000Y-47800000D01*
%TO.C,C7*%
X85842164Y-46790000D02*
X86057836Y-46790000D01*
X85842164Y-47510000D02*
X86057836Y-47510000D01*
D11*
%TO.C,D20_3*%
X106489720Y-24349480D02*
X108089720Y-24349480D01*
X106489720Y-25849480D02*
X108089720Y-25849480D01*
D10*
X106094720Y-24718480D02*
G75*
G03*
X106094720Y-24718480I-75000J0D01*
G01*
G36*
X106989720Y-24699480D02*
G01*
X106989720Y-24499480D01*
X107189720Y-24499480D01*
X106989720Y-24699480D01*
G37*
D12*
%TO.C,R17*%
X102730000Y-47196359D02*
X102730000Y-47503641D01*
X101970000Y-47196359D02*
X101970000Y-47503641D01*
D11*
%TO.C,D1_8*%
X49499486Y-39348180D02*
X51099486Y-39348180D01*
X49499486Y-40848180D02*
X51099486Y-40848180D01*
D10*
X49104486Y-39717180D02*
G75*
G03*
X49104486Y-39717180I-75000J0D01*
G01*
G36*
X49999486Y-39698180D02*
G01*
X49999486Y-39498180D01*
X50199486Y-39498180D01*
X49999486Y-39698180D01*
G37*
D11*
%TO.C,D19_2*%
X103490234Y-21349740D02*
X105090234Y-21349740D01*
X103490234Y-22849740D02*
X105090234Y-22849740D01*
D10*
X103095234Y-21718740D02*
G75*
G03*
X103095234Y-21718740I-75000J0D01*
G01*
G36*
X103990234Y-21699740D02*
G01*
X103990234Y-21499740D01*
X104190234Y-21499740D01*
X103990234Y-21699740D01*
G37*
D11*
%TO.C,D4_1*%
X58497944Y-18350000D02*
X60097944Y-18350000D01*
X58497944Y-19850000D02*
X60097944Y-19850000D01*
D10*
X58102944Y-18719000D02*
G75*
G03*
X58102944Y-18719000I-75000J0D01*
G01*
G36*
X58997944Y-18700000D02*
G01*
X58997944Y-18500000D01*
X59197944Y-18500000D01*
X58997944Y-18700000D01*
G37*
D12*
%TO.C,C10*%
X138960000Y-49742164D02*
X138960000Y-49957836D01*
X138240000Y-49742164D02*
X138240000Y-49957836D01*
D11*
%TO.C,D10_7*%
X76494860Y-36348440D02*
X78094860Y-36348440D01*
X76494860Y-37848440D02*
X78094860Y-37848440D01*
D10*
X76099860Y-36717440D02*
G75*
G03*
X76099860Y-36717440I-75000J0D01*
G01*
G36*
X76994860Y-36698440D02*
G01*
X76994860Y-36498440D01*
X77194860Y-36498440D01*
X76994860Y-36698440D01*
G37*
D11*
%TO.C,D8_8*%
X70495888Y-39348180D02*
X72095888Y-39348180D01*
X70495888Y-40848180D02*
X72095888Y-40848180D01*
D10*
X70100888Y-39717180D02*
G75*
G03*
X70100888Y-39717180I-75000J0D01*
G01*
G36*
X70995888Y-39698180D02*
G01*
X70995888Y-39498180D01*
X71195888Y-39498180D01*
X70995888Y-39698180D01*
G37*
D12*
%TO.C,TP15*%
X49950000Y-49000000D02*
G75*
G03*
X49950000Y-49000000I-700000J0D01*
G01*
D11*
%TO.C,D21_6*%
X109489206Y-33348700D02*
X111089206Y-33348700D01*
X109489206Y-34848700D02*
X111089206Y-34848700D01*
D10*
X109094206Y-33717700D02*
G75*
G03*
X109094206Y-33717700I-75000J0D01*
G01*
G36*
X109989206Y-33698700D02*
G01*
X109989206Y-33498700D01*
X110189206Y-33498700D01*
X109989206Y-33698700D01*
G37*
D11*
%TO.C,D9_2*%
X73495374Y-21349740D02*
X75095374Y-21349740D01*
X73495374Y-22849740D02*
X75095374Y-22849740D01*
D10*
X73100374Y-21718740D02*
G75*
G03*
X73100374Y-21718740I-75000J0D01*
G01*
G36*
X73995374Y-21699740D02*
G01*
X73995374Y-21499740D01*
X74195374Y-21499740D01*
X73995374Y-21699740D01*
G37*
D12*
%TO.C,Q6*%
X128460000Y-44037500D02*
X128460000Y-42362500D01*
X128460000Y-44037500D02*
X128460000Y-44687500D01*
X125340000Y-44037500D02*
X125340000Y-43387500D01*
X125340000Y-44037500D02*
X125340000Y-44687500D01*
%TO.C,TP6*%
X61225000Y-48225000D02*
G75*
G03*
X61225000Y-48225000I-700000J0D01*
G01*
D11*
%TO.C,D14_1*%
X88492804Y-18350000D02*
X90092804Y-18350000D01*
X88492804Y-19850000D02*
X90092804Y-19850000D01*
D10*
X88097804Y-18719000D02*
G75*
G03*
X88097804Y-18719000I-75000J0D01*
G01*
G36*
X88992804Y-18700000D02*
G01*
X88992804Y-18500000D01*
X89192804Y-18500000D01*
X88992804Y-18700000D01*
G37*
D11*
%TO.C,D31_1*%
X139484066Y-18350000D02*
X141084066Y-18350000D01*
X139484066Y-19850000D02*
X141084066Y-19850000D01*
D10*
X139089066Y-18719000D02*
G75*
G03*
X139089066Y-18719000I-75000J0D01*
G01*
G36*
X139984066Y-18700000D02*
G01*
X139984066Y-18500000D01*
X140184066Y-18500000D01*
X139984066Y-18700000D01*
G37*
D11*
%TO.C,D29_5*%
X133485094Y-30348960D02*
X135085094Y-30348960D01*
X133485094Y-31848960D02*
X135085094Y-31848960D01*
D10*
X133090094Y-30717960D02*
G75*
G03*
X133090094Y-30717960I-75000J0D01*
G01*
G36*
X133985094Y-30698960D02*
G01*
X133985094Y-30498960D01*
X134185094Y-30498960D01*
X133985094Y-30698960D01*
G37*
D11*
%TO.C,D16_6*%
X94491776Y-33348700D02*
X96091776Y-33348700D01*
X94491776Y-34848700D02*
X96091776Y-34848700D01*
D10*
X94096776Y-33717700D02*
G75*
G03*
X94096776Y-33717700I-75000J0D01*
G01*
G36*
X94991776Y-33698700D02*
G01*
X94991776Y-33498700D01*
X95191776Y-33498700D01*
X94991776Y-33698700D01*
G37*
D11*
%TO.C,D13_3*%
X85493318Y-24349480D02*
X87093318Y-24349480D01*
X85493318Y-25849480D02*
X87093318Y-25849480D01*
D10*
X85098318Y-24718480D02*
G75*
G03*
X85098318Y-24718480I-75000J0D01*
G01*
G36*
X85993318Y-24699480D02*
G01*
X85993318Y-24499480D01*
X86193318Y-24499480D01*
X85993318Y-24699480D01*
G37*
D11*
%TO.C,D15_2*%
X91492290Y-21349740D02*
X93092290Y-21349740D01*
X91492290Y-22849740D02*
X93092290Y-22849740D01*
D10*
X91097290Y-21718740D02*
G75*
G03*
X91097290Y-21718740I-75000J0D01*
G01*
G36*
X91992290Y-21699740D02*
G01*
X91992290Y-21499740D01*
X92192290Y-21499740D01*
X91992290Y-21699740D01*
G37*
D11*
%TO.C,D21_7*%
X109489206Y-36348440D02*
X111089206Y-36348440D01*
X109489206Y-37848440D02*
X111089206Y-37848440D01*
D10*
X109094206Y-36717440D02*
G75*
G03*
X109094206Y-36717440I-75000J0D01*
G01*
G36*
X109989206Y-36698440D02*
G01*
X109989206Y-36498440D01*
X110189206Y-36498440D01*
X109989206Y-36698440D01*
G37*
D11*
%TO.C,D24_8*%
X118487664Y-39348180D02*
X120087664Y-39348180D01*
X118487664Y-40848180D02*
X120087664Y-40848180D01*
D10*
X118092664Y-39717180D02*
G75*
G03*
X118092664Y-39717180I-75000J0D01*
G01*
G36*
X118987664Y-39698180D02*
G01*
X118987664Y-39498180D01*
X119187664Y-39498180D01*
X118987664Y-39698180D01*
G37*
D11*
%TO.C,D9_1*%
X73495374Y-18350000D02*
X75095374Y-18350000D01*
X73495374Y-19850000D02*
X75095374Y-19850000D01*
D10*
X73100374Y-18719000D02*
G75*
G03*
X73100374Y-18719000I-75000J0D01*
G01*
G36*
X73995374Y-18700000D02*
G01*
X73995374Y-18500000D01*
X74195374Y-18500000D01*
X73995374Y-18700000D01*
G37*
D11*
%TO.C,D16_2*%
X94491776Y-21349740D02*
X96091776Y-21349740D01*
X94491776Y-22849740D02*
X96091776Y-22849740D01*
D10*
X94096776Y-21718740D02*
G75*
G03*
X94096776Y-21718740I-75000J0D01*
G01*
G36*
X94991776Y-21699740D02*
G01*
X94991776Y-21499740D01*
X95191776Y-21499740D01*
X94991776Y-21699740D01*
G37*
D12*
%TO.C,R6*%
X126080000Y-46796359D02*
X126080000Y-47103641D01*
X125320000Y-46796359D02*
X125320000Y-47103641D01*
D11*
%TO.C,D3_8*%
X55498458Y-39348180D02*
X57098458Y-39348180D01*
X55498458Y-40848180D02*
X57098458Y-40848180D01*
D10*
X55103458Y-39717180D02*
G75*
G03*
X55103458Y-39717180I-75000J0D01*
G01*
G36*
X55998458Y-39698180D02*
G01*
X55998458Y-39498180D01*
X56198458Y-39498180D01*
X55998458Y-39698180D01*
G37*
D11*
%TO.C,D5_1*%
X61497430Y-18350000D02*
X63097430Y-18350000D01*
X61497430Y-19850000D02*
X63097430Y-19850000D01*
D10*
X61102430Y-18719000D02*
G75*
G03*
X61102430Y-18719000I-75000J0D01*
G01*
G36*
X61997430Y-18700000D02*
G01*
X61997430Y-18500000D01*
X62197430Y-18500000D01*
X61997430Y-18700000D01*
G37*
D11*
%TO.C,D28_4*%
X130485608Y-27349220D02*
X132085608Y-27349220D01*
X130485608Y-28849220D02*
X132085608Y-28849220D01*
D10*
X130090608Y-27718220D02*
G75*
G03*
X130090608Y-27718220I-75000J0D01*
G01*
G36*
X130985608Y-27699220D02*
G01*
X130985608Y-27499220D01*
X131185608Y-27499220D01*
X130985608Y-27699220D01*
G37*
D11*
%TO.C,D3_1*%
X55498458Y-18350000D02*
X57098458Y-18350000D01*
X55498458Y-19850000D02*
X57098458Y-19850000D01*
D10*
X55103458Y-18719000D02*
G75*
G03*
X55103458Y-18719000I-75000J0D01*
G01*
G36*
X55998458Y-18700000D02*
G01*
X55998458Y-18500000D01*
X56198458Y-18500000D01*
X55998458Y-18700000D01*
G37*
D11*
%TO.C,D20_5*%
X106489720Y-30348960D02*
X108089720Y-30348960D01*
X106489720Y-31848960D02*
X108089720Y-31848960D01*
D10*
X106094720Y-30717960D02*
G75*
G03*
X106094720Y-30717960I-75000J0D01*
G01*
G36*
X106989720Y-30698960D02*
G01*
X106989720Y-30498960D01*
X107189720Y-30498960D01*
X106989720Y-30698960D01*
G37*
D11*
%TO.C,D11_5*%
X79494346Y-30348960D02*
X81094346Y-30348960D01*
X79494346Y-31848960D02*
X81094346Y-31848960D01*
D10*
X79099346Y-30717960D02*
G75*
G03*
X79099346Y-30717960I-75000J0D01*
G01*
G36*
X79994346Y-30698960D02*
G01*
X79994346Y-30498960D01*
X80194346Y-30498960D01*
X79994346Y-30698960D01*
G37*
D11*
%TO.C,D18_1*%
X100490748Y-18350000D02*
X102090748Y-18350000D01*
X100490748Y-19850000D02*
X102090748Y-19850000D01*
D10*
X100095748Y-18719000D02*
G75*
G03*
X100095748Y-18719000I-75000J0D01*
G01*
G36*
X100990748Y-18700000D02*
G01*
X100990748Y-18500000D01*
X101190748Y-18500000D01*
X100990748Y-18700000D01*
G37*
D12*
%TO.C,TP12*%
X54625000Y-50625000D02*
G75*
G03*
X54625000Y-50625000I-700000J0D01*
G01*
D11*
%TO.C,D1_5*%
X49499486Y-30348960D02*
X51099486Y-30348960D01*
X49499486Y-31848960D02*
X51099486Y-31848960D01*
D10*
X49104486Y-30717960D02*
G75*
G03*
X49104486Y-30717960I-75000J0D01*
G01*
G36*
X49999486Y-30698960D02*
G01*
X49999486Y-30498960D01*
X50199486Y-30498960D01*
X49999486Y-30698960D01*
G37*
D11*
%TO.C,D26_8*%
X124484949Y-39348180D02*
X126084949Y-39348180D01*
X124484949Y-40848180D02*
X126084949Y-40848180D01*
D10*
X124089949Y-39717180D02*
G75*
G03*
X124089949Y-39717180I-75000J0D01*
G01*
G36*
X124984949Y-39698180D02*
G01*
X124984949Y-39498180D01*
X125184949Y-39498180D01*
X124984949Y-39698180D01*
G37*
D11*
%TO.C,D29_3*%
X133485094Y-24349480D02*
X135085094Y-24349480D01*
X133485094Y-25849480D02*
X135085094Y-25849480D01*
D10*
X133090094Y-24718480D02*
G75*
G03*
X133090094Y-24718480I-75000J0D01*
G01*
G36*
X133985094Y-24699480D02*
G01*
X133985094Y-24499480D01*
X134185094Y-24499480D01*
X133985094Y-24699480D01*
G37*
D11*
%TO.C,D18_4*%
X100490748Y-27349220D02*
X102090748Y-27349220D01*
X100490748Y-28849220D02*
X102090748Y-28849220D01*
D10*
X100095748Y-27718220D02*
G75*
G03*
X100095748Y-27718220I-75000J0D01*
G01*
G36*
X100990748Y-27699220D02*
G01*
X100990748Y-27499220D01*
X101190748Y-27499220D01*
X100990748Y-27699220D01*
G37*
D11*
%TO.C,D25_1*%
X121487150Y-18350000D02*
X123087150Y-18350000D01*
X121487150Y-19850000D02*
X123087150Y-19850000D01*
D10*
X121092150Y-18719000D02*
G75*
G03*
X121092150Y-18719000I-75000J0D01*
G01*
G36*
X121987150Y-18700000D02*
G01*
X121987150Y-18500000D01*
X122187150Y-18500000D01*
X121987150Y-18700000D01*
G37*
D12*
%TO.C,C1*%
X88360000Y-46342164D02*
X88360000Y-46557836D01*
X87640000Y-46342164D02*
X87640000Y-46557836D01*
D11*
%TO.C,D15_4*%
X91492290Y-27349220D02*
X93092290Y-27349220D01*
X91492290Y-28849220D02*
X93092290Y-28849220D01*
D10*
X91097290Y-27718220D02*
G75*
G03*
X91097290Y-27718220I-75000J0D01*
G01*
G36*
X91992290Y-27699220D02*
G01*
X91992290Y-27499220D01*
X92192290Y-27499220D01*
X91992290Y-27699220D01*
G37*
D11*
%TO.C,D7_6*%
X67496402Y-33348700D02*
X69096402Y-33348700D01*
X67496402Y-34848700D02*
X69096402Y-34848700D01*
D10*
X67101402Y-33717700D02*
G75*
G03*
X67101402Y-33717700I-75000J0D01*
G01*
G36*
X67996402Y-33698700D02*
G01*
X67996402Y-33498700D01*
X68196402Y-33498700D01*
X67996402Y-33698700D01*
G37*
D11*
%TO.C,D10_8*%
X76494860Y-39348180D02*
X78094860Y-39348180D01*
X76494860Y-40848180D02*
X78094860Y-40848180D01*
D10*
X76099860Y-39717180D02*
G75*
G03*
X76099860Y-39717180I-75000J0D01*
G01*
G36*
X76994860Y-39698180D02*
G01*
X76994860Y-39498180D01*
X77194860Y-39498180D01*
X76994860Y-39698180D01*
G37*
D11*
%TO.C,D9_5*%
X73495374Y-30348960D02*
X75095374Y-30348960D01*
X73495374Y-31848960D02*
X75095374Y-31848960D01*
D10*
X73100374Y-30717960D02*
G75*
G03*
X73100374Y-30717960I-75000J0D01*
G01*
G36*
X73995374Y-30698960D02*
G01*
X73995374Y-30498960D01*
X74195374Y-30498960D01*
X73995374Y-30698960D01*
G37*
D12*
%TO.C,TP29*%
X57050000Y-50550000D02*
G75*
G03*
X57050000Y-50550000I-700000J0D01*
G01*
D11*
%TO.C,D10_2*%
X76494860Y-21349740D02*
X78094860Y-21349740D01*
X76494860Y-22849740D02*
X78094860Y-22849740D01*
D10*
X76099860Y-21718740D02*
G75*
G03*
X76099860Y-21718740I-75000J0D01*
G01*
G36*
X76994860Y-21699740D02*
G01*
X76994860Y-21499740D01*
X77194860Y-21499740D01*
X76994860Y-21699740D01*
G37*
D11*
%TO.C,D22_6*%
X112487005Y-33348700D02*
X114087005Y-33348700D01*
X112487005Y-34848700D02*
X114087005Y-34848700D01*
D10*
X112092005Y-33717700D02*
G75*
G03*
X112092005Y-33717700I-75000J0D01*
G01*
G36*
X112987005Y-33698700D02*
G01*
X112987005Y-33498700D01*
X113187005Y-33498700D01*
X112987005Y-33698700D01*
G37*
D12*
%TO.C,R9*%
X48403641Y-48130000D02*
X48096359Y-48130000D01*
X48403641Y-47370000D02*
X48096359Y-47370000D01*
D11*
%TO.C,D27_7*%
X127486122Y-36348440D02*
X129086122Y-36348440D01*
X127486122Y-37848440D02*
X129086122Y-37848440D01*
D10*
X127091122Y-36717440D02*
G75*
G03*
X127091122Y-36717440I-75000J0D01*
G01*
G36*
X127986122Y-36698440D02*
G01*
X127986122Y-36498440D01*
X128186122Y-36498440D01*
X127986122Y-36698440D01*
G37*
D12*
%TO.C,R4*%
X115730000Y-46696359D02*
X115730000Y-47003641D01*
X114970000Y-46696359D02*
X114970000Y-47003641D01*
D11*
%TO.C,D21_8*%
X109489206Y-39348180D02*
X111089206Y-39348180D01*
X109489206Y-40848180D02*
X111089206Y-40848180D01*
D10*
X109094206Y-39717180D02*
G75*
G03*
X109094206Y-39717180I-75000J0D01*
G01*
G36*
X109989206Y-39698180D02*
G01*
X109989206Y-39498180D01*
X110189206Y-39498180D01*
X109989206Y-39698180D01*
G37*
D11*
%TO.C,D4_4*%
X58497944Y-27349220D02*
X60097944Y-27349220D01*
X58497944Y-28849220D02*
X60097944Y-28849220D01*
D10*
X58102944Y-27718220D02*
G75*
G03*
X58102944Y-27718220I-75000J0D01*
G01*
G36*
X58997944Y-27699220D02*
G01*
X58997944Y-27499220D01*
X59197944Y-27499220D01*
X58997944Y-27699220D01*
G37*
D11*
%TO.C,D7_3*%
X67496402Y-24349480D02*
X69096402Y-24349480D01*
X67496402Y-25849480D02*
X69096402Y-25849480D01*
D10*
X67101402Y-24718480D02*
G75*
G03*
X67101402Y-24718480I-75000J0D01*
G01*
G36*
X67996402Y-24699480D02*
G01*
X67996402Y-24499480D01*
X68196402Y-24499480D01*
X67996402Y-24699480D01*
G37*
D11*
%TO.C,D4_5*%
X58497944Y-30348960D02*
X60097944Y-30348960D01*
X58497944Y-31848960D02*
X60097944Y-31848960D01*
D10*
X58102944Y-30717960D02*
G75*
G03*
X58102944Y-30717960I-75000J0D01*
G01*
G36*
X58997944Y-30698960D02*
G01*
X58997944Y-30498960D01*
X59197944Y-30498960D01*
X58997944Y-30698960D01*
G37*
D11*
%TO.C,D11_6*%
X79494346Y-33348700D02*
X81094346Y-33348700D01*
X79494346Y-34848700D02*
X81094346Y-34848700D01*
D10*
X79099346Y-33717700D02*
G75*
G03*
X79099346Y-33717700I-75000J0D01*
G01*
G36*
X79994346Y-33698700D02*
G01*
X79994346Y-33498700D01*
X80194346Y-33498700D01*
X79994346Y-33698700D01*
G37*
D11*
%TO.C,D18_8*%
X100490748Y-39348180D02*
X102090748Y-39348180D01*
X100490748Y-40848180D02*
X102090748Y-40848180D01*
D10*
X100095748Y-39717180D02*
G75*
G03*
X100095748Y-39717180I-75000J0D01*
G01*
G36*
X100990748Y-39698180D02*
G01*
X100990748Y-39498180D01*
X101190748Y-39498180D01*
X100990748Y-39698180D01*
G37*
D11*
%TO.C,D15_7*%
X91492290Y-36348440D02*
X93092290Y-36348440D01*
X91492290Y-37848440D02*
X93092290Y-37848440D01*
D10*
X91097290Y-36717440D02*
G75*
G03*
X91097290Y-36717440I-75000J0D01*
G01*
G36*
X91992290Y-36698440D02*
G01*
X91992290Y-36498440D01*
X92192290Y-36498440D01*
X91992290Y-36698440D01*
G37*
D11*
%TO.C,D2_7*%
X52498972Y-36348440D02*
X54098972Y-36348440D01*
X52498972Y-37848440D02*
X54098972Y-37848440D01*
D10*
X52103972Y-36717440D02*
G75*
G03*
X52103972Y-36717440I-75000J0D01*
G01*
G36*
X52998972Y-36698440D02*
G01*
X52998972Y-36498440D01*
X53198972Y-36498440D01*
X52998972Y-36698440D01*
G37*
D11*
%TO.C,D28_6*%
X130485608Y-33348700D02*
X132085608Y-33348700D01*
X130485608Y-34848700D02*
X132085608Y-34848700D01*
D10*
X130090608Y-33717700D02*
G75*
G03*
X130090608Y-33717700I-75000J0D01*
G01*
G36*
X130985608Y-33698700D02*
G01*
X130985608Y-33498700D01*
X131185608Y-33498700D01*
X130985608Y-33698700D01*
G37*
D11*
%TO.C,D0_2*%
X46500000Y-21349740D02*
X48100000Y-21349740D01*
X46500000Y-22849740D02*
X48100000Y-22849740D01*
D10*
X46105000Y-21718740D02*
G75*
G03*
X46105000Y-21718740I-75000J0D01*
G01*
G36*
X47000000Y-21699740D02*
G01*
X47000000Y-21499740D01*
X47200000Y-21499740D01*
X47000000Y-21699740D01*
G37*
D11*
%TO.C,D26_5*%
X124484949Y-30348960D02*
X126084949Y-30348960D01*
X124484949Y-31848960D02*
X126084949Y-31848960D01*
D10*
X124089949Y-30717960D02*
G75*
G03*
X124089949Y-30717960I-75000J0D01*
G01*
G36*
X124984949Y-30698960D02*
G01*
X124984949Y-30498960D01*
X125184949Y-30498960D01*
X124984949Y-30698960D01*
G37*
D11*
%TO.C,D27_2*%
X127486122Y-21349740D02*
X129086122Y-21349740D01*
X127486122Y-22849740D02*
X129086122Y-22849740D01*
D10*
X127091122Y-21718740D02*
G75*
G03*
X127091122Y-21718740I-75000J0D01*
G01*
G36*
X127986122Y-21699740D02*
G01*
X127986122Y-21499740D01*
X128186122Y-21499740D01*
X127986122Y-21699740D01*
G37*
D11*
%TO.C,D12_8*%
X82493832Y-39348180D02*
X84093832Y-39348180D01*
X82493832Y-40848180D02*
X84093832Y-40848180D01*
D10*
X82098832Y-39717180D02*
G75*
G03*
X82098832Y-39717180I-75000J0D01*
G01*
G36*
X82993832Y-39698180D02*
G01*
X82993832Y-39498180D01*
X83193832Y-39498180D01*
X82993832Y-39698180D01*
G37*
D12*
%TO.C,C8*%
X87440000Y-49007836D02*
X87440000Y-48792164D01*
X88160000Y-49007836D02*
X88160000Y-48792164D01*
D11*
%TO.C,D24_4*%
X118487664Y-27349220D02*
X120087664Y-27349220D01*
X118487664Y-28849220D02*
X120087664Y-28849220D01*
D10*
X118092664Y-27718220D02*
G75*
G03*
X118092664Y-27718220I-75000J0D01*
G01*
G36*
X118987664Y-27699220D02*
G01*
X118987664Y-27499220D01*
X119187664Y-27499220D01*
X118987664Y-27699220D01*
G37*
D11*
%TO.C,D6_2*%
X64496916Y-21349740D02*
X66096916Y-21349740D01*
X64496916Y-22849740D02*
X66096916Y-22849740D01*
D10*
X64101916Y-21718740D02*
G75*
G03*
X64101916Y-21718740I-75000J0D01*
G01*
G36*
X64996916Y-21699740D02*
G01*
X64996916Y-21499740D01*
X65196916Y-21499740D01*
X64996916Y-21699740D01*
G37*
D11*
%TO.C,D17_4*%
X97491262Y-27349220D02*
X99091262Y-27349220D01*
X97491262Y-28849220D02*
X99091262Y-28849220D01*
D10*
X97096262Y-27718220D02*
G75*
G03*
X97096262Y-27718220I-75000J0D01*
G01*
G36*
X97991262Y-27699220D02*
G01*
X97991262Y-27499220D01*
X98191262Y-27499220D01*
X97991262Y-27699220D01*
G37*
D11*
%TO.C,D0_6*%
X46500000Y-33348700D02*
X48100000Y-33348700D01*
X46500000Y-34848700D02*
X48100000Y-34848700D01*
D10*
X46105000Y-33717700D02*
G75*
G03*
X46105000Y-33717700I-75000J0D01*
G01*
G36*
X47000000Y-33698700D02*
G01*
X47000000Y-33498700D01*
X47200000Y-33498700D01*
X47000000Y-33698700D01*
G37*
D11*
%TO.C,D10_3*%
X76494860Y-24349480D02*
X78094860Y-24349480D01*
X76494860Y-25849480D02*
X78094860Y-25849480D01*
D10*
X76099860Y-24718480D02*
G75*
G03*
X76099860Y-24718480I-75000J0D01*
G01*
G36*
X76994860Y-24699480D02*
G01*
X76994860Y-24499480D01*
X77194860Y-24499480D01*
X76994860Y-24699480D01*
G37*
%TO.C,RU4*%
X116025000Y-47512500D02*
X116500000Y-47512500D01*
X116025000Y-47512500D02*
X116025000Y-43362500D01*
X116500000Y-47512500D02*
X116500000Y-48637500D01*
X124975000Y-47512500D02*
X124417500Y-47512500D01*
X124975000Y-47512500D02*
X124975000Y-43362500D01*
X116025000Y-43362500D02*
X116582500Y-43362500D01*
X124975000Y-43362500D02*
X124417500Y-43362500D01*
D11*
%TO.C,D25_3*%
X121487150Y-24349480D02*
X123087150Y-24349480D01*
X121487150Y-25849480D02*
X123087150Y-25849480D01*
D10*
X121092150Y-24718480D02*
G75*
G03*
X121092150Y-24718480I-75000J0D01*
G01*
G36*
X121987150Y-24699480D02*
G01*
X121987150Y-24499480D01*
X122187150Y-24499480D01*
X121987150Y-24699480D01*
G37*
D11*
%TO.C,D29_2*%
X133485094Y-21349740D02*
X135085094Y-21349740D01*
X133485094Y-22849740D02*
X135085094Y-22849740D01*
D10*
X133090094Y-21718740D02*
G75*
G03*
X133090094Y-21718740I-75000J0D01*
G01*
G36*
X133985094Y-21699740D02*
G01*
X133985094Y-21499740D01*
X134185094Y-21499740D01*
X133985094Y-21699740D01*
G37*
D11*
%TO.C,D24_1*%
X118487664Y-18350000D02*
X120087664Y-18350000D01*
X118487664Y-19850000D02*
X120087664Y-19850000D01*
D10*
X118092664Y-18719000D02*
G75*
G03*
X118092664Y-18719000I-75000J0D01*
G01*
G36*
X118987664Y-18700000D02*
G01*
X118987664Y-18500000D01*
X119187664Y-18500000D01*
X118987664Y-18700000D01*
G37*
D11*
%TO.C,D13_7*%
X85493318Y-36348440D02*
X87093318Y-36348440D01*
X85493318Y-37848440D02*
X87093318Y-37848440D01*
D10*
X85098318Y-36717440D02*
G75*
G03*
X85098318Y-36717440I-75000J0D01*
G01*
G36*
X85993318Y-36698440D02*
G01*
X85993318Y-36498440D01*
X86193318Y-36498440D01*
X85993318Y-36698440D01*
G37*
D11*
%TO.C,D30_8*%
X136484580Y-39348180D02*
X138084580Y-39348180D01*
X136484580Y-40848180D02*
X138084580Y-40848180D01*
D10*
X136089580Y-39717180D02*
G75*
G03*
X136089580Y-39717180I-75000J0D01*
G01*
G36*
X136984580Y-39698180D02*
G01*
X136984580Y-39498180D01*
X137184580Y-39498180D01*
X136984580Y-39698180D01*
G37*
D12*
%TO.C,C5*%
X73642164Y-47990000D02*
X73857836Y-47990000D01*
X73642164Y-48710000D02*
X73857836Y-48710000D01*
D11*
%TO.C,D31_7*%
X139484066Y-36348440D02*
X141084066Y-36348440D01*
X139484066Y-37848440D02*
X141084066Y-37848440D01*
D10*
X139089066Y-36717440D02*
G75*
G03*
X139089066Y-36717440I-75000J0D01*
G01*
G36*
X139984066Y-36698440D02*
G01*
X139984066Y-36498440D01*
X140184066Y-36498440D01*
X139984066Y-36698440D01*
G37*
D11*
%TO.C,D12_2*%
X82493832Y-21349740D02*
X84093832Y-21349740D01*
X82493832Y-22849740D02*
X84093832Y-22849740D01*
D10*
X82098832Y-21718740D02*
G75*
G03*
X82098832Y-21718740I-75000J0D01*
G01*
G36*
X82993832Y-21699740D02*
G01*
X82993832Y-21499740D01*
X83193832Y-21499740D01*
X82993832Y-21699740D01*
G37*
D12*
%TO.C,R1*%
X48096359Y-46120000D02*
X48403641Y-46120000D01*
X48096359Y-46880000D02*
X48403641Y-46880000D01*
D11*
%TO.C,D23_8*%
X115488178Y-39348180D02*
X117088178Y-39348180D01*
X115488178Y-40848180D02*
X117088178Y-40848180D01*
D10*
X115093178Y-39717180D02*
G75*
G03*
X115093178Y-39717180I-75000J0D01*
G01*
G36*
X115988178Y-39698180D02*
G01*
X115988178Y-39498180D01*
X116188178Y-39498180D01*
X115988178Y-39698180D01*
G37*
D11*
%TO.C,D30_5*%
X136484580Y-30348960D02*
X138084580Y-30348960D01*
X136484580Y-31848960D02*
X138084580Y-31848960D01*
D10*
X136089580Y-30717960D02*
G75*
G03*
X136089580Y-30717960I-75000J0D01*
G01*
G36*
X136984580Y-30698960D02*
G01*
X136984580Y-30498960D01*
X137184580Y-30498960D01*
X136984580Y-30698960D01*
G37*
D11*
%TO.C,D2_8*%
X52498972Y-39348180D02*
X54098972Y-39348180D01*
X52498972Y-40848180D02*
X54098972Y-40848180D01*
D10*
X52103972Y-39717180D02*
G75*
G03*
X52103972Y-39717180I-75000J0D01*
G01*
G36*
X52998972Y-39698180D02*
G01*
X52998972Y-39498180D01*
X53198972Y-39498180D01*
X52998972Y-39698180D01*
G37*
D11*
%TO.C,D7_4*%
X67496402Y-27349220D02*
X69096402Y-27349220D01*
X67496402Y-28849220D02*
X69096402Y-28849220D01*
D10*
X67101402Y-27718220D02*
G75*
G03*
X67101402Y-27718220I-75000J0D01*
G01*
G36*
X67996402Y-27699220D02*
G01*
X67996402Y-27499220D01*
X68196402Y-27499220D01*
X67996402Y-27699220D01*
G37*
D11*
%TO.C,D1*%
X100150000Y-48000000D02*
X100150000Y-46400000D01*
X101650000Y-48000000D02*
X101650000Y-46400000D01*
D10*
X100594000Y-48470000D02*
G75*
G03*
X100594000Y-48470000I-75000J0D01*
G01*
G36*
X100500000Y-47500000D02*
G01*
X100300000Y-47500000D01*
X100300000Y-47300000D01*
X100500000Y-47500000D01*
G37*
D12*
%TO.C,R15*%
X100786359Y-48520000D02*
X101093641Y-48520000D01*
X100786359Y-49280000D02*
X101093641Y-49280000D01*
D11*
%TO.C,D6_7*%
X64496916Y-36348440D02*
X66096916Y-36348440D01*
X64496916Y-37848440D02*
X66096916Y-37848440D01*
D10*
X64101916Y-36717440D02*
G75*
G03*
X64101916Y-36717440I-75000J0D01*
G01*
G36*
X64996916Y-36698440D02*
G01*
X64996916Y-36498440D01*
X65196916Y-36498440D01*
X64996916Y-36698440D01*
G37*
D11*
%TO.C,D3_6*%
X55498458Y-33348700D02*
X57098458Y-33348700D01*
X55498458Y-34848700D02*
X57098458Y-34848700D01*
D10*
X55103458Y-33717700D02*
G75*
G03*
X55103458Y-33717700I-75000J0D01*
G01*
G36*
X55998458Y-33698700D02*
G01*
X55998458Y-33498700D01*
X56198458Y-33498700D01*
X55998458Y-33698700D01*
G37*
D11*
%TO.C,D17_3*%
X97491262Y-24349480D02*
X99091262Y-24349480D01*
X97491262Y-25849480D02*
X99091262Y-25849480D01*
D10*
X97096262Y-24718480D02*
G75*
G03*
X97096262Y-24718480I-75000J0D01*
G01*
G36*
X97991262Y-24699480D02*
G01*
X97991262Y-24499480D01*
X98191262Y-24499480D01*
X97991262Y-24699480D01*
G37*
D11*
%TO.C,D27_3*%
X127486122Y-24349480D02*
X129086122Y-24349480D01*
X127486122Y-25849480D02*
X129086122Y-25849480D01*
D10*
X127091122Y-24718480D02*
G75*
G03*
X127091122Y-24718480I-75000J0D01*
G01*
G36*
X127986122Y-24699480D02*
G01*
X127986122Y-24499480D01*
X128186122Y-24499480D01*
X127986122Y-24699480D01*
G37*
D11*
%TO.C,D27_4*%
X127486122Y-27349220D02*
X129086122Y-27349220D01*
X127486122Y-28849220D02*
X129086122Y-28849220D01*
D10*
X127091122Y-27718220D02*
G75*
G03*
X127091122Y-27718220I-75000J0D01*
G01*
G36*
X127986122Y-27699220D02*
G01*
X127986122Y-27499220D01*
X128186122Y-27499220D01*
X127986122Y-27699220D01*
G37*
D12*
%TO.C,C4*%
X86057836Y-46360000D02*
X85842164Y-46360000D01*
X86057836Y-45640000D02*
X85842164Y-45640000D01*
%TO.C,TP30*%
X65000000Y-50750000D02*
G75*
G03*
X65000000Y-50750000I-700000J0D01*
G01*
D11*
%TO.C,D2_1*%
X52498972Y-18350000D02*
X54098972Y-18350000D01*
X52498972Y-19850000D02*
X54098972Y-19850000D01*
D10*
X52103972Y-18719000D02*
G75*
G03*
X52103972Y-18719000I-75000J0D01*
G01*
G36*
X52998972Y-18700000D02*
G01*
X52998972Y-18500000D01*
X53198972Y-18500000D01*
X52998972Y-18700000D01*
G37*
D11*
%TO.C,D7_5*%
X67496402Y-30348960D02*
X69096402Y-30348960D01*
X67496402Y-31848960D02*
X69096402Y-31848960D01*
D10*
X67101402Y-30717960D02*
G75*
G03*
X67101402Y-30717960I-75000J0D01*
G01*
G36*
X67996402Y-30698960D02*
G01*
X67996402Y-30498960D01*
X68196402Y-30498960D01*
X67996402Y-30698960D01*
G37*
D11*
%TO.C,D21_4*%
X109489206Y-27349220D02*
X111089206Y-27349220D01*
X109489206Y-28849220D02*
X111089206Y-28849220D01*
D10*
X109094206Y-27718220D02*
G75*
G03*
X109094206Y-27718220I-75000J0D01*
G01*
G36*
X109989206Y-27699220D02*
G01*
X109989206Y-27499220D01*
X110189206Y-27499220D01*
X109989206Y-27699220D01*
G37*
D11*
%TO.C,D29_4*%
X133485094Y-27349220D02*
X135085094Y-27349220D01*
X133485094Y-28849220D02*
X135085094Y-28849220D01*
D10*
X133090094Y-27718220D02*
G75*
G03*
X133090094Y-27718220I-75000J0D01*
G01*
G36*
X133985094Y-27699220D02*
G01*
X133985094Y-27499220D01*
X134185094Y-27499220D01*
X133985094Y-27699220D01*
G37*
%TD*%
%LPC*%
D13*
%TO.C,D5_6*%
X61597430Y-33698700D03*
X62997430Y-33698700D03*
X62997430Y-34498700D03*
X61597430Y-34498700D03*
%TD*%
%TO.C,D8_4*%
X70595888Y-27699220D03*
X71995888Y-27699220D03*
X71995888Y-28499220D03*
X70595888Y-28499220D03*
%TD*%
%TO.C,D11_3*%
X79594346Y-24699480D03*
X80994346Y-24699480D03*
X80994346Y-25499480D03*
X79594346Y-25499480D03*
%TD*%
%TO.C,D3_7*%
X55598458Y-36698440D03*
X56998458Y-36698440D03*
X56998458Y-37498440D03*
X55598458Y-37498440D03*
%TD*%
%TO.C,D0_3*%
X46600000Y-24699480D03*
X48000000Y-24699480D03*
X48000000Y-25499480D03*
X46600000Y-25499480D03*
%TD*%
%TO.C,D3_5*%
X55598458Y-30698960D03*
X56998458Y-30698960D03*
X56998458Y-31498960D03*
X55598458Y-31498960D03*
%TD*%
%TO.C,D4_3*%
X58597944Y-24699480D03*
X59997944Y-24699480D03*
X59997944Y-25499480D03*
X58597944Y-25499480D03*
%TD*%
%TO.C,D17_6*%
X97591262Y-33698700D03*
X98991262Y-33698700D03*
X98991262Y-34498700D03*
X97591262Y-34498700D03*
%TD*%
%TO.C,D22_2*%
X112587005Y-21699740D03*
X113987005Y-21699740D03*
X113987005Y-22499740D03*
X112587005Y-22499740D03*
%TD*%
%TO.C,D25_2*%
X121587150Y-21699740D03*
X122987150Y-21699740D03*
X122987150Y-22499740D03*
X121587150Y-22499740D03*
%TD*%
%TO.C,D13_5*%
X85593318Y-30698960D03*
X86993318Y-30698960D03*
X86993318Y-31498960D03*
X85593318Y-31498960D03*
%TD*%
%TO.C,D25_6*%
X121587150Y-33698700D03*
X122987150Y-33698700D03*
X122987150Y-34498700D03*
X121587150Y-34498700D03*
%TD*%
%TO.C,D13_6*%
X85593318Y-33698700D03*
X86993318Y-33698700D03*
X86993318Y-34498700D03*
X85593318Y-34498700D03*
%TD*%
%TO.C,D17_2*%
X97591262Y-21699740D03*
X98991262Y-21699740D03*
X98991262Y-22499740D03*
X97591262Y-22499740D03*
%TD*%
D14*
%TO.C,RU2*%
X104007500Y-48037500D03*
X104642500Y-48037500D03*
X105277500Y-48037500D03*
X105912500Y-48037500D03*
X106547500Y-48037500D03*
X107182500Y-48037500D03*
X107817500Y-48037500D03*
X108452500Y-48037500D03*
X109087500Y-48037500D03*
X109722500Y-48037500D03*
X110357500Y-48037500D03*
X110992500Y-48037500D03*
X110992500Y-42837500D03*
X110357500Y-42837500D03*
X109722500Y-42837500D03*
X109087500Y-42837500D03*
X108452500Y-42837500D03*
X107817500Y-42837500D03*
X107182500Y-42837500D03*
X106547500Y-42837500D03*
X105912500Y-42837500D03*
X105277500Y-42837500D03*
X104642500Y-42837500D03*
X104007500Y-42837500D03*
%TD*%
D13*
%TO.C,D8_2*%
X70595888Y-21699740D03*
X71995888Y-21699740D03*
X71995888Y-22499740D03*
X70595888Y-22499740D03*
%TD*%
D14*
%TO.C,RU1*%
X50507500Y-48100000D03*
X51142500Y-48100000D03*
X51777500Y-48100000D03*
X52412500Y-48100000D03*
X53047500Y-48100000D03*
X53682500Y-48100000D03*
X54317500Y-48100000D03*
X54952500Y-48100000D03*
X55587500Y-48100000D03*
X56222500Y-48100000D03*
X56857500Y-48100000D03*
X57492500Y-48100000D03*
X57492500Y-42900000D03*
X56857500Y-42900000D03*
X56222500Y-42900000D03*
X55587500Y-42900000D03*
X54952500Y-42900000D03*
X54317500Y-42900000D03*
X53682500Y-42900000D03*
X53047500Y-42900000D03*
X52412500Y-42900000D03*
X51777500Y-42900000D03*
X51142500Y-42900000D03*
X50507500Y-42900000D03*
%TD*%
D13*
%TO.C,D2_4*%
X52598972Y-27699220D03*
X53998972Y-27699220D03*
X53998972Y-28499220D03*
X52598972Y-28499220D03*
%TD*%
%TO.C,D23_7*%
X115588178Y-36698440D03*
X116988178Y-36698440D03*
X116988178Y-37498440D03*
X115588178Y-37498440D03*
%TD*%
%TO.C,D20_4*%
X106589720Y-27699220D03*
X107989720Y-27699220D03*
X107989720Y-28499220D03*
X106589720Y-28499220D03*
%TD*%
%TO.C,D30_4*%
X136584580Y-27699220D03*
X137984580Y-27699220D03*
X137984580Y-28499220D03*
X136584580Y-28499220D03*
%TD*%
%TO.C,D9_7*%
X73595374Y-36698440D03*
X74995374Y-36698440D03*
X74995374Y-37498440D03*
X73595374Y-37498440D03*
%TD*%
%TO.C,D30_7*%
X136584580Y-36698440D03*
X137984580Y-36698440D03*
X137984580Y-37498440D03*
X136584580Y-37498440D03*
%TD*%
%TO.C,D22_7*%
X112587005Y-36698440D03*
X113987005Y-36698440D03*
X113987005Y-37498440D03*
X112587005Y-37498440D03*
%TD*%
D15*
%TO.C,U1*%
X89587500Y-43750000D03*
X89587500Y-44250000D03*
X89587500Y-44750000D03*
X89587500Y-45250000D03*
X89587500Y-45750000D03*
X89587500Y-46250000D03*
X89587500Y-46750000D03*
X89587500Y-47250000D03*
X89587500Y-47750000D03*
X89587500Y-48250000D03*
X89587500Y-48750000D03*
X89587500Y-49250000D03*
D16*
X91000000Y-50662500D03*
X91500000Y-50662500D03*
X92000000Y-50662500D03*
X92500000Y-50662500D03*
X93000000Y-50662500D03*
X93500000Y-50662500D03*
X94000000Y-50662500D03*
X94500000Y-50662500D03*
X95000000Y-50662500D03*
X95500000Y-50662500D03*
X96000000Y-50662500D03*
X96500000Y-50662500D03*
D15*
X97912500Y-49250000D03*
X97912500Y-48750000D03*
X97912500Y-48250000D03*
X97912500Y-47750000D03*
X97912500Y-47250000D03*
X97912500Y-46750000D03*
X97912500Y-46250000D03*
X97912500Y-45750000D03*
X97912500Y-45250000D03*
X97912500Y-44750000D03*
X97912500Y-44250000D03*
X97912500Y-43750000D03*
D16*
X96500000Y-42337500D03*
X96000000Y-42337500D03*
X95500000Y-42337500D03*
X95000000Y-42337500D03*
X94500000Y-42337500D03*
X94000000Y-42337500D03*
X93500000Y-42337500D03*
X93000000Y-42337500D03*
X92500000Y-42337500D03*
X92000000Y-42337500D03*
X91500000Y-42337500D03*
X91000000Y-42337500D03*
%TD*%
D13*
%TO.C,D13_2*%
X85593318Y-21699740D03*
X86993318Y-21699740D03*
X86993318Y-22499740D03*
X85593318Y-22499740D03*
%TD*%
D17*
%TO.C,Q2*%
X101850000Y-43200000D03*
X99950000Y-43200000D03*
X100900000Y-45075000D03*
%TD*%
D13*
%TO.C,D14_7*%
X88592804Y-36698440D03*
X89992804Y-36698440D03*
X89992804Y-37498440D03*
X88592804Y-37498440D03*
%TD*%
D18*
%TO.C,R13*%
X74725000Y-46440000D03*
X74725000Y-47460000D03*
%TD*%
D13*
%TO.C,D18_7*%
X100590748Y-36698440D03*
X101990748Y-36698440D03*
X101990748Y-37498440D03*
X100590748Y-37498440D03*
%TD*%
D19*
%TO.C,TP5*%
X51550000Y-50600000D03*
%TD*%
D13*
%TO.C,D1_1*%
X49599486Y-18700000D03*
X50999486Y-18700000D03*
X50999486Y-19500000D03*
X49599486Y-19500000D03*
%TD*%
D14*
%TO.C,RU6*%
X129957500Y-48025000D03*
X130592500Y-48025000D03*
X131227500Y-48025000D03*
X131862500Y-48025000D03*
X132497500Y-48025000D03*
X133132500Y-48025000D03*
X133767500Y-48025000D03*
X134402500Y-48025000D03*
X135037500Y-48025000D03*
X135672500Y-48025000D03*
X136307500Y-48025000D03*
X136942500Y-48025000D03*
X136942500Y-42825000D03*
X136307500Y-42825000D03*
X135672500Y-42825000D03*
X135037500Y-42825000D03*
X134402500Y-42825000D03*
X133767500Y-42825000D03*
X133132500Y-42825000D03*
X132497500Y-42825000D03*
X131862500Y-42825000D03*
X131227500Y-42825000D03*
X130592500Y-42825000D03*
X129957500Y-42825000D03*
%TD*%
D13*
%TO.C,D31_4*%
X139584066Y-27699220D03*
X140984066Y-27699220D03*
X140984066Y-28499220D03*
X139584066Y-28499220D03*
%TD*%
%TO.C,D4_8*%
X58597944Y-39698180D03*
X59997944Y-39698180D03*
X59997944Y-40498180D03*
X58597944Y-40498180D03*
%TD*%
%TO.C,D18_3*%
X100590748Y-24699480D03*
X101990748Y-24699480D03*
X101990748Y-25499480D03*
X100590748Y-25499480D03*
%TD*%
%TO.C,D23_5*%
X115588178Y-30698960D03*
X116988178Y-30698960D03*
X116988178Y-31498960D03*
X115588178Y-31498960D03*
%TD*%
%TO.C,D21_3*%
X109589206Y-24699480D03*
X110989206Y-24699480D03*
X110989206Y-25499480D03*
X109589206Y-25499480D03*
%TD*%
%TO.C,D13_4*%
X85593318Y-27699220D03*
X86993318Y-27699220D03*
X86993318Y-28499220D03*
X85593318Y-28499220D03*
%TD*%
%TO.C,D24_7*%
X118587664Y-36698440D03*
X119987664Y-36698440D03*
X119987664Y-37498440D03*
X118587664Y-37498440D03*
%TD*%
%TO.C,D18_2*%
X100590748Y-21699740D03*
X101990748Y-21699740D03*
X101990748Y-22499740D03*
X100590748Y-22499740D03*
%TD*%
D20*
%TO.C,R2*%
X99450000Y-46935000D03*
X99450000Y-45915000D03*
%TD*%
D13*
%TO.C,D24_3*%
X118587664Y-24699480D03*
X119987664Y-24699480D03*
X119987664Y-25499480D03*
X118587664Y-25499480D03*
%TD*%
D17*
%TO.C,Q5*%
X74450000Y-43200000D03*
X72550000Y-43200000D03*
X73500000Y-45075000D03*
%TD*%
%TO.C,Q3*%
X61450000Y-43125000D03*
X59550000Y-43125000D03*
X60500000Y-45000000D03*
%TD*%
D13*
%TO.C,D2_5*%
X52598972Y-30698960D03*
X53998972Y-30698960D03*
X53998972Y-31498960D03*
X52598972Y-31498960D03*
%TD*%
D18*
%TO.C,R11*%
X61750000Y-46440000D03*
X61750000Y-47460000D03*
%TD*%
D13*
%TO.C,D17_5*%
X97591262Y-30698960D03*
X98991262Y-30698960D03*
X98991262Y-31498960D03*
X97591262Y-31498960D03*
%TD*%
%TO.C,D5_8*%
X61597430Y-39698180D03*
X62997430Y-39698180D03*
X62997430Y-40498180D03*
X61597430Y-40498180D03*
%TD*%
%TO.C,D2_6*%
X52598972Y-33698700D03*
X53998972Y-33698700D03*
X53998972Y-34498700D03*
X52598972Y-34498700D03*
%TD*%
%TO.C,D20_7*%
X106589720Y-36698440D03*
X107989720Y-36698440D03*
X107989720Y-37498440D03*
X106589720Y-37498440D03*
%TD*%
%TO.C,D0_1*%
X46600000Y-18700000D03*
X48000000Y-18700000D03*
X48000000Y-19500000D03*
X46600000Y-19500000D03*
%TD*%
%TO.C,D23_6*%
X115588178Y-33698700D03*
X116988178Y-33698700D03*
X116988178Y-34498700D03*
X115588178Y-34498700D03*
%TD*%
%TO.C,D10_5*%
X76594860Y-30698960D03*
X77994860Y-30698960D03*
X77994860Y-31498960D03*
X76594860Y-31498960D03*
%TD*%
%TO.C,D31_3*%
X139584066Y-24699480D03*
X140984066Y-24699480D03*
X140984066Y-25499480D03*
X139584066Y-25499480D03*
%TD*%
D21*
%TO.C,C2*%
X88970000Y-42200000D03*
X89930000Y-42200000D03*
%TD*%
D22*
%TO.C,R8*%
X137660000Y-49400000D03*
X136640000Y-49400000D03*
%TD*%
D13*
%TO.C,D7_8*%
X67596402Y-39698180D03*
X68996402Y-39698180D03*
X68996402Y-40498180D03*
X67596402Y-40498180D03*
%TD*%
%TO.C,D5_5*%
X61597430Y-30698960D03*
X62997430Y-30698960D03*
X62997430Y-31498960D03*
X61597430Y-31498960D03*
%TD*%
%TO.C,D20_2*%
X106589720Y-21699740D03*
X107989720Y-21699740D03*
X107989720Y-22499740D03*
X106589720Y-22499740D03*
%TD*%
%TO.C,D22_5*%
X112587005Y-30698960D03*
X113987005Y-30698960D03*
X113987005Y-31498960D03*
X112587005Y-31498960D03*
%TD*%
%TO.C,D17_7*%
X97591262Y-36698440D03*
X98991262Y-36698440D03*
X98991262Y-37498440D03*
X97591262Y-37498440D03*
%TD*%
%TO.C,D25_7*%
X121587150Y-36698440D03*
X122987150Y-36698440D03*
X122987150Y-37498440D03*
X121587150Y-37498440D03*
%TD*%
%TO.C,D20_8*%
X106589720Y-39698180D03*
X107989720Y-39698180D03*
X107989720Y-40498180D03*
X106589720Y-40498180D03*
%TD*%
%TO.C,D28_5*%
X130585608Y-30698960D03*
X131985608Y-30698960D03*
X131985608Y-31498960D03*
X130585608Y-31498960D03*
%TD*%
%TO.C,D0_7*%
X46600000Y-36698440D03*
X48000000Y-36698440D03*
X48000000Y-37498440D03*
X46600000Y-37498440D03*
%TD*%
%TO.C,D12_3*%
X82593832Y-24699480D03*
X83993832Y-24699480D03*
X83993832Y-25499480D03*
X82593832Y-25499480D03*
%TD*%
D23*
%TO.C,Y1*%
X85450000Y-48325000D03*
X85450000Y-49725000D03*
X86550000Y-49725000D03*
X86550000Y-48325000D03*
%TD*%
D13*
%TO.C,D14_6*%
X88592804Y-33698700D03*
X89992804Y-33698700D03*
X89992804Y-34498700D03*
X88592804Y-34498700D03*
%TD*%
D24*
%TO.C,C3*%
X90005000Y-50875000D03*
X89045000Y-50875000D03*
%TD*%
D13*
%TO.C,D14_5*%
X88592804Y-30698960D03*
X89992804Y-30698960D03*
X89992804Y-31498960D03*
X88592804Y-31498960D03*
%TD*%
%TO.C,D16_7*%
X94591776Y-36698440D03*
X95991776Y-36698440D03*
X95991776Y-37498440D03*
X94591776Y-37498440D03*
%TD*%
%TO.C,D23_4*%
X115588178Y-27699220D03*
X116988178Y-27699220D03*
X116988178Y-28499220D03*
X115588178Y-28499220D03*
%TD*%
%TO.C,D21_5*%
X109589206Y-30698960D03*
X110989206Y-30698960D03*
X110989206Y-31498960D03*
X109589206Y-31498960D03*
%TD*%
%TO.C,D7_7*%
X67596402Y-36698440D03*
X68996402Y-36698440D03*
X68996402Y-37498440D03*
X67596402Y-37498440D03*
%TD*%
%TO.C,D5_4*%
X61597430Y-27699220D03*
X62997430Y-27699220D03*
X62997430Y-28499220D03*
X61597430Y-28499220D03*
%TD*%
%TO.C,D16_3*%
X94591776Y-24699480D03*
X95991776Y-24699480D03*
X95991776Y-25499480D03*
X94591776Y-25499480D03*
%TD*%
%TO.C,D28_8*%
X130585608Y-39698180D03*
X131985608Y-39698180D03*
X131985608Y-40498180D03*
X130585608Y-40498180D03*
%TD*%
%TO.C,D2_2*%
X52598972Y-21699740D03*
X53998972Y-21699740D03*
X53998972Y-22499740D03*
X52598972Y-22499740D03*
%TD*%
%TO.C,D19_7*%
X103590234Y-36698440D03*
X104990234Y-36698440D03*
X104990234Y-37498440D03*
X103590234Y-37498440D03*
%TD*%
%TO.C,D17_8*%
X97591262Y-39698180D03*
X98991262Y-39698180D03*
X98991262Y-40498180D03*
X97591262Y-40498180D03*
%TD*%
D14*
%TO.C,RU5*%
X76507500Y-48100000D03*
X77142500Y-48100000D03*
X77777500Y-48100000D03*
X78412500Y-48100000D03*
X79047500Y-48100000D03*
X79682500Y-48100000D03*
X80317500Y-48100000D03*
X80952500Y-48100000D03*
X81587500Y-48100000D03*
X82222500Y-48100000D03*
X82857500Y-48100000D03*
X83492500Y-48100000D03*
X83492500Y-42900000D03*
X82857500Y-42900000D03*
X82222500Y-42900000D03*
X81587500Y-42900000D03*
X80952500Y-42900000D03*
X80317500Y-42900000D03*
X79682500Y-42900000D03*
X79047500Y-42900000D03*
X78412500Y-42900000D03*
X77777500Y-42900000D03*
X77142500Y-42900000D03*
X76507500Y-42900000D03*
%TD*%
D13*
%TO.C,D5_7*%
X61597430Y-36698440D03*
X62997430Y-36698440D03*
X62997430Y-37498440D03*
X61597430Y-37498440D03*
%TD*%
%TO.C,D23_2*%
X115588178Y-21699740D03*
X116988178Y-21699740D03*
X116988178Y-22499740D03*
X115588178Y-22499740D03*
%TD*%
%TO.C,D0_4*%
X46600000Y-27699220D03*
X48000000Y-27699220D03*
X48000000Y-28499220D03*
X46600000Y-28499220D03*
%TD*%
%TO.C,D15_3*%
X91592290Y-24699480D03*
X92992290Y-24699480D03*
X92992290Y-25499480D03*
X91592290Y-25499480D03*
%TD*%
D18*
%TO.C,R10*%
X112650000Y-46340000D03*
X112650000Y-47360000D03*
%TD*%
D13*
%TO.C,D10_4*%
X76594860Y-27699220D03*
X77994860Y-27699220D03*
X77994860Y-28499220D03*
X76594860Y-28499220D03*
%TD*%
%TO.C,D14_8*%
X88592804Y-39698180D03*
X89992804Y-39698180D03*
X89992804Y-40498180D03*
X88592804Y-40498180D03*
%TD*%
%TO.C,D24_5*%
X118587664Y-30698960D03*
X119987664Y-30698960D03*
X119987664Y-31498960D03*
X118587664Y-31498960D03*
%TD*%
%TO.C,D26_1*%
X124584949Y-18700000D03*
X125984949Y-18700000D03*
X125984949Y-19500000D03*
X124584949Y-19500000D03*
%TD*%
%TO.C,D2_3*%
X52598972Y-24699480D03*
X53998972Y-24699480D03*
X53998972Y-25499480D03*
X52598972Y-25499480D03*
%TD*%
D18*
%TO.C,R3*%
X59250000Y-46440000D03*
X59250000Y-47460000D03*
%TD*%
D13*
%TO.C,D31_2*%
X139584066Y-21699740D03*
X140984066Y-21699740D03*
X140984066Y-22499740D03*
X139584066Y-22499740D03*
%TD*%
%TO.C,D11_7*%
X79594346Y-36698440D03*
X80994346Y-36698440D03*
X80994346Y-37498440D03*
X79594346Y-37498440D03*
%TD*%
%TO.C,D29_7*%
X133585094Y-36698440D03*
X134985094Y-36698440D03*
X134985094Y-37498440D03*
X133585094Y-37498440D03*
%TD*%
%TO.C,D18_5*%
X100590748Y-30698960D03*
X101990748Y-30698960D03*
X101990748Y-31498960D03*
X100590748Y-31498960D03*
%TD*%
%TO.C,D27_8*%
X127586122Y-39698180D03*
X128986122Y-39698180D03*
X128986122Y-40498180D03*
X127586122Y-40498180D03*
%TD*%
%TO.C,D0_5*%
X46600000Y-30698960D03*
X48000000Y-30698960D03*
X48000000Y-31498960D03*
X46600000Y-31498960D03*
%TD*%
%TO.C,D19_6*%
X103590234Y-33698700D03*
X104990234Y-33698700D03*
X104990234Y-34498700D03*
X103590234Y-34498700D03*
%TD*%
D19*
%TO.C,TP9*%
X114000000Y-46800000D03*
%TD*%
D13*
%TO.C,D13_8*%
X85593318Y-39698180D03*
X86993318Y-39698180D03*
X86993318Y-40498180D03*
X85593318Y-40498180D03*
%TD*%
%TO.C,D5_3*%
X61597430Y-24699480D03*
X62997430Y-24699480D03*
X62997430Y-25499480D03*
X61597430Y-25499480D03*
%TD*%
%TO.C,D22_1*%
X112587005Y-18700000D03*
X113987005Y-18700000D03*
X113987005Y-19500000D03*
X112587005Y-19500000D03*
%TD*%
%TO.C,D14_2*%
X88592804Y-21699740D03*
X89992804Y-21699740D03*
X89992804Y-22499740D03*
X88592804Y-22499740D03*
%TD*%
%TO.C,D1_2*%
X49599486Y-21699740D03*
X50999486Y-21699740D03*
X50999486Y-22499740D03*
X49599486Y-22499740D03*
%TD*%
D22*
%TO.C,R7*%
X137660000Y-50350000D03*
X136640000Y-50350000D03*
%TD*%
D13*
%TO.C,D22_4*%
X112587005Y-27699220D03*
X113987005Y-27699220D03*
X113987005Y-28499220D03*
X112587005Y-28499220D03*
%TD*%
%TO.C,D24_2*%
X118587664Y-21699740D03*
X119987664Y-21699740D03*
X119987664Y-22499740D03*
X118587664Y-22499740D03*
%TD*%
%TO.C,D20_6*%
X106589720Y-33698700D03*
X107989720Y-33698700D03*
X107989720Y-34498700D03*
X106589720Y-34498700D03*
%TD*%
%TO.C,D19_1*%
X103590234Y-18700000D03*
X104990234Y-18700000D03*
X104990234Y-19500000D03*
X103590234Y-19500000D03*
%TD*%
%TO.C,D25_8*%
X121587150Y-39698180D03*
X122987150Y-39698180D03*
X122987150Y-40498180D03*
X121587150Y-40498180D03*
%TD*%
%TO.C,D15_1*%
X91592290Y-18700000D03*
X92992290Y-18700000D03*
X92992290Y-19500000D03*
X91592290Y-19500000D03*
%TD*%
%TO.C,D26_6*%
X124584949Y-33698700D03*
X125984949Y-33698700D03*
X125984949Y-34498700D03*
X124584949Y-34498700D03*
%TD*%
%TO.C,D21_2*%
X109589206Y-21699740D03*
X110989206Y-21699740D03*
X110989206Y-22499740D03*
X109589206Y-22499740D03*
%TD*%
%TO.C,D23_3*%
X115588178Y-24699480D03*
X116988178Y-24699480D03*
X116988178Y-25499480D03*
X115588178Y-25499480D03*
%TD*%
%TO.C,D22_3*%
X112587005Y-24699480D03*
X113987005Y-24699480D03*
X113987005Y-25499480D03*
X112587005Y-25499480D03*
%TD*%
%TO.C,D1_3*%
X49599486Y-24699480D03*
X50999486Y-24699480D03*
X50999486Y-25499480D03*
X49599486Y-25499480D03*
%TD*%
%TO.C,D28_1*%
X130585608Y-18700000D03*
X131985608Y-18700000D03*
X131985608Y-19500000D03*
X130585608Y-19500000D03*
%TD*%
%TO.C,D14_4*%
X88592804Y-27699220D03*
X89992804Y-27699220D03*
X89992804Y-28499220D03*
X88592804Y-28499220D03*
%TD*%
%TO.C,D12_7*%
X82593832Y-36698440D03*
X83993832Y-36698440D03*
X83993832Y-37498440D03*
X82593832Y-37498440D03*
%TD*%
%TO.C,D20_1*%
X106589720Y-18700000D03*
X107989720Y-18700000D03*
X107989720Y-19500000D03*
X106589720Y-19500000D03*
%TD*%
%TO.C,D27_5*%
X127586122Y-30698960D03*
X128986122Y-30698960D03*
X128986122Y-31498960D03*
X127586122Y-31498960D03*
%TD*%
D17*
%TO.C,Q1*%
X48450000Y-43062500D03*
X46550000Y-43062500D03*
X47500000Y-44937500D03*
%TD*%
D13*
%TO.C,D14_3*%
X88592804Y-24699480D03*
X89992804Y-24699480D03*
X89992804Y-25499480D03*
X88592804Y-25499480D03*
%TD*%
D17*
%TO.C,Q4*%
X114950000Y-43100000D03*
X113050000Y-43100000D03*
X114000000Y-44975000D03*
%TD*%
D13*
%TO.C,D6_8*%
X64596916Y-39698180D03*
X65996916Y-39698180D03*
X65996916Y-40498180D03*
X64596916Y-40498180D03*
%TD*%
%TO.C,D23_1*%
X115588178Y-18700000D03*
X116988178Y-18700000D03*
X116988178Y-19500000D03*
X115588178Y-19500000D03*
%TD*%
%TO.C,D10_1*%
X76594860Y-18700000D03*
X77994860Y-18700000D03*
X77994860Y-19500000D03*
X76594860Y-19500000D03*
%TD*%
%TO.C,D19_4*%
X103590234Y-27699220D03*
X104990234Y-27699220D03*
X104990234Y-28499220D03*
X103590234Y-28499220D03*
%TD*%
%TO.C,D1_6*%
X49599486Y-33698700D03*
X50999486Y-33698700D03*
X50999486Y-34498700D03*
X49599486Y-34498700D03*
%TD*%
%TO.C,D3_3*%
X55598458Y-24699480D03*
X56998458Y-24699480D03*
X56998458Y-25499480D03*
X55598458Y-25499480D03*
%TD*%
%TO.C,D5_2*%
X61597430Y-21699740D03*
X62997430Y-21699740D03*
X62997430Y-22499740D03*
X61597430Y-22499740D03*
%TD*%
%TO.C,D30_6*%
X136584580Y-33698700D03*
X137984580Y-33698700D03*
X137984580Y-34498700D03*
X136584580Y-34498700D03*
%TD*%
%TO.C,D15_5*%
X91592290Y-30698960D03*
X92992290Y-30698960D03*
X92992290Y-31498960D03*
X91592290Y-31498960D03*
%TD*%
%TO.C,D28_3*%
X130585608Y-24699480D03*
X131985608Y-24699480D03*
X131985608Y-25499480D03*
X130585608Y-25499480D03*
%TD*%
%TO.C,D7_2*%
X67596402Y-21699740D03*
X68996402Y-21699740D03*
X68996402Y-22499740D03*
X67596402Y-22499740D03*
%TD*%
%TO.C,D10_6*%
X76594860Y-33698700D03*
X77994860Y-33698700D03*
X77994860Y-34498700D03*
X76594860Y-34498700D03*
%TD*%
D18*
%TO.C,R5*%
X72300000Y-46440000D03*
X72300000Y-47460000D03*
%TD*%
D13*
%TO.C,D18_6*%
X100590748Y-33698700D03*
X101990748Y-33698700D03*
X101990748Y-34498700D03*
X100590748Y-34498700D03*
%TD*%
%TO.C,D11_1*%
X79594346Y-18700000D03*
X80994346Y-18700000D03*
X80994346Y-19500000D03*
X79594346Y-19500000D03*
%TD*%
%TO.C,D21_1*%
X109589206Y-18700000D03*
X110989206Y-18700000D03*
X110989206Y-19500000D03*
X109589206Y-19500000D03*
%TD*%
%TO.C,D1_7*%
X49599486Y-36698440D03*
X50999486Y-36698440D03*
X50999486Y-37498440D03*
X49599486Y-37498440D03*
%TD*%
%TO.C,D27_1*%
X127586122Y-18700000D03*
X128986122Y-18700000D03*
X128986122Y-19500000D03*
X127586122Y-19500000D03*
%TD*%
%TO.C,D24_6*%
X118587664Y-33698700D03*
X119987664Y-33698700D03*
X119987664Y-34498700D03*
X118587664Y-34498700D03*
%TD*%
%TO.C,D9_8*%
X73595374Y-39698180D03*
X74995374Y-39698180D03*
X74995374Y-40498180D03*
X73595374Y-40498180D03*
%TD*%
%TO.C,D8_1*%
X70595888Y-18700000D03*
X71995888Y-18700000D03*
X71995888Y-19500000D03*
X70595888Y-19500000D03*
%TD*%
%TO.C,D25_5*%
X121587150Y-30698960D03*
X122987150Y-30698960D03*
X122987150Y-31498960D03*
X121587150Y-31498960D03*
%TD*%
%TO.C,D12_6*%
X82593832Y-33698700D03*
X83993832Y-33698700D03*
X83993832Y-34498700D03*
X82593832Y-34498700D03*
%TD*%
%TO.C,D0_8*%
X46600000Y-39698180D03*
X48000000Y-39698180D03*
X48000000Y-40498180D03*
X46600000Y-40498180D03*
%TD*%
%TO.C,D16_4*%
X94591776Y-27699220D03*
X95991776Y-27699220D03*
X95991776Y-28499220D03*
X94591776Y-28499220D03*
%TD*%
%TO.C,D19_5*%
X103590234Y-30698960D03*
X104990234Y-30698960D03*
X104990234Y-31498960D03*
X103590234Y-31498960D03*
%TD*%
%TO.C,D11_4*%
X79594346Y-27699220D03*
X80994346Y-27699220D03*
X80994346Y-28499220D03*
X79594346Y-28499220D03*
%TD*%
%TO.C,D9_6*%
X73595374Y-33698700D03*
X74995374Y-33698700D03*
X74995374Y-34498700D03*
X73595374Y-34498700D03*
%TD*%
%TO.C,D29_6*%
X133585094Y-33698700D03*
X134985094Y-33698700D03*
X134985094Y-34498700D03*
X133585094Y-34498700D03*
%TD*%
D14*
%TO.C,RU3*%
X63507500Y-48100000D03*
X64142500Y-48100000D03*
X64777500Y-48100000D03*
X65412500Y-48100000D03*
X66047500Y-48100000D03*
X66682500Y-48100000D03*
X67317500Y-48100000D03*
X67952500Y-48100000D03*
X68587500Y-48100000D03*
X69222500Y-48100000D03*
X69857500Y-48100000D03*
X70492500Y-48100000D03*
X70492500Y-42900000D03*
X69857500Y-42900000D03*
X69222500Y-42900000D03*
X68587500Y-42900000D03*
X67952500Y-42900000D03*
X67317500Y-42900000D03*
X66682500Y-42900000D03*
X66047500Y-42900000D03*
X65412500Y-42900000D03*
X64777500Y-42900000D03*
X64142500Y-42900000D03*
X63507500Y-42900000D03*
%TD*%
D13*
%TO.C,D31_8*%
X139584066Y-39698180D03*
X140984066Y-39698180D03*
X140984066Y-40498180D03*
X139584066Y-40498180D03*
%TD*%
%TO.C,D3_4*%
X55598458Y-27699220D03*
X56998458Y-27699220D03*
X56998458Y-28499220D03*
X55598458Y-28499220D03*
%TD*%
%TO.C,D30_1*%
X136584580Y-18700000D03*
X137984580Y-18700000D03*
X137984580Y-19500000D03*
X136584580Y-19500000D03*
%TD*%
%TO.C,D31_5*%
X139584066Y-30698960D03*
X140984066Y-30698960D03*
X140984066Y-31498960D03*
X139584066Y-31498960D03*
%TD*%
D19*
%TO.C,TP28*%
X59750000Y-50650000D03*
%TD*%
D13*
%TO.C,D25_4*%
X121587150Y-27699220D03*
X122987150Y-27699220D03*
X122987150Y-28499220D03*
X121587150Y-28499220D03*
%TD*%
%TO.C,D11_8*%
X79594346Y-39698180D03*
X80994346Y-39698180D03*
X80994346Y-40498180D03*
X79594346Y-40498180D03*
%TD*%
%TO.C,D26_2*%
X124584949Y-21699740D03*
X125984949Y-21699740D03*
X125984949Y-22499740D03*
X124584949Y-22499740D03*
%TD*%
%TO.C,D27_6*%
X127586122Y-33698700D03*
X128986122Y-33698700D03*
X128986122Y-34498700D03*
X127586122Y-34498700D03*
%TD*%
%TO.C,D31_6*%
X139584066Y-33698700D03*
X140984066Y-33698700D03*
X140984066Y-34498700D03*
X139584066Y-34498700D03*
%TD*%
%TO.C,D6_3*%
X64596916Y-24699480D03*
X65996916Y-24699480D03*
X65996916Y-25499480D03*
X64596916Y-25499480D03*
%TD*%
%TO.C,D8_3*%
X70595888Y-24699480D03*
X71995888Y-24699480D03*
X71995888Y-25499480D03*
X70595888Y-25499480D03*
%TD*%
D25*
%TO.C,Q8*%
X138850000Y-44237500D03*
X140750000Y-44237500D03*
X139800000Y-42362500D03*
%TD*%
D13*
%TO.C,D29_1*%
X133585094Y-18700000D03*
X134985094Y-18700000D03*
X134985094Y-19500000D03*
X133585094Y-19500000D03*
%TD*%
%TO.C,D4_2*%
X58597944Y-21699740D03*
X59997944Y-21699740D03*
X59997944Y-22499740D03*
X58597944Y-22499740D03*
%TD*%
%TO.C,D28_2*%
X130585608Y-21699740D03*
X131985608Y-21699740D03*
X131985608Y-22499740D03*
X130585608Y-22499740D03*
%TD*%
%TO.C,D1_4*%
X49599486Y-27699220D03*
X50999486Y-27699220D03*
X50999486Y-28499220D03*
X49599486Y-28499220D03*
%TD*%
%TO.C,D19_8*%
X103590234Y-39698180D03*
X104990234Y-39698180D03*
X104990234Y-40498180D03*
X103590234Y-40498180D03*
%TD*%
%TO.C,D12_5*%
X82593832Y-30698960D03*
X83993832Y-30698960D03*
X83993832Y-31498960D03*
X82593832Y-31498960D03*
%TD*%
%TO.C,D13_1*%
X85593318Y-18700000D03*
X86993318Y-18700000D03*
X86993318Y-19500000D03*
X85593318Y-19500000D03*
%TD*%
%TO.C,D17_1*%
X97591262Y-18700000D03*
X98991262Y-18700000D03*
X98991262Y-19500000D03*
X97591262Y-19500000D03*
%TD*%
D18*
%TO.C,R14*%
X128200000Y-46440000D03*
X128200000Y-47460000D03*
%TD*%
D13*
%TO.C,D26_3*%
X124584949Y-24699480D03*
X125984949Y-24699480D03*
X125984949Y-25499480D03*
X124584949Y-25499480D03*
%TD*%
%TO.C,D8_5*%
X70595888Y-30698960D03*
X71995888Y-30698960D03*
X71995888Y-31498960D03*
X70595888Y-31498960D03*
%TD*%
%TO.C,D30_2*%
X136584580Y-21699740D03*
X137984580Y-21699740D03*
X137984580Y-22499740D03*
X136584580Y-22499740D03*
%TD*%
%TO.C,D30_3*%
X136584580Y-24699480D03*
X137984580Y-24699480D03*
X137984580Y-25499480D03*
X136584580Y-25499480D03*
%TD*%
D20*
%TO.C,R12*%
X127000000Y-47660000D03*
X127000000Y-46640000D03*
%TD*%
D13*
%TO.C,D9_3*%
X73595374Y-24699480D03*
X74995374Y-24699480D03*
X74995374Y-25499480D03*
X73595374Y-25499480D03*
%TD*%
%TO.C,D19_3*%
X103590234Y-24699480D03*
X104990234Y-24699480D03*
X104990234Y-25499480D03*
X103590234Y-25499480D03*
%TD*%
%TO.C,D8_7*%
X70595888Y-36698440D03*
X71995888Y-36698440D03*
X71995888Y-37498440D03*
X70595888Y-37498440D03*
%TD*%
%TO.C,D12_1*%
X82593832Y-18700000D03*
X83993832Y-18700000D03*
X83993832Y-19500000D03*
X82593832Y-19500000D03*
%TD*%
%TO.C,D26_7*%
X124584949Y-36698440D03*
X125984949Y-36698440D03*
X125984949Y-37498440D03*
X124584949Y-37498440D03*
%TD*%
%TO.C,D9_4*%
X73595374Y-27699220D03*
X74995374Y-27699220D03*
X74995374Y-28499220D03*
X73595374Y-28499220D03*
%TD*%
%TO.C,D6_4*%
X64596916Y-27699220D03*
X65996916Y-27699220D03*
X65996916Y-28499220D03*
X64596916Y-28499220D03*
%TD*%
%TO.C,D4_7*%
X58597944Y-36698440D03*
X59997944Y-36698440D03*
X59997944Y-37498440D03*
X58597944Y-37498440D03*
%TD*%
%TO.C,D16_8*%
X94591776Y-39698180D03*
X95991776Y-39698180D03*
X95991776Y-40498180D03*
X94591776Y-40498180D03*
%TD*%
%TO.C,D11_2*%
X79594346Y-21699740D03*
X80994346Y-21699740D03*
X80994346Y-22499740D03*
X79594346Y-22499740D03*
%TD*%
%TO.C,D6_5*%
X64596916Y-30698960D03*
X65996916Y-30698960D03*
X65996916Y-31498960D03*
X64596916Y-31498960D03*
%TD*%
%TO.C,D16_5*%
X94591776Y-30698960D03*
X95991776Y-30698960D03*
X95991776Y-31498960D03*
X94591776Y-31498960D03*
%TD*%
%TO.C,D26_4*%
X124584949Y-27699220D03*
X125984949Y-27699220D03*
X125984949Y-28499220D03*
X124584949Y-28499220D03*
%TD*%
%TO.C,D8_6*%
X70595888Y-33698700D03*
X71995888Y-33698700D03*
X71995888Y-34498700D03*
X70595888Y-34498700D03*
%TD*%
D26*
%TO.C,U2*%
X85750000Y-44550000D03*
X87650000Y-44550000D03*
X86700000Y-42275000D03*
%TD*%
D13*
%TO.C,D7_1*%
X67596402Y-18700000D03*
X68996402Y-18700000D03*
X68996402Y-19500000D03*
X67596402Y-19500000D03*
%TD*%
%TO.C,D22_8*%
X112587005Y-39698180D03*
X113987005Y-39698180D03*
X113987005Y-40498180D03*
X112587005Y-40498180D03*
%TD*%
%TO.C,D6_6*%
X64596916Y-33698700D03*
X65996916Y-33698700D03*
X65996916Y-34498700D03*
X64596916Y-34498700D03*
%TD*%
%TO.C,D28_7*%
X130585608Y-36698440D03*
X131985608Y-36698440D03*
X131985608Y-37498440D03*
X130585608Y-37498440D03*
%TD*%
%TO.C,D15_8*%
X91592290Y-39698180D03*
X92992290Y-39698180D03*
X92992290Y-40498180D03*
X91592290Y-40498180D03*
%TD*%
%TO.C,D3_2*%
X55598458Y-21699740D03*
X56998458Y-21699740D03*
X56998458Y-22499740D03*
X55598458Y-22499740D03*
%TD*%
%TO.C,D6_1*%
X64596916Y-18700000D03*
X65996916Y-18700000D03*
X65996916Y-19500000D03*
X64596916Y-19500000D03*
%TD*%
%TO.C,D16_1*%
X94591776Y-18700000D03*
X95991776Y-18700000D03*
X95991776Y-19500000D03*
X94591776Y-19500000D03*
%TD*%
%TO.C,D4_6*%
X58597944Y-33698700D03*
X59997944Y-33698700D03*
X59997944Y-34498700D03*
X58597944Y-34498700D03*
%TD*%
%TO.C,D15_6*%
X91592290Y-33698700D03*
X92992290Y-33698700D03*
X92992290Y-34498700D03*
X91592290Y-34498700D03*
%TD*%
D19*
%TO.C,TP31*%
X62100000Y-50700000D03*
%TD*%
D18*
%TO.C,R16*%
X99450000Y-47890000D03*
X99450000Y-48910000D03*
%TD*%
D13*
%TO.C,D29_8*%
X133585094Y-39698180D03*
X134985094Y-39698180D03*
X134985094Y-40498180D03*
X133585094Y-40498180D03*
%TD*%
%TO.C,D12_4*%
X82593832Y-27699220D03*
X83993832Y-27699220D03*
X83993832Y-28499220D03*
X82593832Y-28499220D03*
%TD*%
D17*
%TO.C,Q7*%
X140750000Y-46212500D03*
X138850000Y-46212500D03*
X139800000Y-48087500D03*
%TD*%
D21*
%TO.C,C7*%
X85470000Y-47150000D03*
X86430000Y-47150000D03*
%TD*%
D13*
%TO.C,D20_3*%
X106589720Y-24699480D03*
X107989720Y-24699480D03*
X107989720Y-25499480D03*
X106589720Y-25499480D03*
%TD*%
D18*
%TO.C,R17*%
X102350000Y-46840000D03*
X102350000Y-47860000D03*
%TD*%
D13*
%TO.C,D1_8*%
X49599486Y-39698180D03*
X50999486Y-39698180D03*
X50999486Y-40498180D03*
X49599486Y-40498180D03*
%TD*%
%TO.C,D19_2*%
X103590234Y-21699740D03*
X104990234Y-21699740D03*
X104990234Y-22499740D03*
X103590234Y-22499740D03*
%TD*%
%TO.C,D4_1*%
X58597944Y-18700000D03*
X59997944Y-18700000D03*
X59997944Y-19500000D03*
X58597944Y-19500000D03*
%TD*%
D27*
%TO.C,C10*%
X138600000Y-49370000D03*
X138600000Y-50330000D03*
%TD*%
D13*
%TO.C,D10_7*%
X76594860Y-36698440D03*
X77994860Y-36698440D03*
X77994860Y-37498440D03*
X76594860Y-37498440D03*
%TD*%
%TO.C,D8_8*%
X70595888Y-39698180D03*
X71995888Y-39698180D03*
X71995888Y-40498180D03*
X70595888Y-40498180D03*
%TD*%
D19*
%TO.C,TP15*%
X49250000Y-49000000D03*
%TD*%
D13*
%TO.C,D21_6*%
X109589206Y-33698700D03*
X110989206Y-33698700D03*
X110989206Y-34498700D03*
X109589206Y-34498700D03*
%TD*%
%TO.C,D9_2*%
X73595374Y-21699740D03*
X74995374Y-21699740D03*
X74995374Y-22499740D03*
X73595374Y-22499740D03*
%TD*%
D17*
%TO.C,Q6*%
X127850000Y-43100000D03*
X125950000Y-43100000D03*
X126900000Y-44975000D03*
%TD*%
D19*
%TO.C,TP6*%
X60525000Y-48225000D03*
%TD*%
D13*
%TO.C,D14_1*%
X88592804Y-18700000D03*
X89992804Y-18700000D03*
X89992804Y-19500000D03*
X88592804Y-19500000D03*
%TD*%
%TO.C,D31_1*%
X139584066Y-18700000D03*
X140984066Y-18700000D03*
X140984066Y-19500000D03*
X139584066Y-19500000D03*
%TD*%
%TO.C,D29_5*%
X133585094Y-30698960D03*
X134985094Y-30698960D03*
X134985094Y-31498960D03*
X133585094Y-31498960D03*
%TD*%
%TO.C,D16_6*%
X94591776Y-33698700D03*
X95991776Y-33698700D03*
X95991776Y-34498700D03*
X94591776Y-34498700D03*
%TD*%
%TO.C,D13_3*%
X85593318Y-24699480D03*
X86993318Y-24699480D03*
X86993318Y-25499480D03*
X85593318Y-25499480D03*
%TD*%
%TO.C,D15_2*%
X91592290Y-21699740D03*
X92992290Y-21699740D03*
X92992290Y-22499740D03*
X91592290Y-22499740D03*
%TD*%
%TO.C,D21_7*%
X109589206Y-36698440D03*
X110989206Y-36698440D03*
X110989206Y-37498440D03*
X109589206Y-37498440D03*
%TD*%
%TO.C,D24_8*%
X118587664Y-39698180D03*
X119987664Y-39698180D03*
X119987664Y-40498180D03*
X118587664Y-40498180D03*
%TD*%
%TO.C,D9_1*%
X73595374Y-18700000D03*
X74995374Y-18700000D03*
X74995374Y-19500000D03*
X73595374Y-19500000D03*
%TD*%
%TO.C,D16_2*%
X94591776Y-21699740D03*
X95991776Y-21699740D03*
X95991776Y-22499740D03*
X94591776Y-22499740D03*
%TD*%
D18*
%TO.C,R6*%
X125700000Y-46440000D03*
X125700000Y-47460000D03*
%TD*%
D13*
%TO.C,D3_8*%
X55598458Y-39698180D03*
X56998458Y-39698180D03*
X56998458Y-40498180D03*
X55598458Y-40498180D03*
%TD*%
%TO.C,D5_1*%
X61597430Y-18700000D03*
X62997430Y-18700000D03*
X62997430Y-19500000D03*
X61597430Y-19500000D03*
%TD*%
%TO.C,D28_4*%
X130585608Y-27699220D03*
X131985608Y-27699220D03*
X131985608Y-28499220D03*
X130585608Y-28499220D03*
%TD*%
%TO.C,D3_1*%
X55598458Y-18700000D03*
X56998458Y-18700000D03*
X56998458Y-19500000D03*
X55598458Y-19500000D03*
%TD*%
%TO.C,D20_5*%
X106589720Y-30698960D03*
X107989720Y-30698960D03*
X107989720Y-31498960D03*
X106589720Y-31498960D03*
%TD*%
%TO.C,D11_5*%
X79594346Y-30698960D03*
X80994346Y-30698960D03*
X80994346Y-31498960D03*
X79594346Y-31498960D03*
%TD*%
%TO.C,D18_1*%
X100590748Y-18700000D03*
X101990748Y-18700000D03*
X101990748Y-19500000D03*
X100590748Y-19500000D03*
%TD*%
D19*
%TO.C,TP12*%
X53925000Y-50625000D03*
%TD*%
D13*
%TO.C,D1_5*%
X49599486Y-30698960D03*
X50999486Y-30698960D03*
X50999486Y-31498960D03*
X49599486Y-31498960D03*
%TD*%
%TO.C,D26_8*%
X124584949Y-39698180D03*
X125984949Y-39698180D03*
X125984949Y-40498180D03*
X124584949Y-40498180D03*
%TD*%
%TO.C,D29_3*%
X133585094Y-24699480D03*
X134985094Y-24699480D03*
X134985094Y-25499480D03*
X133585094Y-25499480D03*
%TD*%
%TO.C,D18_4*%
X100590748Y-27699220D03*
X101990748Y-27699220D03*
X101990748Y-28499220D03*
X100590748Y-28499220D03*
%TD*%
%TO.C,D25_1*%
X121587150Y-18700000D03*
X122987150Y-18700000D03*
X122987150Y-19500000D03*
X121587150Y-19500000D03*
%TD*%
D27*
%TO.C,C1*%
X88000000Y-45970000D03*
X88000000Y-46930000D03*
%TD*%
D13*
%TO.C,D15_4*%
X91592290Y-27699220D03*
X92992290Y-27699220D03*
X92992290Y-28499220D03*
X91592290Y-28499220D03*
%TD*%
%TO.C,D7_6*%
X67596402Y-33698700D03*
X68996402Y-33698700D03*
X68996402Y-34498700D03*
X67596402Y-34498700D03*
%TD*%
%TO.C,D10_8*%
X76594860Y-39698180D03*
X77994860Y-39698180D03*
X77994860Y-40498180D03*
X76594860Y-40498180D03*
%TD*%
%TO.C,D9_5*%
X73595374Y-30698960D03*
X74995374Y-30698960D03*
X74995374Y-31498960D03*
X73595374Y-31498960D03*
%TD*%
D19*
%TO.C,TP29*%
X56350000Y-50550000D03*
%TD*%
D13*
%TO.C,D10_2*%
X76594860Y-21699740D03*
X77994860Y-21699740D03*
X77994860Y-22499740D03*
X76594860Y-22499740D03*
%TD*%
%TO.C,D22_6*%
X112587005Y-33698700D03*
X113987005Y-33698700D03*
X113987005Y-34498700D03*
X112587005Y-34498700D03*
%TD*%
D22*
%TO.C,R9*%
X48760000Y-47750000D03*
X47740000Y-47750000D03*
%TD*%
D13*
%TO.C,D27_7*%
X127586122Y-36698440D03*
X128986122Y-36698440D03*
X128986122Y-37498440D03*
X127586122Y-37498440D03*
%TD*%
D18*
%TO.C,R4*%
X115350000Y-46340000D03*
X115350000Y-47360000D03*
%TD*%
D13*
%TO.C,D21_8*%
X109589206Y-39698180D03*
X110989206Y-39698180D03*
X110989206Y-40498180D03*
X109589206Y-40498180D03*
%TD*%
%TO.C,D4_4*%
X58597944Y-27699220D03*
X59997944Y-27699220D03*
X59997944Y-28499220D03*
X58597944Y-28499220D03*
%TD*%
%TO.C,D7_3*%
X67596402Y-24699480D03*
X68996402Y-24699480D03*
X68996402Y-25499480D03*
X67596402Y-25499480D03*
%TD*%
%TO.C,D4_5*%
X58597944Y-30698960D03*
X59997944Y-30698960D03*
X59997944Y-31498960D03*
X58597944Y-31498960D03*
%TD*%
%TO.C,D11_6*%
X79594346Y-33698700D03*
X80994346Y-33698700D03*
X80994346Y-34498700D03*
X79594346Y-34498700D03*
%TD*%
%TO.C,D18_8*%
X100590748Y-39698180D03*
X101990748Y-39698180D03*
X101990748Y-40498180D03*
X100590748Y-40498180D03*
%TD*%
%TO.C,D15_7*%
X91592290Y-36698440D03*
X92992290Y-36698440D03*
X92992290Y-37498440D03*
X91592290Y-37498440D03*
%TD*%
%TO.C,D2_7*%
X52598972Y-36698440D03*
X53998972Y-36698440D03*
X53998972Y-37498440D03*
X52598972Y-37498440D03*
%TD*%
%TO.C,D28_6*%
X130585608Y-33698700D03*
X131985608Y-33698700D03*
X131985608Y-34498700D03*
X130585608Y-34498700D03*
%TD*%
%TO.C,D0_2*%
X46600000Y-21699740D03*
X48000000Y-21699740D03*
X48000000Y-22499740D03*
X46600000Y-22499740D03*
%TD*%
%TO.C,D26_5*%
X124584949Y-30698960D03*
X125984949Y-30698960D03*
X125984949Y-31498960D03*
X124584949Y-31498960D03*
%TD*%
%TO.C,D27_2*%
X127586122Y-21699740D03*
X128986122Y-21699740D03*
X128986122Y-22499740D03*
X127586122Y-22499740D03*
%TD*%
%TO.C,D12_8*%
X82593832Y-39698180D03*
X83993832Y-39698180D03*
X83993832Y-40498180D03*
X82593832Y-40498180D03*
%TD*%
D28*
%TO.C,C8*%
X87800000Y-49380000D03*
X87800000Y-48420000D03*
%TD*%
D13*
%TO.C,D24_4*%
X118587664Y-27699220D03*
X119987664Y-27699220D03*
X119987664Y-28499220D03*
X118587664Y-28499220D03*
%TD*%
%TO.C,D6_2*%
X64596916Y-21699740D03*
X65996916Y-21699740D03*
X65996916Y-22499740D03*
X64596916Y-22499740D03*
%TD*%
%TO.C,D17_4*%
X97591262Y-27699220D03*
X98991262Y-27699220D03*
X98991262Y-28499220D03*
X97591262Y-28499220D03*
%TD*%
%TO.C,D0_6*%
X46600000Y-33698700D03*
X48000000Y-33698700D03*
X48000000Y-34498700D03*
X46600000Y-34498700D03*
%TD*%
%TO.C,D10_3*%
X76594860Y-24699480D03*
X77994860Y-24699480D03*
X77994860Y-25499480D03*
X76594860Y-25499480D03*
%TD*%
D14*
%TO.C,RU4*%
X117007500Y-48037500D03*
X117642500Y-48037500D03*
X118277500Y-48037500D03*
X118912500Y-48037500D03*
X119547500Y-48037500D03*
X120182500Y-48037500D03*
X120817500Y-48037500D03*
X121452500Y-48037500D03*
X122087500Y-48037500D03*
X122722500Y-48037500D03*
X123357500Y-48037500D03*
X123992500Y-48037500D03*
X123992500Y-42837500D03*
X123357500Y-42837500D03*
X122722500Y-42837500D03*
X122087500Y-42837500D03*
X121452500Y-42837500D03*
X120817500Y-42837500D03*
X120182500Y-42837500D03*
X119547500Y-42837500D03*
X118912500Y-42837500D03*
X118277500Y-42837500D03*
X117642500Y-42837500D03*
X117007500Y-42837500D03*
%TD*%
D13*
%TO.C,D25_3*%
X121587150Y-24699480D03*
X122987150Y-24699480D03*
X122987150Y-25499480D03*
X121587150Y-25499480D03*
%TD*%
%TO.C,D29_2*%
X133585094Y-21699740D03*
X134985094Y-21699740D03*
X134985094Y-22499740D03*
X133585094Y-22499740D03*
%TD*%
%TO.C,D24_1*%
X118587664Y-18700000D03*
X119987664Y-18700000D03*
X119987664Y-19500000D03*
X118587664Y-19500000D03*
%TD*%
%TO.C,D13_7*%
X85593318Y-36698440D03*
X86993318Y-36698440D03*
X86993318Y-37498440D03*
X85593318Y-37498440D03*
%TD*%
%TO.C,D30_8*%
X136584580Y-39698180D03*
X137984580Y-39698180D03*
X137984580Y-40498180D03*
X136584580Y-40498180D03*
%TD*%
D21*
%TO.C,C5*%
X73270000Y-48350000D03*
X74230000Y-48350000D03*
%TD*%
D13*
%TO.C,D31_7*%
X139584066Y-36698440D03*
X140984066Y-36698440D03*
X140984066Y-37498440D03*
X139584066Y-37498440D03*
%TD*%
%TO.C,D12_2*%
X82593832Y-21699740D03*
X83993832Y-21699740D03*
X83993832Y-22499740D03*
X82593832Y-22499740D03*
%TD*%
D29*
%TO.C,R1*%
X47740000Y-46500000D03*
X48760000Y-46500000D03*
%TD*%
D13*
%TO.C,D23_8*%
X115588178Y-39698180D03*
X116988178Y-39698180D03*
X116988178Y-40498180D03*
X115588178Y-40498180D03*
%TD*%
%TO.C,D30_5*%
X136584580Y-30698960D03*
X137984580Y-30698960D03*
X137984580Y-31498960D03*
X136584580Y-31498960D03*
%TD*%
%TO.C,D2_8*%
X52598972Y-39698180D03*
X53998972Y-39698180D03*
X53998972Y-40498180D03*
X52598972Y-40498180D03*
%TD*%
%TO.C,D7_4*%
X67596402Y-27699220D03*
X68996402Y-27699220D03*
X68996402Y-28499220D03*
X67596402Y-28499220D03*
%TD*%
D30*
%TO.C,D1*%
X100500000Y-47900000D03*
X100500000Y-46500000D03*
X101300000Y-46500000D03*
X101300000Y-47900000D03*
%TD*%
D29*
%TO.C,R15*%
X100430000Y-48900000D03*
X101450000Y-48900000D03*
%TD*%
D13*
%TO.C,D6_7*%
X64596916Y-36698440D03*
X65996916Y-36698440D03*
X65996916Y-37498440D03*
X64596916Y-37498440D03*
%TD*%
%TO.C,D3_6*%
X55598458Y-33698700D03*
X56998458Y-33698700D03*
X56998458Y-34498700D03*
X55598458Y-34498700D03*
%TD*%
%TO.C,D17_3*%
X97591262Y-24699480D03*
X98991262Y-24699480D03*
X98991262Y-25499480D03*
X97591262Y-25499480D03*
%TD*%
%TO.C,D27_3*%
X127586122Y-24699480D03*
X128986122Y-24699480D03*
X128986122Y-25499480D03*
X127586122Y-25499480D03*
%TD*%
%TO.C,D27_4*%
X127586122Y-27699220D03*
X128986122Y-27699220D03*
X128986122Y-28499220D03*
X127586122Y-28499220D03*
%TD*%
D24*
%TO.C,C4*%
X86430000Y-46000000D03*
X85470000Y-46000000D03*
%TD*%
D19*
%TO.C,TP30*%
X64300000Y-50750000D03*
%TD*%
D13*
%TO.C,D2_1*%
X52598972Y-18700000D03*
X53998972Y-18700000D03*
X53998972Y-19500000D03*
X52598972Y-19500000D03*
%TD*%
%TO.C,D7_5*%
X67596402Y-30698960D03*
X68996402Y-30698960D03*
X68996402Y-31498960D03*
X67596402Y-31498960D03*
%TD*%
%TO.C,D21_4*%
X109589206Y-27699220D03*
X110989206Y-27699220D03*
X110989206Y-28499220D03*
X109589206Y-28499220D03*
%TD*%
%TO.C,D29_4*%
X133585094Y-27699220D03*
X134985094Y-27699220D03*
X134985094Y-28499220D03*
X133585094Y-28499220D03*
%TD*%
%LPD*%
M02*
